<ttFont>
    <TTGlyph name="A" xMin="-1" yMin="-186" xMax="609" yMax="674">
      <contour>
        <pt x="609" y="72" on="1"/>
        <pt x="609" y="66" on="0"/>
        <pt x="593" y="56" on="1"/>
        <pt x="512" y="17" on="0"/>
        <pt x="449" y="-64" on="1"/>
        <pt x="445" y="-70" on="0"/>
        <pt x="440" y="-70" on="1"/>
        <pt x="430" y="-70" on="0"/>
        <pt x="430" y="-56" on="1"/>
        <pt x="430" y="-45" on="0"/>
        <pt x="461" y="-5" on="0"/>
        <pt x="473" y="4" on="1"/>
        <pt x="475" y="33" on="0"/>
        <pt x="480" y="129" on="0"/>
        <pt x="483" y="227" on="0"/>
        <pt x="483" y="255" on="1"/>
        <pt x="483" y="267" on="0"/>
        <pt x="483" y="273" on="1"/>
        <pt x="177" y="270" on="0"/>
        <pt x="175" y="270" on="1"/>
        <pt x="129" y="199" on="0"/>
        <pt x="80" y="113" on="0"/>
        <pt x="36" y="-22" on="0"/>
        <pt x="36" y="-88" on="1"/>
        <pt x="36" y="-140" on="0"/>
        <pt x="60" y="-166" on="1"/>
        <pt x="69" y="-175" on="0"/>
        <pt x="69" y="-180" on="1"/>
        <pt x="69" y="-186" on="0"/>
        <pt x="51" y="-186" on="1"/>
        <pt x="24" y="-186" on="0"/>
        <pt x="-1" y="-109" on="0"/>
        <pt x="-1" y="-75" on="1"/>
        <pt x="-1" y="9" on="0"/>
        <pt x="76" y="176" on="0"/>
        <pt x="141" y="270" on="1"/>
        <pt x="137" y="270" on="0"/>
        <pt x="126" y="270" on="0"/>
        <pt x="116" y="270" on="0"/>
        <pt x="103" y="270" on="0"/>
        <pt x="92" y="269" on="0"/>
        <pt x="80" y="269" on="0"/>
        <pt x="74" y="269" on="1"/>
        <pt x="52" y="269" on="0"/>
        <pt x="26" y="271" on="0"/>
        <pt x="26" y="274" on="1"/>
        <pt x="26" y="283" on="0"/>
        <pt x="42" y="295" on="0"/>
        <pt x="71" y="300" on="0"/>
        <pt x="100" y="303" on="0"/>
        <pt x="117" y="303" on="1"/>
        <pt x="128" y="303" on="0"/>
        <pt x="150" y="302" on="0"/>
        <pt x="165" y="301" on="0"/>
        <pt x="165" y="301" on="1"/>
        <pt x="274" y="448" on="0"/>
        <pt x="431" y="599" on="1"/>
        <pt x="421" y="642" on="0"/>
        <pt x="421" y="654" on="1"/>
        <pt x="421" y="674" on="0"/>
        <pt x="445" y="674" on="1"/>
        <pt x="475" y="674" on="0"/>
        <pt x="480" y="645" on="1"/>
        <pt x="498" y="663" on="0"/>
        <pt x="504" y="663" on="1"/>
        <pt x="514" y="663" on="0"/>
        <pt x="514" y="644" on="1"/>
        <pt x="514" y="641" on="0"/>
        <pt x="513" y="632" on="0"/>
        <pt x="513" y="630" on="1"/>
        <pt x="510" y="627" on="0"/>
        <pt x="494" y="613" on="0"/>
        <pt x="490" y="608" on="1"/>
        <pt x="517" y="483" on="0"/>
        <pt x="517" y="301" on="1"/>
        <pt x="518" y="301" on="0"/>
        <pt x="523" y="301" on="0"/>
        <pt x="524" y="301" on="1"/>
        <pt x="601" y="301" on="0"/>
        <pt x="608" y="287" on="1"/>
        <pt x="606" y="282" on="0"/>
        <pt x="535" y="275" on="0"/>
        <pt x="517" y="275" on="1"/>
        <pt x="517" y="42" on="1"/>
        <pt x="586" y="79" on="0"/>
        <pt x="600" y="79" on="1"/>
        <pt x="609" y="79" on="0"/>
      </contour>
      <contour>
        <pt x="483" y="300" on="1"/>
        <pt x="483" y="343" on="0"/>
        <pt x="457" y="522" on="0"/>
        <pt x="441" y="563" on="1"/>
        <pt x="262" y="399" on="0"/>
        <pt x="197" y="300" on="1"/>
      </contour>
    </TTGlyph>
    <TTGlyph name="AE" xMin="-78" yMin="-186" xMax="946" yMax="691">
      <contour>
        <pt x="523" y="620" on="1"/>
        <pt x="546" y="616" on="0"/>
        <pt x="574" y="611" on="0"/>
        <pt x="616" y="605" on="0"/>
        <pt x="649" y="601" on="0"/>
        <pt x="689" y="599" on="0"/>
        <pt x="708" y="599" on="1"/>
        <pt x="737" y="599" on="0"/>
        <pt x="794" y="603" on="0"/>
        <pt x="820" y="606" on="1"/>
        <pt x="841" y="609" on="0"/>
        <pt x="877" y="624" on="0"/>
        <pt x="897" y="637" on="0"/>
        <pt x="899" y="637" on="1"/>
        <pt x="912" y="639" on="0"/>
        <pt x="912" y="630" on="1"/>
        <pt x="912" y="605" on="0"/>
        <pt x="835" y="572" on="0"/>
        <pt x="804" y="568" on="1"/>
        <pt x="786" y="565" on="0"/>
        <pt x="751" y="563" on="0"/>
        <pt x="732" y="563" on="1"/>
        <pt x="710" y="563" on="0"/>
        <pt x="667" y="566" on="0"/>
        <pt x="608" y="574" on="0"/>
        <pt x="586" y="578" on="0"/>
        <pt x="506" y="592" on="0"/>
        <pt x="503" y="593" on="1"/>
        <pt x="505" y="573" on="0"/>
        <pt x="506" y="530" on="0"/>
        <pt x="506" y="506" on="1"/>
        <pt x="506" y="411" on="0"/>
        <pt x="494" y="303" on="1"/>
        <pt x="510" y="303" on="0"/>
        <pt x="573" y="302" on="0"/>
        <pt x="584" y="302" on="1"/>
        <pt x="591" y="302" on="0"/>
        <pt x="719" y="301" on="0"/>
        <pt x="744" y="301" on="1"/>
        <pt x="754" y="301" on="0"/>
        <pt x="772" y="298" on="0"/>
        <pt x="784" y="293" on="0"/>
        <pt x="791" y="286" on="0"/>
        <pt x="791" y="283" on="1"/>
        <pt x="791" y="279" on="0"/>
        <pt x="775" y="273" on="0"/>
        <pt x="760" y="273" on="1"/>
        <pt x="667" y="273" on="0"/>
        <pt x="489" y="269" on="1"/>
        <pt x="455" y="44" on="1"/>
        <pt x="487" y="36" on="0"/>
        <pt x="618" y="-9" on="0"/>
        <pt x="727" y="-36" on="0"/>
        <pt x="775" y="-36" on="1"/>
        <pt x="804" y="-36" on="0"/>
        <pt x="830" y="-31" on="1"/>
        <pt x="868" y="-23" on="0"/>
        <pt x="926" y="37" on="0"/>
        <pt x="926" y="79" on="1"/>
        <pt x="926" y="82" on="0"/>
        <pt x="926" y="86" on="0"/>
        <pt x="925" y="91" on="0"/>
        <pt x="925" y="94" on="1"/>
        <pt x="922" y="117" on="0"/>
        <pt x="891" y="159" on="0"/>
        <pt x="890" y="165" on="1"/>
        <pt x="889" y="173" on="0"/>
        <pt x="894" y="187" on="0"/>
        <pt x="901" y="187" on="1"/>
        <pt x="907" y="187" on="0"/>
        <pt x="928" y="152" on="0"/>
        <pt x="943" y="114" on="0"/>
        <pt x="944" y="106" on="1"/>
        <pt x="946" y="94" on="0"/>
        <pt x="946" y="82" on="1"/>
        <pt x="946" y="20" on="0"/>
        <pt x="869" y="-62" on="0"/>
        <pt x="815" y="-72" on="1"/>
        <pt x="803" y="-74" on="0"/>
        <pt x="778" y="-77" on="0"/>
        <pt x="765" y="-77" on="1"/>
        <pt x="702" y="-77" on="0"/>
        <pt x="473" y="2" on="0"/>
        <pt x="433" y="9" on="1"/>
        <pt x="422" y="4" on="0"/>
        <pt x="406" y="7" on="1"/>
        <pt x="406" y="11" on="0"/>
        <pt x="407" y="13" on="1"/>
        <pt x="387" y="15" on="0"/>
        <pt x="369" y="15" on="1"/>
        <pt x="344" y="15" on="0"/>
        <pt x="321" y="11" on="1"/>
        <pt x="283" y="2" on="0"/>
        <pt x="279" y="-23" on="1"/>
        <pt x="279" y="-25" on="0"/>
        <pt x="280" y="-31" on="1"/>
        <pt x="280" y="-37" on="0"/>
        <pt x="278" y="-38" on="1"/>
        <pt x="271" y="-38" on="0"/>
        <pt x="263" y="-20" on="0"/>
        <pt x="263" y="-11" on="1"/>
        <pt x="263" y="20" on="0"/>
        <pt x="326" y="56" on="0"/>
        <pt x="369" y="56" on="1"/>
        <pt x="388" y="56" on="0"/>
        <pt x="413" y="53" on="1"/>
        <pt x="418" y="77" on="0"/>
        <pt x="437" y="165" on="0"/>
        <pt x="451" y="237" on="0"/>
        <pt x="455" y="269" on="1"/>
        <pt x="392" y="270" on="0"/>
        <pt x="304" y="270" on="1"/>
        <pt x="278" y="270" on="0"/>
        <pt x="176" y="270" on="0"/>
        <pt x="150" y="270" on="1"/>
        <pt x="104" y="199" on="0"/>
        <pt x="55" y="113" on="0"/>
        <pt x="11" y="-22" on="0"/>
        <pt x="11" y="-88" on="1"/>
        <pt x="11" y="-107" on="0"/>
        <pt x="19" y="-140" on="0"/>
        <pt x="30" y="-160" on="0"/>
        <pt x="41" y="-174" on="0"/>
        <pt x="49" y="-182" on="0"/>
        <pt x="49" y="-184" on="1"/>
        <pt x="49" y="-186" on="0"/>
        <pt x="26" y="-186" on="1"/>
        <pt x="-1" y="-186" on="0"/>
        <pt x="-26" y="-109" on="0"/>
        <pt x="-26" y="-75" on="1"/>
        <pt x="-26" y="9" on="0"/>
        <pt x="51" y="176" on="0"/>
        <pt x="116" y="270" on="1"/>
        <pt x="110" y="270" on="0"/>
        <pt x="92" y="270" on="0"/>
        <pt x="77" y="270" on="0"/>
        <pt x="57" y="269" on="0"/>
        <pt x="49" y="269" on="1"/>
        <pt x="39" y="269" on="0"/>
        <pt x="22" y="270" on="0"/>
        <pt x="8" y="271" on="0"/>
        <pt x="1" y="273" on="0"/>
        <pt x="1" y="274" on="1"/>
        <pt x="1" y="283" on="0"/>
        <pt x="17" y="295" on="0"/>
        <pt x="46" y="300" on="0"/>
        <pt x="75" y="303" on="0"/>
        <pt x="92" y="303" on="1"/>
        <pt x="100" y="303" on="0"/>
        <pt x="118" y="302" on="0"/>
        <pt x="130" y="302" on="0"/>
        <pt x="139" y="301" on="0"/>
        <pt x="140" y="301" on="1"/>
        <pt x="195" y="375" on="0"/>
        <pt x="368" y="554" on="0"/>
        <pt x="433" y="605" on="1"/>
        <pt x="431" y="605" on="0"/>
        <pt x="386" y="611" on="1"/>
        <pt x="344" y="615" on="0"/>
        <pt x="258" y="620" on="0"/>
        <pt x="218" y="620" on="1"/>
        <pt x="159" y="620" on="0"/>
        <pt x="118" y="614" on="1"/>
        <pt x="57" y="605" on="0"/>
        <pt x="-45" y="539" on="0"/>
        <pt x="-45" y="481" on="1"/>
        <pt x="-45" y="444" on="0"/>
        <pt x="-30" y="425" on="1"/>
        <pt x="-26" y="420" on="0"/>
        <pt x="-22" y="412" on="0"/>
        <pt x="-22" y="409" on="1"/>
        <pt x="-22" y="406" on="0"/>
        <pt x="-27" y="403" on="0"/>
        <pt x="-31" y="403" on="1"/>
        <pt x="-47" y="403" on="0"/>
        <pt x="-56" y="420" on="1"/>
        <pt x="-78" y="461" on="0"/>
        <pt x="-78" y="516" on="1"/>
        <pt x="-78" y="628" on="0"/>
        <pt x="94" y="651" on="1"/>
        <pt x="143" y="658" on="0"/>
        <pt x="203" y="658" on="1"/>
        <pt x="259" y="658" on="0"/>
        <pt x="385" y="646" on="0"/>
        <pt x="442" y="636" on="1"/>
        <pt x="437" y="656" on="0"/>
        <pt x="437" y="671" on="1"/>
        <pt x="437" y="691" on="0"/>
        <pt x="461" y="691" on="1"/>
        <pt x="474" y="691" on="0"/>
        <pt x="496" y="655" on="0"/>
        <pt x="496" y="639" on="1"/>
        <pt x="525" y="663" on="0"/>
        <pt x="534" y="663" on="1"/>
        <pt x="549" y="663" on="0"/>
        <pt x="549" y="654" on="1"/>
        <pt x="549" y="652" on="0"/>
        <pt x="547" y="645" on="0"/>
        <pt x="544" y="639" on="0"/>
        <pt x="539" y="632" on="0"/>
        <pt x="538" y="630" on="1"/>
        <pt x="533" y="625" on="0"/>
      </contour>
      <contour>
        <pt x="460" y="302" on="1"/>
        <pt x="468" y="421" on="0"/>
        <pt x="468" y="480" on="1"/>
        <pt x="468" y="514" on="0"/>
        <pt x="464" y="569" on="0"/>
        <pt x="459" y="588" on="1"/>
        <pt x="250" y="418" on="0"/>
        <pt x="172" y="300" on="1"/>
        <pt x="400" y="300" on="0"/>
      </contour>
    </TTGlyph>
    <TTGlyph name="Aacute" xMin="-1" yMin="-186" xMax="609" yMax="850">
      <contour>
        <pt x="609" y="72" on="1"/>
        <pt x="609" y="66" on="0"/>
        <pt x="593" y="56" on="1"/>
        <pt x="512" y="17" on="0"/>
        <pt x="449" y="-64" on="1"/>
        <pt x="445" y="-70" on="0"/>
        <pt x="440" y="-70" on="1"/>
        <pt x="430" y="-70" on="0"/>
        <pt x="430" y="-56" on="1"/>
        <pt x="430" y="-45" on="0"/>
        <pt x="461" y="-5" on="0"/>
        <pt x="473" y="4" on="1"/>
        <pt x="475" y="33" on="0"/>
        <pt x="480" y="129" on="0"/>
        <pt x="483" y="227" on="0"/>
        <pt x="483" y="255" on="1"/>
        <pt x="483" y="267" on="0"/>
        <pt x="483" y="273" on="1"/>
        <pt x="177" y="270" on="0"/>
        <pt x="175" y="270" on="1"/>
        <pt x="129" y="199" on="0"/>
        <pt x="80" y="113" on="0"/>
        <pt x="36" y="-22" on="0"/>
        <pt x="36" y="-88" on="1"/>
        <pt x="36" y="-140" on="0"/>
        <pt x="60" y="-166" on="1"/>
        <pt x="69" y="-175" on="0"/>
        <pt x="69" y="-180" on="1"/>
        <pt x="69" y="-186" on="0"/>
        <pt x="51" y="-186" on="1"/>
        <pt x="24" y="-186" on="0"/>
        <pt x="-1" y="-109" on="0"/>
        <pt x="-1" y="-75" on="1"/>
        <pt x="-1" y="9" on="0"/>
        <pt x="76" y="176" on="0"/>
        <pt x="141" y="270" on="1"/>
        <pt x="137" y="270" on="0"/>
        <pt x="126" y="270" on="0"/>
        <pt x="116" y="270" on="0"/>
        <pt x="103" y="270" on="0"/>
        <pt x="92" y="269" on="0"/>
        <pt x="80" y="269" on="0"/>
        <pt x="74" y="269" on="1"/>
        <pt x="52" y="269" on="0"/>
        <pt x="26" y="271" on="0"/>
        <pt x="26" y="274" on="1"/>
        <pt x="26" y="283" on="0"/>
        <pt x="42" y="295" on="0"/>
        <pt x="71" y="300" on="0"/>
        <pt x="100" y="303" on="0"/>
        <pt x="117" y="303" on="1"/>
        <pt x="128" y="303" on="0"/>
        <pt x="150" y="302" on="0"/>
        <pt x="165" y="301" on="0"/>
        <pt x="165" y="301" on="1"/>
        <pt x="274" y="448" on="0"/>
        <pt x="431" y="599" on="1"/>
        <pt x="421" y="642" on="0"/>
        <pt x="421" y="654" on="1"/>
        <pt x="421" y="674" on="0"/>
        <pt x="445" y="674" on="1"/>
        <pt x="475" y="674" on="0"/>
        <pt x="480" y="645" on="1"/>
        <pt x="498" y="663" on="0"/>
        <pt x="504" y="663" on="1"/>
        <pt x="514" y="663" on="0"/>
        <pt x="514" y="644" on="1"/>
        <pt x="514" y="641" on="0"/>
        <pt x="513" y="632" on="0"/>
        <pt x="513" y="630" on="1"/>
        <pt x="510" y="627" on="0"/>
        <pt x="494" y="613" on="0"/>
        <pt x="490" y="608" on="1"/>
        <pt x="517" y="483" on="0"/>
        <pt x="517" y="301" on="1"/>
        <pt x="518" y="301" on="0"/>
        <pt x="523" y="301" on="0"/>
        <pt x="524" y="301" on="1"/>
        <pt x="601" y="301" on="0"/>
        <pt x="608" y="287" on="1"/>
        <pt x="606" y="282" on="0"/>
        <pt x="535" y="275" on="0"/>
        <pt x="517" y="275" on="1"/>
        <pt x="517" y="42" on="1"/>
        <pt x="586" y="79" on="0"/>
        <pt x="600" y="79" on="1"/>
        <pt x="609" y="79" on="0"/>
      </contour>
      <contour>
        <pt x="483" y="300" on="1"/>
        <pt x="483" y="343" on="0"/>
        <pt x="457" y="522" on="0"/>
        <pt x="441" y="563" on="1"/>
        <pt x="262" y="399" on="0"/>
        <pt x="197" y="300" on="1"/>
      </contour>
      <contour>
        <pt x="597" y="811" on="1"/>
        <pt x="575" y="797" on="0"/>
        <pt x="508" y="741" on="0"/>
        <pt x="456" y="703" on="0"/>
        <pt x="439" y="699" on="1"/>
        <pt x="436" y="699" on="1"/>
        <pt x="433" y="699" on="0"/>
        <pt x="433" y="701" on="1"/>
        <pt x="433" y="719" on="0"/>
        <pt x="567" y="845" on="1"/>
        <pt x="573" y="850" on="0"/>
        <pt x="579" y="850" on="1"/>
        <pt x="582" y="850" on="0"/>
        <pt x="590" y="847" on="0"/>
        <pt x="596" y="841" on="0"/>
        <pt x="600" y="834" on="0"/>
        <pt x="603" y="826" on="0"/>
        <pt x="603" y="819" on="0"/>
        <pt x="600" y="813" on="0"/>
      </contour>
    </TTGlyph>
    <TTGlyph name="Acircumflex" xMin="-1" yMin="-186" xMax="609" yMax="850">
      <contour>
        <pt x="609" y="72" on="1"/>
        <pt x="609" y="66" on="0"/>
        <pt x="593" y="56" on="1"/>
        <pt x="512" y="17" on="0"/>
        <pt x="449" y="-64" on="1"/>
        <pt x="445" y="-70" on="0"/>
        <pt x="440" y="-70" on="1"/>
        <pt x="430" y="-70" on="0"/>
        <pt x="430" y="-56" on="1"/>
        <pt x="430" y="-45" on="0"/>
        <pt x="461" y="-5" on="0"/>
        <pt x="473" y="4" on="1"/>
        <pt x="475" y="33" on="0"/>
        <pt x="480" y="129" on="0"/>
        <pt x="483" y="227" on="0"/>
        <pt x="483" y="255" on="1"/>
        <pt x="483" y="267" on="0"/>
        <pt x="483" y="273" on="1"/>
        <pt x="177" y="270" on="0"/>
        <pt x="175" y="270" on="1"/>
        <pt x="129" y="199" on="0"/>
        <pt x="80" y="113" on="0"/>
        <pt x="36" y="-22" on="0"/>
        <pt x="36" y="-88" on="1"/>
        <pt x="36" y="-140" on="0"/>
        <pt x="60" y="-166" on="1"/>
        <pt x="69" y="-175" on="0"/>
        <pt x="69" y="-180" on="1"/>
        <pt x="69" y="-186" on="0"/>
        <pt x="51" y="-186" on="1"/>
        <pt x="24" y="-186" on="0"/>
        <pt x="-1" y="-109" on="0"/>
        <pt x="-1" y="-75" on="1"/>
        <pt x="-1" y="9" on="0"/>
        <pt x="76" y="176" on="0"/>
        <pt x="141" y="270" on="1"/>
        <pt x="137" y="270" on="0"/>
        <pt x="126" y="270" on="0"/>
        <pt x="116" y="270" on="0"/>
        <pt x="103" y="270" on="0"/>
        <pt x="92" y="269" on="0"/>
        <pt x="80" y="269" on="0"/>
        <pt x="74" y="269" on="1"/>
        <pt x="52" y="269" on="0"/>
        <pt x="26" y="271" on="0"/>
        <pt x="26" y="274" on="1"/>
        <pt x="26" y="283" on="0"/>
        <pt x="42" y="295" on="0"/>
        <pt x="71" y="300" on="0"/>
        <pt x="100" y="303" on="0"/>
        <pt x="117" y="303" on="1"/>
        <pt x="128" y="303" on="0"/>
        <pt x="150" y="302" on="0"/>
        <pt x="165" y="301" on="0"/>
        <pt x="165" y="301" on="1"/>
        <pt x="274" y="448" on="0"/>
        <pt x="431" y="599" on="1"/>
        <pt x="421" y="642" on="0"/>
        <pt x="421" y="654" on="1"/>
        <pt x="421" y="674" on="0"/>
        <pt x="445" y="674" on="1"/>
        <pt x="475" y="674" on="0"/>
        <pt x="480" y="645" on="1"/>
        <pt x="498" y="663" on="0"/>
        <pt x="504" y="663" on="1"/>
        <pt x="514" y="663" on="0"/>
        <pt x="514" y="644" on="1"/>
        <pt x="514" y="641" on="0"/>
        <pt x="513" y="632" on="0"/>
        <pt x="513" y="630" on="1"/>
        <pt x="510" y="627" on="0"/>
        <pt x="494" y="613" on="0"/>
        <pt x="490" y="608" on="1"/>
        <pt x="517" y="483" on="0"/>
        <pt x="517" y="301" on="1"/>
        <pt x="518" y="301" on="0"/>
        <pt x="523" y="301" on="0"/>
        <pt x="524" y="301" on="1"/>
        <pt x="601" y="301" on="0"/>
        <pt x="608" y="287" on="1"/>
        <pt x="606" y="282" on="0"/>
        <pt x="535" y="275" on="0"/>
        <pt x="517" y="275" on="1"/>
        <pt x="517" y="42" on="1"/>
        <pt x="586" y="79" on="0"/>
        <pt x="600" y="79" on="1"/>
        <pt x="609" y="79" on="0"/>
      </contour>
      <contour>
        <pt x="483" y="300" on="1"/>
        <pt x="483" y="343" on="0"/>
        <pt x="457" y="522" on="0"/>
        <pt x="441" y="563" on="1"/>
        <pt x="262" y="399" on="0"/>
        <pt x="197" y="300" on="1"/>
      </contour>
      <contour>
        <pt x="566" y="727" on="1"/>
        <pt x="553" y="738" on="0"/>
        <pt x="498" y="798" on="0"/>
        <pt x="488" y="813" on="1"/>
        <pt x="475" y="801" on="0"/>
        <pt x="389" y="732" on="0"/>
        <pt x="380" y="727" on="1"/>
        <pt x="377" y="725" on="0"/>
        <pt x="375" y="725" on="1"/>
        <pt x="372" y="725" on="0"/>
        <pt x="372" y="728" on="1"/>
        <pt x="372" y="729" on="0"/>
        <pt x="374" y="734" on="0"/>
        <pt x="376" y="737" on="1"/>
        <pt x="386" y="749" on="0"/>
        <pt x="492" y="848" on="0"/>
        <pt x="501" y="850" on="1"/>
        <pt x="506" y="848" on="0"/>
        <pt x="564" y="757" on="0"/>
        <pt x="573" y="740" on="1"/>
        <pt x="574" y="737" on="0"/>
        <pt x="574" y="733" on="1"/>
        <pt x="574" y="731" on="0"/>
        <pt x="573" y="728" on="0"/>
        <pt x="571" y="726" on="0"/>
        <pt x="569" y="726" on="1"/>
        <pt x="569" y="726" on="0"/>
        <pt x="567" y="726" on="0"/>
      </contour>
    </TTGlyph>
    <TTGlyph name="Adieresis" xMin="-1" yMin="-186" xMax="609" yMax="834">
      <contour>
        <pt x="609" y="72" on="1"/>
        <pt x="609" y="66" on="0"/>
        <pt x="593" y="56" on="1"/>
        <pt x="512" y="17" on="0"/>
        <pt x="449" y="-64" on="1"/>
        <pt x="445" y="-70" on="0"/>
        <pt x="440" y="-70" on="1"/>
        <pt x="430" y="-70" on="0"/>
        <pt x="430" y="-56" on="1"/>
        <pt x="430" y="-45" on="0"/>
        <pt x="461" y="-5" on="0"/>
        <pt x="473" y="4" on="1"/>
        <pt x="475" y="33" on="0"/>
        <pt x="480" y="129" on="0"/>
        <pt x="483" y="227" on="0"/>
        <pt x="483" y="255" on="1"/>
        <pt x="483" y="267" on="0"/>
        <pt x="483" y="273" on="1"/>
        <pt x="177" y="270" on="0"/>
        <pt x="175" y="270" on="1"/>
        <pt x="129" y="199" on="0"/>
        <pt x="80" y="113" on="0"/>
        <pt x="36" y="-22" on="0"/>
        <pt x="36" y="-88" on="1"/>
        <pt x="36" y="-140" on="0"/>
        <pt x="60" y="-166" on="1"/>
        <pt x="69" y="-175" on="0"/>
        <pt x="69" y="-180" on="1"/>
        <pt x="69" y="-186" on="0"/>
        <pt x="51" y="-186" on="1"/>
        <pt x="24" y="-186" on="0"/>
        <pt x="-1" y="-109" on="0"/>
        <pt x="-1" y="-75" on="1"/>
        <pt x="-1" y="9" on="0"/>
        <pt x="76" y="176" on="0"/>
        <pt x="141" y="270" on="1"/>
        <pt x="137" y="270" on="0"/>
        <pt x="126" y="270" on="0"/>
        <pt x="116" y="270" on="0"/>
        <pt x="103" y="270" on="0"/>
        <pt x="92" y="269" on="0"/>
        <pt x="80" y="269" on="0"/>
        <pt x="74" y="269" on="1"/>
        <pt x="52" y="269" on="0"/>
        <pt x="26" y="271" on="0"/>
        <pt x="26" y="274" on="1"/>
        <pt x="26" y="283" on="0"/>
        <pt x="42" y="295" on="0"/>
        <pt x="71" y="300" on="0"/>
        <pt x="100" y="303" on="0"/>
        <pt x="117" y="303" on="1"/>
        <pt x="128" y="303" on="0"/>
        <pt x="150" y="302" on="0"/>
        <pt x="165" y="301" on="0"/>
        <pt x="165" y="301" on="1"/>
        <pt x="274" y="448" on="0"/>
        <pt x="431" y="599" on="1"/>
        <pt x="421" y="642" on="0"/>
        <pt x="421" y="654" on="1"/>
        <pt x="421" y="674" on="0"/>
        <pt x="445" y="674" on="1"/>
        <pt x="475" y="674" on="0"/>
        <pt x="480" y="645" on="1"/>
        <pt x="498" y="663" on="0"/>
        <pt x="504" y="663" on="1"/>
        <pt x="514" y="663" on="0"/>
        <pt x="514" y="644" on="1"/>
        <pt x="514" y="641" on="0"/>
        <pt x="513" y="632" on="0"/>
        <pt x="513" y="630" on="1"/>
        <pt x="510" y="627" on="0"/>
        <pt x="494" y="613" on="0"/>
        <pt x="490" y="608" on="1"/>
        <pt x="517" y="483" on="0"/>
        <pt x="517" y="301" on="1"/>
        <pt x="518" y="301" on="0"/>
        <pt x="523" y="301" on="0"/>
        <pt x="524" y="301" on="1"/>
        <pt x="601" y="301" on="0"/>
        <pt x="608" y="287" on="1"/>
        <pt x="606" y="282" on="0"/>
        <pt x="535" y="275" on="0"/>
        <pt x="517" y="275" on="1"/>
        <pt x="517" y="42" on="1"/>
        <pt x="586" y="79" on="0"/>
        <pt x="600" y="79" on="1"/>
        <pt x="609" y="79" on="0"/>
      </contour>
      <contour>
        <pt x="483" y="300" on="1"/>
        <pt x="483" y="343" on="0"/>
        <pt x="457" y="522" on="0"/>
        <pt x="441" y="563" on="1"/>
        <pt x="262" y="399" on="0"/>
        <pt x="197" y="300" on="1"/>
      </contour>
      <contour>
        <pt x="591" y="765" on="1"/>
        <pt x="591" y="754" on="0"/>
        <pt x="569" y="740" on="0"/>
        <pt x="557" y="740" on="1"/>
        <pt x="538" y="740" on="0"/>
        <pt x="538" y="772" on="1"/>
        <pt x="538" y="774" on="0"/>
        <pt x="538" y="779" on="0"/>
        <pt x="538" y="781" on="1"/>
        <pt x="538" y="790" on="0"/>
        <pt x="553" y="810" on="0"/>
        <pt x="572" y="824" on="0"/>
        <pt x="592" y="833" on="0"/>
        <pt x="599" y="833" on="1"/>
        <pt x="604" y="833" on="0"/>
        <pt x="605" y="830" on="1"/>
        <pt x="605" y="818" on="0"/>
        <pt x="591" y="767" on="0"/>
      </contour>
      <contour>
        <pt x="439" y="765" on="1"/>
        <pt x="439" y="754" on="0"/>
        <pt x="417" y="740" on="0"/>
        <pt x="405" y="740" on="1"/>
        <pt x="386" y="740" on="0"/>
        <pt x="386" y="772" on="1"/>
        <pt x="386" y="776" on="0"/>
        <pt x="386" y="781" on="1"/>
        <pt x="387" y="799" on="0"/>
        <pt x="432" y="833" on="0"/>
        <pt x="447" y="833" on="1"/>
        <pt x="452" y="833" on="0"/>
        <pt x="453" y="830" on="1"/>
        <pt x="453" y="818" on="0"/>
        <pt x="439" y="767" on="0"/>
      </contour>
    </TTGlyph>
    <TTGlyph name="Agrave" xMin="-1" yMin="-186" xMax="609" yMax="837">
      <contour>
        <pt x="609" y="72" on="1"/>
        <pt x="609" y="66" on="0"/>
        <pt x="593" y="56" on="1"/>
        <pt x="512" y="17" on="0"/>
        <pt x="449" y="-64" on="1"/>
        <pt x="445" y="-70" on="0"/>
        <pt x="440" y="-70" on="1"/>
        <pt x="430" y="-70" on="0"/>
        <pt x="430" y="-56" on="1"/>
        <pt x="430" y="-45" on="0"/>
        <pt x="461" y="-5" on="0"/>
        <pt x="473" y="4" on="1"/>
        <pt x="475" y="33" on="0"/>
        <pt x="480" y="129" on="0"/>
        <pt x="483" y="227" on="0"/>
        <pt x="483" y="255" on="1"/>
        <pt x="483" y="267" on="0"/>
        <pt x="483" y="273" on="1"/>
        <pt x="177" y="270" on="0"/>
        <pt x="175" y="270" on="1"/>
        <pt x="129" y="199" on="0"/>
        <pt x="80" y="113" on="0"/>
        <pt x="36" y="-22" on="0"/>
        <pt x="36" y="-88" on="1"/>
        <pt x="36" y="-140" on="0"/>
        <pt x="60" y="-166" on="1"/>
        <pt x="69" y="-175" on="0"/>
        <pt x="69" y="-180" on="1"/>
        <pt x="69" y="-186" on="0"/>
        <pt x="51" y="-186" on="1"/>
        <pt x="24" y="-186" on="0"/>
        <pt x="-1" y="-109" on="0"/>
        <pt x="-1" y="-75" on="1"/>
        <pt x="-1" y="9" on="0"/>
        <pt x="76" y="176" on="0"/>
        <pt x="141" y="270" on="1"/>
        <pt x="137" y="270" on="0"/>
        <pt x="126" y="270" on="0"/>
        <pt x="116" y="270" on="0"/>
        <pt x="103" y="270" on="0"/>
        <pt x="92" y="269" on="0"/>
        <pt x="80" y="269" on="0"/>
        <pt x="74" y="269" on="1"/>
        <pt x="52" y="269" on="0"/>
        <pt x="26" y="271" on="0"/>
        <pt x="26" y="274" on="1"/>
        <pt x="26" y="283" on="0"/>
        <pt x="42" y="295" on="0"/>
        <pt x="71" y="300" on="0"/>
        <pt x="100" y="303" on="0"/>
        <pt x="117" y="303" on="1"/>
        <pt x="128" y="303" on="0"/>
        <pt x="150" y="302" on="0"/>
        <pt x="165" y="301" on="0"/>
        <pt x="165" y="301" on="1"/>
        <pt x="274" y="448" on="0"/>
        <pt x="431" y="599" on="1"/>
        <pt x="421" y="642" on="0"/>
        <pt x="421" y="654" on="1"/>
        <pt x="421" y="674" on="0"/>
        <pt x="445" y="674" on="1"/>
        <pt x="475" y="674" on="0"/>
        <pt x="480" y="645" on="1"/>
        <pt x="498" y="663" on="0"/>
        <pt x="504" y="663" on="1"/>
        <pt x="514" y="663" on="0"/>
        <pt x="514" y="644" on="1"/>
        <pt x="514" y="641" on="0"/>
        <pt x="513" y="632" on="0"/>
        <pt x="513" y="630" on="1"/>
        <pt x="510" y="627" on="0"/>
        <pt x="494" y="613" on="0"/>
        <pt x="490" y="608" on="1"/>
        <pt x="517" y="483" on="0"/>
        <pt x="517" y="301" on="1"/>
        <pt x="518" y="301" on="0"/>
        <pt x="523" y="301" on="0"/>
        <pt x="524" y="301" on="1"/>
        <pt x="601" y="301" on="0"/>
        <pt x="608" y="287" on="1"/>
        <pt x="606" y="282" on="0"/>
        <pt x="535" y="275" on="0"/>
        <pt x="517" y="275" on="1"/>
        <pt x="517" y="42" on="1"/>
        <pt x="586" y="79" on="0"/>
        <pt x="600" y="79" on="1"/>
        <pt x="609" y="79" on="0"/>
      </contour>
      <contour>
        <pt x="483" y="300" on="1"/>
        <pt x="483" y="343" on="0"/>
        <pt x="457" y="522" on="0"/>
        <pt x="441" y="563" on="1"/>
        <pt x="262" y="399" on="0"/>
        <pt x="197" y="300" on="1"/>
      </contour>
      <contour>
        <pt x="547" y="718" on="1"/>
        <pt x="549" y="716" on="0"/>
        <pt x="549" y="714" on="1"/>
        <pt x="549" y="713" on="0"/>
        <pt x="547" y="712" on="0"/>
        <pt x="545" y="712" on="1"/>
        <pt x="531" y="712" on="0"/>
        <pt x="424" y="765" on="0"/>
        <pt x="369" y="795" on="1"/>
        <pt x="360" y="800" on="0"/>
        <pt x="360" y="810" on="1"/>
        <pt x="360" y="814" on="0"/>
        <pt x="364" y="824" on="0"/>
        <pt x="371" y="832" on="0"/>
        <pt x="380" y="837" on="0"/>
        <pt x="389" y="837" on="0"/>
        <pt x="392" y="834" on="1"/>
        <pt x="412" y="818" on="0"/>
        <pt x="486" y="771" on="0"/>
        <pt x="538" y="733" on="0"/>
      </contour>
    </TTGlyph>
    <TTGlyph name="Aring" xMin="-1" yMin="-186" xMax="609" yMax="788">
      <contour>
        <pt x="570" y="739" on="1"/>
        <pt x="570" y="713" on="0"/>
        <pt x="537" y="665" on="0"/>
        <pt x="513" y="653" on="1"/>
        <pt x="514" y="650" on="0"/>
        <pt x="514" y="644" on="1"/>
        <pt x="514" y="641" on="0"/>
        <pt x="513" y="632" on="0"/>
        <pt x="513" y="630" on="1"/>
        <pt x="510" y="627" on="0"/>
        <pt x="494" y="613" on="0"/>
        <pt x="490" y="608" on="1"/>
        <pt x="517" y="483" on="0"/>
        <pt x="517" y="301" on="1"/>
        <pt x="518" y="301" on="0"/>
        <pt x="523" y="301" on="0"/>
        <pt x="524" y="301" on="1"/>
        <pt x="601" y="301" on="0"/>
        <pt x="608" y="287" on="1"/>
        <pt x="606" y="282" on="0"/>
        <pt x="535" y="275" on="0"/>
        <pt x="517" y="275" on="1"/>
        <pt x="517" y="42" on="1"/>
        <pt x="586" y="79" on="0"/>
        <pt x="600" y="79" on="1"/>
        <pt x="609" y="79" on="0"/>
        <pt x="609" y="72" on="1"/>
        <pt x="609" y="66" on="0"/>
        <pt x="593" y="56" on="1"/>
        <pt x="512" y="17" on="0"/>
        <pt x="449" y="-64" on="1"/>
        <pt x="445" y="-70" on="0"/>
        <pt x="440" y="-70" on="1"/>
        <pt x="430" y="-70" on="0"/>
        <pt x="430" y="-56" on="1"/>
        <pt x="430" y="-45" on="0"/>
        <pt x="461" y="-5" on="0"/>
        <pt x="473" y="4" on="1"/>
        <pt x="475" y="33" on="0"/>
        <pt x="480" y="129" on="0"/>
        <pt x="483" y="227" on="0"/>
        <pt x="483" y="255" on="1"/>
        <pt x="483" y="267" on="0"/>
        <pt x="483" y="273" on="1"/>
        <pt x="177" y="270" on="0"/>
        <pt x="175" y="270" on="1"/>
        <pt x="129" y="199" on="0"/>
        <pt x="80" y="113" on="0"/>
        <pt x="36" y="-22" on="0"/>
        <pt x="36" y="-88" on="1"/>
        <pt x="36" y="-140" on="0"/>
        <pt x="60" y="-166" on="1"/>
        <pt x="69" y="-175" on="0"/>
        <pt x="69" y="-180" on="1"/>
        <pt x="69" y="-186" on="0"/>
        <pt x="51" y="-186" on="1"/>
        <pt x="24" y="-186" on="0"/>
        <pt x="-1" y="-109" on="0"/>
        <pt x="-1" y="-75" on="1"/>
        <pt x="-1" y="9" on="0"/>
        <pt x="76" y="176" on="0"/>
        <pt x="141" y="270" on="1"/>
        <pt x="137" y="270" on="0"/>
        <pt x="126" y="270" on="0"/>
        <pt x="116" y="270" on="0"/>
        <pt x="103" y="270" on="0"/>
        <pt x="92" y="269" on="0"/>
        <pt x="80" y="269" on="0"/>
        <pt x="74" y="269" on="1"/>
        <pt x="52" y="269" on="0"/>
        <pt x="26" y="271" on="0"/>
        <pt x="26" y="274" on="1"/>
        <pt x="26" y="283" on="0"/>
        <pt x="42" y="295" on="0"/>
        <pt x="71" y="300" on="0"/>
        <pt x="100" y="303" on="0"/>
        <pt x="117" y="303" on="1"/>
        <pt x="128" y="303" on="0"/>
        <pt x="150" y="302" on="0"/>
        <pt x="165" y="301" on="0"/>
        <pt x="165" y="301" on="1"/>
        <pt x="274" y="448" on="0"/>
        <pt x="431" y="599" on="1"/>
        <pt x="421" y="642" on="0"/>
        <pt x="421" y="654" on="1"/>
        <pt x="421" y="670" on="0"/>
        <pt x="438" y="673" on="1"/>
        <pt x="437" y="676" on="0"/>
        <pt x="437" y="683" on="1"/>
        <pt x="437" y="703" on="0"/>
        <pt x="459" y="753" on="0"/>
        <pt x="476" y="759" on="1"/>
        <pt x="490" y="788" on="0"/>
        <pt x="527" y="788" on="1"/>
        <pt x="546" y="788" on="0"/>
        <pt x="570" y="759" on="0"/>
      </contour>
      <contour>
        <pt x="483" y="300" on="1"/>
        <pt x="483" y="343" on="0"/>
        <pt x="457" y="522" on="0"/>
        <pt x="441" y="563" on="1"/>
        <pt x="262" y="399" on="0"/>
        <pt x="197" y="300" on="1"/>
      </contour>
      <contour>
        <pt x="524" y="773" on="1"/>
        <pt x="509" y="773" on="0"/>
        <pt x="478" y="746" on="0"/>
        <pt x="460" y="709" on="0"/>
        <pt x="460" y="692" on="1"/>
        <pt x="460" y="664" on="0"/>
        <pt x="489" y="664" on="1"/>
        <pt x="514" y="664" on="0"/>
        <pt x="550" y="710" on="0"/>
        <pt x="550" y="739" on="1"/>
        <pt x="550" y="773" on="0"/>
      </contour>
    </TTGlyph>
    <TTGlyph name="Atilde" xMin="-1" yMin="-186" xMax="609" yMax="796">
      <contour>
        <pt x="609" y="72" on="1"/>
        <pt x="609" y="66" on="0"/>
        <pt x="593" y="56" on="1"/>
        <pt x="512" y="17" on="0"/>
        <pt x="449" y="-64" on="1"/>
        <pt x="445" y="-70" on="0"/>
        <pt x="440" y="-70" on="1"/>
        <pt x="430" y="-70" on="0"/>
        <pt x="430" y="-56" on="1"/>
        <pt x="430" y="-45" on="0"/>
        <pt x="461" y="-5" on="0"/>
        <pt x="473" y="4" on="1"/>
        <pt x="475" y="33" on="0"/>
        <pt x="480" y="129" on="0"/>
        <pt x="483" y="227" on="0"/>
        <pt x="483" y="255" on="1"/>
        <pt x="483" y="267" on="0"/>
        <pt x="483" y="273" on="1"/>
        <pt x="177" y="270" on="0"/>
        <pt x="175" y="270" on="1"/>
        <pt x="129" y="199" on="0"/>
        <pt x="80" y="113" on="0"/>
        <pt x="36" y="-22" on="0"/>
        <pt x="36" y="-88" on="1"/>
        <pt x="36" y="-140" on="0"/>
        <pt x="60" y="-166" on="1"/>
        <pt x="69" y="-175" on="0"/>
        <pt x="69" y="-180" on="1"/>
        <pt x="69" y="-186" on="0"/>
        <pt x="51" y="-186" on="1"/>
        <pt x="24" y="-186" on="0"/>
        <pt x="-1" y="-109" on="0"/>
        <pt x="-1" y="-75" on="1"/>
        <pt x="-1" y="9" on="0"/>
        <pt x="76" y="176" on="0"/>
        <pt x="141" y="270" on="1"/>
        <pt x="137" y="270" on="0"/>
        <pt x="126" y="270" on="0"/>
        <pt x="116" y="270" on="0"/>
        <pt x="103" y="270" on="0"/>
        <pt x="92" y="269" on="0"/>
        <pt x="80" y="269" on="0"/>
        <pt x="74" y="269" on="1"/>
        <pt x="52" y="269" on="0"/>
        <pt x="26" y="271" on="0"/>
        <pt x="26" y="274" on="1"/>
        <pt x="26" y="283" on="0"/>
        <pt x="42" y="295" on="0"/>
        <pt x="71" y="300" on="0"/>
        <pt x="100" y="303" on="0"/>
        <pt x="117" y="303" on="1"/>
        <pt x="128" y="303" on="0"/>
        <pt x="150" y="302" on="0"/>
        <pt x="165" y="301" on="0"/>
        <pt x="165" y="301" on="1"/>
        <pt x="274" y="448" on="0"/>
        <pt x="431" y="599" on="1"/>
        <pt x="421" y="642" on="0"/>
        <pt x="421" y="654" on="1"/>
        <pt x="421" y="674" on="0"/>
        <pt x="445" y="674" on="1"/>
        <pt x="475" y="674" on="0"/>
        <pt x="480" y="645" on="1"/>
        <pt x="498" y="663" on="0"/>
        <pt x="504" y="663" on="1"/>
        <pt x="514" y="663" on="0"/>
        <pt x="514" y="644" on="1"/>
        <pt x="514" y="641" on="0"/>
        <pt x="513" y="632" on="0"/>
        <pt x="513" y="630" on="1"/>
        <pt x="510" y="627" on="0"/>
        <pt x="494" y="613" on="0"/>
        <pt x="490" y="608" on="1"/>
        <pt x="517" y="483" on="0"/>
        <pt x="517" y="301" on="1"/>
        <pt x="518" y="301" on="0"/>
        <pt x="523" y="301" on="0"/>
        <pt x="524" y="301" on="1"/>
        <pt x="601" y="301" on="0"/>
        <pt x="608" y="287" on="1"/>
        <pt x="606" y="282" on="0"/>
        <pt x="535" y="275" on="0"/>
        <pt x="517" y="275" on="1"/>
        <pt x="517" y="42" on="1"/>
        <pt x="586" y="79" on="0"/>
        <pt x="600" y="79" on="1"/>
        <pt x="609" y="79" on="0"/>
      </contour>
      <contour>
        <pt x="483" y="300" on="1"/>
        <pt x="483" y="343" on="0"/>
        <pt x="457" y="522" on="0"/>
        <pt x="441" y="563" on="1"/>
        <pt x="262" y="399" on="0"/>
        <pt x="197" y="300" on="1"/>
      </contour>
      <contour>
        <pt x="376" y="743" on="1"/>
        <pt x="374" y="743" on="0"/>
        <pt x="374" y="745" on="1"/>
        <pt x="374" y="752" on="0"/>
        <pt x="407" y="781" on="0"/>
        <pt x="417" y="786" on="1"/>
        <pt x="433" y="796" on="0"/>
        <pt x="453" y="796" on="1"/>
        <pt x="470" y="796" on="0"/>
        <pt x="532" y="775" on="0"/>
        <pt x="548" y="775" on="1"/>
        <pt x="572" y="775" on="0"/>
        <pt x="590" y="796" on="1"/>
        <pt x="596" y="796" on="0"/>
        <pt x="596" y="792" on="1"/>
        <pt x="596" y="785" on="0"/>
        <pt x="567" y="757" on="0"/>
        <pt x="556" y="750" on="1"/>
        <pt x="543" y="742" on="0"/>
        <pt x="529" y="742" on="1"/>
        <pt x="511" y="742" on="0"/>
        <pt x="447" y="769" on="0"/>
        <pt x="430" y="769" on="1"/>
        <pt x="413" y="769" on="0"/>
        <pt x="381" y="743" on="0"/>
      </contour>
    </TTGlyph>
    <TTGlyph name="B" xMin="2" yMin="-80" xMax="850" yMax="692">
      <contour>
        <pt x="315" y="-61" on="1"/>
        <pt x="315" y="-79" on="0"/>
        <pt x="308" y="-79" on="1"/>
        <pt x="301" y="-79" on="0"/>
        <pt x="290" y="-55" on="0"/>
        <pt x="287" y="-33" on="0"/>
        <pt x="287" y="-26" on="1"/>
        <pt x="263" y="-15" on="0"/>
        <pt x="209" y="21" on="0"/>
        <pt x="209" y="37" on="1"/>
        <pt x="209" y="43" on="0"/>
        <pt x="214" y="43" on="1"/>
        <pt x="217" y="43" on="0"/>
        <pt x="247" y="24" on="0"/>
        <pt x="282" y="1" on="0"/>
        <pt x="287" y="-1" on="1"/>
        <pt x="287" y="109" on="0"/>
        <pt x="410" y="477" on="0"/>
        <pt x="476" y="612" on="1"/>
        <pt x="355" y="641" on="0"/>
        <pt x="270" y="641" on="1"/>
        <pt x="228" y="641" on="0"/>
        <pt x="152" y="626" on="0"/>
        <pt x="82" y="593" on="0"/>
        <pt x="40" y="527" on="0"/>
        <pt x="40" y="482" on="1"/>
        <pt x="40" y="380" on="0"/>
        <pt x="137" y="290" on="1"/>
        <pt x="141" y="310" on="0"/>
        <pt x="147" y="310" on="1"/>
        <pt x="154" y="310" on="0"/>
        <pt x="175" y="267" on="0"/>
        <pt x="175" y="259" on="1"/>
        <pt x="175" y="246" on="0"/>
        <pt x="157" y="246" on="1"/>
        <pt x="120" y="246" on="0"/>
        <pt x="45" y="331" on="0"/>
        <pt x="2" y="437" on="0"/>
        <pt x="2" y="474" on="1"/>
        <pt x="2" y="529" on="0"/>
        <pt x="51" y="608" on="0"/>
        <pt x="135" y="648" on="0"/>
        <pt x="225" y="666" on="0"/>
        <pt x="276" y="666" on="1"/>
        <pt x="368" y="666" on="0"/>
        <pt x="489" y="640" on="1"/>
        <pt x="503" y="673" on="0"/>
        <pt x="519" y="687" on="1"/>
        <pt x="520" y="687" on="0"/>
        <pt x="521" y="687" on="1"/>
        <pt x="525" y="687" on="0"/>
        <pt x="535" y="689" on="0"/>
        <pt x="547" y="692" on="0"/>
        <pt x="551" y="692" on="1"/>
        <pt x="579" y="692" on="0"/>
        <pt x="579" y="680" on="1"/>
        <pt x="579" y="679" on="0"/>
        <pt x="578" y="677" on="0"/>
        <pt x="578" y="676" on="1"/>
        <pt x="567" y="661" on="0"/>
        <pt x="549" y="627" on="1"/>
        <pt x="586" y="617" on="0"/>
        <pt x="662" y="588" on="0"/>
        <pt x="748" y="542" on="0"/>
        <pt x="801" y="476" on="0"/>
        <pt x="801" y="438" on="1"/>
        <pt x="801" y="403" on="0"/>
        <pt x="756" y="344" on="0"/>
        <pt x="681" y="303" on="0"/>
        <pt x="616" y="277" on="0"/>
        <pt x="581" y="268" on="1"/>
        <pt x="617" y="266" on="0"/>
        <pt x="701" y="248" on="0"/>
        <pt x="791" y="214" on="0"/>
        <pt x="850" y="152" on="0"/>
        <pt x="850" y="113" on="1"/>
        <pt x="850" y="75" on="0"/>
        <pt x="815" y="38" on="1"/>
        <pt x="714" y="-68" on="0"/>
        <pt x="528" y="-68" on="1"/>
        <pt x="405" y="-68" on="0"/>
        <pt x="314" y="-35" on="1"/>
        <pt x="314" y="-39" on="0"/>
        <pt x="315" y="-56" on="0"/>
      </contour>
      <contour>
        <pt x="754" y="436" on="1"/>
        <pt x="754" y="467" on="0"/>
        <pt x="706" y="524" on="0"/>
        <pt x="629" y="564" on="0"/>
        <pt x="565" y="590" on="0"/>
        <pt x="534" y="599" on="1"/>
        <pt x="533" y="599" on="1"/>
        <pt x="452" y="458" on="0"/>
        <pt x="389" y="265" on="1"/>
        <pt x="405" y="270" on="0"/>
        <pt x="462" y="275" on="0"/>
        <pt x="471" y="277" on="1"/>
        <pt x="507" y="283" on="0"/>
        <pt x="586" y="304" on="0"/>
        <pt x="689" y="342" on="0"/>
        <pt x="754" y="401" on="0"/>
      </contour>
      <contour>
        <pt x="803" y="64" on="0"/>
        <pt x="803" y="144" on="0"/>
        <pt x="738" y="203" on="0"/>
        <pt x="639" y="231" on="0"/>
        <pt x="551" y="244" on="0"/>
        <pt x="515" y="244" on="1"/>
        <pt x="504" y="244" on="0"/>
        <pt x="442" y="237" on="0"/>
        <pt x="385" y="231" on="0"/>
        <pt x="379" y="231" on="1"/>
        <pt x="378" y="231" on="0"/>
        <pt x="378" y="231" on="1"/>
        <pt x="327" y="73" on="0"/>
        <pt x="316" y="-11" on="1"/>
        <pt x="402" y="-45" on="0"/>
        <pt x="529" y="-45" on="1"/>
        <pt x="695" y="-45" on="0"/>
        <pt x="761" y="22" on="1"/>
      </contour>
    </TTGlyph>
    <TTGlyph name="C" xMin="26" yMin="-75" xMax="744" yMax="683">
      <contour>
        <pt x="740" y="139" on="1"/>
        <pt x="744" y="139" on="0"/>
        <pt x="744" y="121" on="0"/>
        <pt x="735" y="95" on="0"/>
        <pt x="723" y="75" on="0"/>
        <pt x="718" y="70" on="1"/>
        <pt x="656" y="7" on="0"/>
        <pt x="446" y="-75" on="0"/>
        <pt x="350" y="-75" on="1"/>
        <pt x="192" y="-75" on="0"/>
        <pt x="26" y="77" on="0"/>
        <pt x="26" y="210" on="1"/>
        <pt x="26" y="221" on="0"/>
        <pt x="27" y="233" on="1"/>
        <pt x="33" y="345" on="0"/>
        <pt x="188" y="552" on="0"/>
        <pt x="414" y="673" on="0"/>
        <pt x="636" y="673" on="0"/>
        <pt x="674" y="623" on="1"/>
        <pt x="683" y="650" on="0"/>
        <pt x="683" y="662" on="1"/>
        <pt x="683" y="664" on="0"/>
        <pt x="679" y="676" on="0"/>
        <pt x="681" y="683" on="0"/>
        <pt x="688" y="683" on="1"/>
        <pt x="696" y="683" on="0"/>
        <pt x="712" y="675" on="0"/>
        <pt x="712" y="669" on="1"/>
        <pt x="712" y="657" on="0"/>
        <pt x="705" y="632" on="0"/>
        <pt x="694" y="599" on="0"/>
        <pt x="692" y="592" on="1"/>
        <pt x="701" y="568" on="0"/>
        <pt x="701" y="537" on="1"/>
        <pt x="701" y="469" on="0"/>
        <pt x="671" y="469" on="1"/>
        <pt x="654" y="469" on="0"/>
        <pt x="640" y="483" on="0"/>
        <pt x="640" y="498" on="1"/>
        <pt x="640" y="507" on="0"/>
        <pt x="642" y="524" on="0"/>
        <pt x="647" y="542" on="0"/>
        <pt x="651" y="555" on="0"/>
        <pt x="658" y="576" on="0"/>
        <pt x="660" y="581" on="1"/>
        <pt x="643" y="609" on="0"/>
        <pt x="571" y="645" on="0"/>
        <pt x="525" y="645" on="1"/>
        <pt x="419" y="645" on="0"/>
        <pt x="216" y="530" on="0"/>
        <pt x="84" y="336" on="0"/>
        <pt x="78" y="229" on="1"/>
        <pt x="78" y="221" on="0"/>
        <pt x="78" y="213" on="1"/>
        <pt x="78" y="96" on="0"/>
        <pt x="241" y="-49" on="0"/>
        <pt x="362" y="-49" on="1"/>
        <pt x="415" y="-49" on="0"/>
        <pt x="511" y="-29" on="0"/>
        <pt x="574" y="-3" on="0"/>
        <pt x="638" y="40" on="0"/>
        <pt x="668" y="68" on="0"/>
        <pt x="710" y="110" on="0"/>
        <pt x="713" y="113" on="1"/>
        <pt x="716" y="118" on="0"/>
        <pt x="736" y="139" on="0"/>
      </contour>
    </TTGlyph>
    <TTGlyph name="Ccedilla" xMin="26" yMin="-339" xMax="744" yMax="683">
      <contour>
        <pt x="740" y="139" on="1"/>
        <pt x="744" y="139" on="0"/>
        <pt x="744" y="121" on="0"/>
        <pt x="735" y="95" on="0"/>
        <pt x="723" y="75" on="0"/>
        <pt x="718" y="70" on="1"/>
        <pt x="656" y="7" on="0"/>
        <pt x="446" y="-75" on="0"/>
        <pt x="350" y="-75" on="1"/>
        <pt x="335" y="-75" on="0"/>
        <pt x="328" y="-74" on="1"/>
        <pt x="306" y="-93" on="0"/>
        <pt x="306" y="-127" on="1"/>
        <pt x="306" y="-139" on="0"/>
        <pt x="364" y="-212" on="0"/>
        <pt x="364" y="-240" on="1"/>
        <pt x="364" y="-273" on="0"/>
        <pt x="312" y="-320" on="0"/>
        <pt x="247" y="-339" on="0"/>
        <pt x="215" y="-339" on="1"/>
        <pt x="206" y="-339" on="0"/>
        <pt x="206" y="-328" on="1"/>
        <pt x="206" y="-323" on="0"/>
        <pt x="215" y="-320" on="1"/>
        <pt x="228" y="-316" on="0"/>
        <pt x="275" y="-312" on="0"/>
        <pt x="301" y="-307" on="0"/>
        <pt x="322" y="-278" on="0"/>
        <pt x="322" y="-251" on="1"/>
        <pt x="322" y="-237" on="0"/>
        <pt x="270" y="-164" on="0"/>
        <pt x="270" y="-144" on="1"/>
        <pt x="270" y="-97" on="0"/>
        <pt x="298" y="-72" on="1"/>
        <pt x="165" y="-60" on="0"/>
        <pt x="26" y="88" on="0"/>
        <pt x="26" y="210" on="1"/>
        <pt x="26" y="221" on="0"/>
        <pt x="27" y="233" on="1"/>
        <pt x="33" y="345" on="0"/>
        <pt x="188" y="552" on="0"/>
        <pt x="414" y="673" on="0"/>
        <pt x="636" y="673" on="0"/>
        <pt x="674" y="623" on="1"/>
        <pt x="683" y="650" on="0"/>
        <pt x="683" y="662" on="1"/>
        <pt x="683" y="664" on="0"/>
        <pt x="679" y="676" on="0"/>
        <pt x="681" y="683" on="0"/>
        <pt x="688" y="683" on="1"/>
        <pt x="696" y="683" on="0"/>
        <pt x="712" y="675" on="0"/>
        <pt x="712" y="669" on="1"/>
        <pt x="712" y="657" on="0"/>
        <pt x="705" y="632" on="0"/>
        <pt x="694" y="599" on="0"/>
        <pt x="692" y="592" on="1"/>
        <pt x="701" y="568" on="0"/>
        <pt x="701" y="537" on="1"/>
        <pt x="701" y="469" on="0"/>
        <pt x="671" y="469" on="1"/>
        <pt x="654" y="469" on="0"/>
        <pt x="640" y="483" on="0"/>
        <pt x="640" y="498" on="1"/>
        <pt x="640" y="507" on="0"/>
        <pt x="642" y="524" on="0"/>
        <pt x="647" y="542" on="0"/>
        <pt x="651" y="555" on="0"/>
        <pt x="658" y="576" on="0"/>
        <pt x="660" y="581" on="1"/>
        <pt x="643" y="609" on="0"/>
        <pt x="571" y="645" on="0"/>
        <pt x="525" y="645" on="1"/>
        <pt x="419" y="645" on="0"/>
        <pt x="216" y="530" on="0"/>
        <pt x="84" y="336" on="0"/>
        <pt x="78" y="229" on="1"/>
        <pt x="78" y="221" on="0"/>
        <pt x="78" y="213" on="1"/>
        <pt x="78" y="96" on="0"/>
        <pt x="241" y="-49" on="0"/>
        <pt x="362" y="-49" on="1"/>
        <pt x="415" y="-49" on="0"/>
        <pt x="511" y="-29" on="0"/>
        <pt x="574" y="-3" on="0"/>
        <pt x="638" y="40" on="0"/>
        <pt x="668" y="68" on="0"/>
        <pt x="710" y="110" on="0"/>
        <pt x="713" y="113" on="1"/>
        <pt x="716" y="118" on="0"/>
        <pt x="736" y="139" on="0"/>
      </contour>
    </TTGlyph>
    <TTGlyph name="D" xMin="-53" yMin="-38" xMax="901" yMax="674">
      <contour>
        <pt x="851" y="171" on="1"/>
        <pt x="803" y="105" on="0"/>
        <pt x="645" y="7" on="0"/>
        <pt x="490" y="-37" on="0"/>
        <pt x="423" y="-37" on="1"/>
        <pt x="365" y="-37" on="0"/>
        <pt x="334" y="-20" on="1"/>
        <pt x="303" y="-3" on="0"/>
        <pt x="295" y="23" on="1"/>
        <pt x="295" y="24" on="0"/>
        <pt x="294" y="27" on="0"/>
        <pt x="293" y="28" on="1"/>
        <pt x="289" y="23" on="0"/>
        <pt x="268" y="-10" on="0"/>
        <pt x="261" y="-18" on="1"/>
        <pt x="246" y="-34" on="0"/>
        <pt x="236" y="-34" on="1"/>
        <pt x="220" y="-34" on="0"/>
        <pt x="220" y="6" on="1"/>
        <pt x="220" y="281" on="0"/>
        <pt x="360" y="573" on="1"/>
        <pt x="354" y="572" on="0"/>
        <pt x="282" y="557" on="0"/>
        <pt x="255" y="551" on="1"/>
        <pt x="229" y="545" on="0"/>
        <pt x="155" y="519" on="0"/>
        <pt x="59" y="478" on="0"/>
        <pt x="-7" y="421" on="0"/>
        <pt x="-7" y="393" on="1"/>
        <pt x="-7" y="377" on="0"/>
        <pt x="19" y="343" on="0"/>
        <pt x="34" y="334" on="1"/>
        <pt x="51" y="318" on="0"/>
        <pt x="55" y="312" on="1"/>
        <pt x="51" y="312" on="1"/>
        <pt x="54" y="304" on="0"/>
        <pt x="44" y="304" on="1"/>
        <pt x="42" y="304" on="0"/>
        <pt x="36" y="306" on="0"/>
        <pt x="26" y="310" on="0"/>
        <pt x="23" y="311" on="1"/>
        <pt x="-12" y="333" on="0"/>
        <pt x="-23" y="345" on="1"/>
        <pt x="-53" y="376" on="0"/>
        <pt x="-53" y="406" on="1"/>
        <pt x="-53" y="440" on="0"/>
        <pt x="24" y="504" on="0"/>
        <pt x="132" y="547" on="0"/>
        <pt x="260" y="583" on="0"/>
        <pt x="350" y="600" on="0"/>
        <pt x="376" y="603" on="1"/>
        <pt x="396" y="647" on="0"/>
        <pt x="414" y="667" on="1"/>
        <pt x="416" y="667" on="1"/>
        <pt x="444" y="674" on="0"/>
        <pt x="468" y="674" on="1"/>
        <pt x="479" y="674" on="0"/>
        <pt x="479" y="670" on="1"/>
        <pt x="455" y="646" on="0"/>
        <pt x="437" y="607" on="1"/>
        <pt x="439" y="607" on="0"/>
        <pt x="442" y="607" on="1"/>
        <pt x="529" y="607" on="0"/>
        <pt x="679" y="576" on="0"/>
        <pt x="786" y="521" on="0"/>
        <pt x="863" y="447" on="0"/>
        <pt x="901" y="362" on="0"/>
        <pt x="901" y="316" on="1"/>
        <pt x="901" y="241" on="0"/>
      </contour>
      <contour>
        <pt x="264" y="34" on="1"/>
        <pt x="265" y="35" on="0"/>
        <pt x="281" y="54" on="0"/>
        <pt x="293" y="63" on="0"/>
        <pt x="298" y="63" on="1"/>
        <pt x="300" y="63" on="0"/>
        <pt x="304" y="61" on="0"/>
        <pt x="306" y="57" on="0"/>
        <pt x="308" y="53" on="0"/>
        <pt x="309" y="50" on="1"/>
        <pt x="310" y="48" on="0"/>
        <pt x="319" y="29" on="0"/>
        <pt x="323" y="22" on="0"/>
        <pt x="333" y="8" on="0"/>
        <pt x="344" y="1" on="0"/>
        <pt x="351" y="-2" on="1"/>
        <pt x="376" y="-11" on="0"/>
        <pt x="411" y="-11" on="1"/>
        <pt x="471" y="-11" on="0"/>
        <pt x="622" y="40" on="0"/>
        <pt x="755" y="123" on="0"/>
        <pt x="790" y="168" on="1"/>
        <pt x="864" y="263" on="0"/>
        <pt x="864" y="345" on="1"/>
        <pt x="864" y="418" on="0"/>
        <pt x="747" y="528" on="0"/>
        <pt x="566" y="580" on="0"/>
        <pt x="460" y="580" on="1"/>
        <pt x="441" y="580" on="0"/>
        <pt x="422" y="579" on="1"/>
        <pt x="289" y="347" on="0"/>
        <pt x="265" y="38" on="1"/>
        <pt x="265" y="35" on="0"/>
      </contour>
    </TTGlyph>
    <TTGlyph name="Delta" xMin="25" yMin="-2" xMax="428" yMax="536">
      <contour>
        <pt x="428" y="-2" on="1"/>
        <pt x="214" y="0" on="1"/>
        <pt x="110" y="0" on="0"/>
        <pt x="25" y="-2" on="1"/>
        <pt x="83" y="103" on="0"/>
        <pt x="165" y="236" on="1"/>
        <pt x="302" y="459" on="1"/>
        <pt x="303" y="461" on="0"/>
        <pt x="311" y="476" on="0"/>
        <pt x="320" y="491" on="0"/>
        <pt x="331" y="511" on="0"/>
        <pt x="341" y="525" on="0"/>
        <pt x="350" y="536" on="0"/>
        <pt x="353" y="536" on="1"/>
        <pt x="355" y="536" on="0"/>
        <pt x="357" y="532" on="0"/>
        <pt x="357" y="528" on="1"/>
        <pt x="364" y="414" on="0"/>
        <pt x="405" y="98" on="0"/>
      </contour>
      <contour>
        <pt x="384" y="33" on="1"/>
        <pt x="382" y="56" on="0"/>
        <pt x="337" y="417" on="0"/>
        <pt x="334" y="464" on="1"/>
        <pt x="333" y="474" on="0"/>
        <pt x="329" y="475" on="1"/>
        <pt x="326" y="473" on="0"/>
        <pt x="324" y="470" on="1"/>
        <pt x="228" y="316" on="0"/>
        <pt x="168" y="214" on="1"/>
        <pt x="99" y="98" on="0"/>
        <pt x="73" y="46" on="1"/>
        <pt x="70" y="38" on="0"/>
        <pt x="70" y="37" on="1"/>
        <pt x="70" y="33" on="0"/>
        <pt x="75" y="33" on="1"/>
        <pt x="204" y="30" on="0"/>
        <pt x="230" y="30" on="1"/>
        <pt x="263" y="30" on="0"/>
        <pt x="335" y="32" on="0"/>
        <pt x="382" y="33" on="0"/>
      </contour>
    </TTGlyph>
    <TTGlyph name="E" xMin="-25" yMin="-105" xMax="965" yMax="659">
      <contour>
        <pt x="441" y="291" on="1"/>
        <pt x="438" y="291" on="0"/>
        <pt x="431" y="291" on="0"/>
        <pt x="426" y="291" on="0"/>
        <pt x="418" y="291" on="0"/>
        <pt x="413" y="291" on="0"/>
        <pt x="406" y="292" on="0"/>
        <pt x="402" y="293" on="0"/>
        <pt x="397" y="295" on="0"/>
        <pt x="394" y="298" on="0"/>
        <pt x="392" y="302" on="0"/>
        <pt x="392" y="305" on="1"/>
        <pt x="392" y="313" on="0"/>
        <pt x="406" y="330" on="0"/>
        <pt x="414" y="330" on="1"/>
        <pt x="423" y="330" on="0"/>
        <pt x="433" y="330" on="1"/>
        <pt x="447" y="330" on="0"/>
        <pt x="502" y="329" on="0"/>
        <pt x="514" y="329" on="1"/>
        <pt x="526" y="363" on="0"/>
        <pt x="572" y="502" on="0"/>
        <pt x="584" y="537" on="1"/>
        <pt x="328" y="612" on="0"/>
        <pt x="195" y="612" on="1"/>
        <pt x="166" y="612" on="0"/>
        <pt x="110" y="604" on="0"/>
        <pt x="47" y="583" on="0"/>
        <pt x="8" y="540" on="0"/>
        <pt x="8" y="509" on="1"/>
        <pt x="8" y="462" on="0"/>
        <pt x="93" y="362" on="0"/>
        <pt x="195" y="295" on="0"/>
        <pt x="280" y="237" on="0"/>
        <pt x="280" y="228" on="1"/>
        <pt x="280" y="225" on="0"/>
        <pt x="276" y="225" on="1"/>
        <pt x="260" y="225" on="0"/>
        <pt x="213" y="250" on="1"/>
        <pt x="167" y="274" on="0"/>
        <pt x="88" y="331" on="0"/>
        <pt x="16" y="405" on="0"/>
        <pt x="-25" y="498" on="0"/>
        <pt x="-25" y="548" on="1"/>
        <pt x="-25" y="659" on="0"/>
        <pt x="147" y="659" on="1"/>
        <pt x="318" y="659" on="0"/>
        <pt x="593" y="563" on="1"/>
        <pt x="594" y="567" on="0"/>
        <pt x="601" y="591" on="0"/>
        <pt x="607" y="607" on="0"/>
        <pt x="617" y="627" on="0"/>
        <pt x="631" y="637" on="0"/>
        <pt x="639" y="637" on="1"/>
        <pt x="658" y="637" on="0"/>
        <pt x="690" y="597" on="0"/>
        <pt x="690" y="578" on="1"/>
        <pt x="690" y="568" on="0"/>
        <pt x="684" y="568" on="1"/>
        <pt x="677" y="568" on="0"/>
        <pt x="655" y="586" on="0"/>
        <pt x="653" y="586" on="1"/>
        <pt x="645" y="586" on="0"/>
        <pt x="631" y="560" on="0"/>
        <pt x="629" y="550" on="1"/>
        <pt x="749" y="509" on="0"/>
        <pt x="873" y="509" on="1"/>
        <pt x="894" y="509" on="0"/>
        <pt x="930" y="519" on="0"/>
        <pt x="950" y="529" on="0"/>
        <pt x="952" y="529" on="1"/>
        <pt x="965" y="529" on="0"/>
        <pt x="965" y="520" on="1"/>
        <pt x="965" y="495" on="0"/>
        <pt x="889" y="473" on="0"/>
        <pt x="857" y="473" on="1"/>
        <pt x="806" y="473" on="0"/>
        <pt x="667" y="501" on="0"/>
        <pt x="621" y="522" on="1"/>
        <pt x="616" y="506" on="0"/>
        <pt x="566" y="367" on="0"/>
        <pt x="554" y="329" on="1"/>
        <pt x="561" y="329" on="0"/>
        <pt x="699" y="326" on="0"/>
        <pt x="724" y="326" on="1"/>
        <pt x="742" y="326" on="0"/>
        <pt x="765" y="317" on="0"/>
        <pt x="765" y="311" on="1"/>
        <pt x="765" y="300" on="0"/>
        <pt x="730" y="300" on="1"/>
        <pt x="701" y="300" on="0"/>
        <pt x="547" y="294" on="0"/>
        <pt x="543" y="294" on="1"/>
        <pt x="525" y="229" on="0"/>
        <pt x="451" y="74" on="0"/>
        <pt x="412" y="31" on="1"/>
        <pt x="616" y="-68" on="0"/>
        <pt x="750" y="-68" on="1"/>
        <pt x="801" y="-68" on="0"/>
        <pt x="885" y="-11" on="0"/>
        <pt x="885" y="38" on="1"/>
        <pt x="885" y="61" on="0"/>
        <pt x="853" y="108" on="0"/>
        <pt x="853" y="114" on="1"/>
        <pt x="853" y="134" on="0"/>
        <pt x="869" y="134" on="1"/>
        <pt x="883" y="134" on="0"/>
        <pt x="910" y="82" on="0"/>
        <pt x="910" y="45" on="1"/>
        <pt x="910" y="-26" on="0"/>
        <pt x="799" y="-105" on="0"/>
        <pt x="725" y="-105" on="1"/>
        <pt x="676" y="-105" on="0"/>
        <pt x="545" y="-67" on="0"/>
        <pt x="475" y="-37" on="0"/>
        <pt x="400" y="-2" on="1"/>
        <pt x="387" y="4" on="0"/>
        <pt x="380" y="7" on="1"/>
        <pt x="292" y="-75" on="0"/>
        <pt x="161" y="-75" on="1"/>
        <pt x="111" y="-75" on="0"/>
        <pt x="33" y="-37" on="0"/>
        <pt x="33" y="55" on="0"/>
        <pt x="105" y="112" on="0"/>
        <pt x="153" y="112" on="1"/>
        <pt x="236" y="112" on="0"/>
        <pt x="382" y="45" on="1"/>
        <pt x="431" y="109" on="0"/>
        <pt x="503" y="292" on="1"/>
        <pt x="498" y="292" on="0"/>
        <pt x="454" y="291" on="0"/>
      </contour>
      <contour>
        <pt x="359" y="18" on="1"/>
        <pt x="316" y="38" on="0"/>
        <pt x="177" y="72" on="0"/>
        <pt x="134" y="72" on="1"/>
        <pt x="67" y="72" on="0"/>
        <pt x="67" y="31" on="1"/>
        <pt x="67" y="6" on="0"/>
        <pt x="121" y="-33" on="0"/>
        <pt x="183" y="-48" on="0"/>
        <pt x="208" y="-48" on="1"/>
        <pt x="293" y="-48" on="0"/>
      </contour>
    </TTGlyph>
    <TTGlyph name="Eacute" xMin="-25" yMin="-105" xMax="965" yMax="835">
      <contour>
        <pt x="441" y="291" on="1"/>
        <pt x="438" y="291" on="0"/>
        <pt x="431" y="291" on="0"/>
        <pt x="426" y="291" on="0"/>
        <pt x="418" y="291" on="0"/>
        <pt x="413" y="291" on="0"/>
        <pt x="406" y="292" on="0"/>
        <pt x="402" y="293" on="0"/>
        <pt x="397" y="295" on="0"/>
        <pt x="394" y="298" on="0"/>
        <pt x="392" y="302" on="0"/>
        <pt x="392" y="305" on="1"/>
        <pt x="392" y="313" on="0"/>
        <pt x="406" y="330" on="0"/>
        <pt x="414" y="330" on="1"/>
        <pt x="423" y="330" on="0"/>
        <pt x="433" y="330" on="1"/>
        <pt x="447" y="330" on="0"/>
        <pt x="502" y="329" on="0"/>
        <pt x="514" y="329" on="1"/>
        <pt x="526" y="363" on="0"/>
        <pt x="572" y="502" on="0"/>
        <pt x="584" y="537" on="1"/>
        <pt x="328" y="612" on="0"/>
        <pt x="195" y="612" on="1"/>
        <pt x="166" y="612" on="0"/>
        <pt x="110" y="604" on="0"/>
        <pt x="47" y="583" on="0"/>
        <pt x="8" y="540" on="0"/>
        <pt x="8" y="509" on="1"/>
        <pt x="8" y="462" on="0"/>
        <pt x="93" y="362" on="0"/>
        <pt x="195" y="295" on="0"/>
        <pt x="280" y="237" on="0"/>
        <pt x="280" y="228" on="1"/>
        <pt x="280" y="225" on="0"/>
        <pt x="276" y="225" on="1"/>
        <pt x="260" y="225" on="0"/>
        <pt x="213" y="250" on="1"/>
        <pt x="167" y="274" on="0"/>
        <pt x="88" y="331" on="0"/>
        <pt x="16" y="405" on="0"/>
        <pt x="-25" y="498" on="0"/>
        <pt x="-25" y="548" on="1"/>
        <pt x="-25" y="659" on="0"/>
        <pt x="147" y="659" on="1"/>
        <pt x="318" y="659" on="0"/>
        <pt x="593" y="563" on="1"/>
        <pt x="594" y="567" on="0"/>
        <pt x="601" y="591" on="0"/>
        <pt x="607" y="607" on="0"/>
        <pt x="617" y="627" on="0"/>
        <pt x="631" y="637" on="0"/>
        <pt x="639" y="637" on="1"/>
        <pt x="658" y="637" on="0"/>
        <pt x="690" y="597" on="0"/>
        <pt x="690" y="578" on="1"/>
        <pt x="690" y="568" on="0"/>
        <pt x="684" y="568" on="1"/>
        <pt x="677" y="568" on="0"/>
        <pt x="655" y="586" on="0"/>
        <pt x="653" y="586" on="1"/>
        <pt x="645" y="586" on="0"/>
        <pt x="631" y="560" on="0"/>
        <pt x="629" y="550" on="1"/>
        <pt x="749" y="509" on="0"/>
        <pt x="873" y="509" on="1"/>
        <pt x="894" y="509" on="0"/>
        <pt x="930" y="519" on="0"/>
        <pt x="950" y="529" on="0"/>
        <pt x="952" y="529" on="1"/>
        <pt x="965" y="529" on="0"/>
        <pt x="965" y="520" on="1"/>
        <pt x="965" y="495" on="0"/>
        <pt x="889" y="473" on="0"/>
        <pt x="857" y="473" on="1"/>
        <pt x="806" y="473" on="0"/>
        <pt x="667" y="501" on="0"/>
        <pt x="621" y="522" on="1"/>
        <pt x="616" y="506" on="0"/>
        <pt x="566" y="367" on="0"/>
        <pt x="554" y="329" on="1"/>
        <pt x="561" y="329" on="0"/>
        <pt x="699" y="326" on="0"/>
        <pt x="724" y="326" on="1"/>
        <pt x="742" y="326" on="0"/>
        <pt x="765" y="317" on="0"/>
        <pt x="765" y="311" on="1"/>
        <pt x="765" y="300" on="0"/>
        <pt x="730" y="300" on="1"/>
        <pt x="701" y="300" on="0"/>
        <pt x="547" y="294" on="0"/>
        <pt x="543" y="294" on="1"/>
        <pt x="525" y="229" on="0"/>
        <pt x="451" y="74" on="0"/>
        <pt x="412" y="31" on="1"/>
        <pt x="616" y="-68" on="0"/>
        <pt x="750" y="-68" on="1"/>
        <pt x="801" y="-68" on="0"/>
        <pt x="885" y="-11" on="0"/>
        <pt x="885" y="38" on="1"/>
        <pt x="885" y="61" on="0"/>
        <pt x="853" y="108" on="0"/>
        <pt x="853" y="114" on="1"/>
        <pt x="853" y="134" on="0"/>
        <pt x="869" y="134" on="1"/>
        <pt x="883" y="134" on="0"/>
        <pt x="910" y="82" on="0"/>
        <pt x="910" y="45" on="1"/>
        <pt x="910" y="-26" on="0"/>
        <pt x="799" y="-105" on="0"/>
        <pt x="725" y="-105" on="1"/>
        <pt x="676" y="-105" on="0"/>
        <pt x="545" y="-67" on="0"/>
        <pt x="475" y="-37" on="0"/>
        <pt x="400" y="-2" on="1"/>
        <pt x="387" y="4" on="0"/>
        <pt x="380" y="7" on="1"/>
        <pt x="292" y="-75" on="0"/>
        <pt x="161" y="-75" on="1"/>
        <pt x="111" y="-75" on="0"/>
        <pt x="33" y="-37" on="0"/>
        <pt x="33" y="55" on="0"/>
        <pt x="105" y="112" on="0"/>
        <pt x="153" y="112" on="1"/>
        <pt x="236" y="112" on="0"/>
        <pt x="382" y="45" on="1"/>
        <pt x="431" y="109" on="0"/>
        <pt x="503" y="292" on="1"/>
        <pt x="498" y="292" on="0"/>
        <pt x="454" y="291" on="0"/>
      </contour>
      <contour>
        <pt x="359" y="18" on="1"/>
        <pt x="316" y="38" on="0"/>
        <pt x="177" y="72" on="0"/>
        <pt x="134" y="72" on="1"/>
        <pt x="67" y="72" on="0"/>
        <pt x="67" y="31" on="1"/>
        <pt x="67" y="6" on="0"/>
        <pt x="121" y="-33" on="0"/>
        <pt x="183" y="-48" on="0"/>
        <pt x="208" y="-48" on="1"/>
        <pt x="293" y="-48" on="0"/>
      </contour>
      <contour>
        <pt x="865" y="796" on="1"/>
        <pt x="843" y="782" on="0"/>
        <pt x="776" y="726" on="0"/>
        <pt x="724" y="688" on="0"/>
        <pt x="707" y="684" on="1"/>
        <pt x="704" y="684" on="1"/>
        <pt x="701" y="684" on="0"/>
        <pt x="701" y="686" on="1"/>
        <pt x="701" y="704" on="0"/>
        <pt x="835" y="830" on="1"/>
        <pt x="841" y="835" on="0"/>
        <pt x="847" y="835" on="1"/>
        <pt x="856" y="835" on="0"/>
        <pt x="871" y="817" on="0"/>
        <pt x="871" y="808" on="1"/>
        <pt x="871" y="804" on="0"/>
        <pt x="868" y="798" on="0"/>
      </contour>
    </TTGlyph>
    <TTGlyph name="Ecircumflex" xMin="-25" yMin="-105" xMax="965" yMax="819">
      <contour>
        <pt x="441" y="291" on="1"/>
        <pt x="438" y="291" on="0"/>
        <pt x="431" y="291" on="0"/>
        <pt x="426" y="291" on="0"/>
        <pt x="418" y="291" on="0"/>
        <pt x="413" y="291" on="0"/>
        <pt x="406" y="292" on="0"/>
        <pt x="402" y="293" on="0"/>
        <pt x="397" y="295" on="0"/>
        <pt x="394" y="298" on="0"/>
        <pt x="392" y="302" on="0"/>
        <pt x="392" y="305" on="1"/>
        <pt x="392" y="313" on="0"/>
        <pt x="406" y="330" on="0"/>
        <pt x="414" y="330" on="1"/>
        <pt x="423" y="330" on="0"/>
        <pt x="433" y="330" on="1"/>
        <pt x="447" y="330" on="0"/>
        <pt x="502" y="329" on="0"/>
        <pt x="514" y="329" on="1"/>
        <pt x="526" y="363" on="0"/>
        <pt x="572" y="502" on="0"/>
        <pt x="584" y="537" on="1"/>
        <pt x="328" y="612" on="0"/>
        <pt x="195" y="612" on="1"/>
        <pt x="166" y="612" on="0"/>
        <pt x="110" y="604" on="0"/>
        <pt x="47" y="583" on="0"/>
        <pt x="8" y="540" on="0"/>
        <pt x="8" y="509" on="1"/>
        <pt x="8" y="462" on="0"/>
        <pt x="93" y="362" on="0"/>
        <pt x="195" y="295" on="0"/>
        <pt x="280" y="237" on="0"/>
        <pt x="280" y="228" on="1"/>
        <pt x="280" y="225" on="0"/>
        <pt x="276" y="225" on="1"/>
        <pt x="260" y="225" on="0"/>
        <pt x="213" y="250" on="1"/>
        <pt x="167" y="274" on="0"/>
        <pt x="88" y="331" on="0"/>
        <pt x="16" y="405" on="0"/>
        <pt x="-25" y="498" on="0"/>
        <pt x="-25" y="548" on="1"/>
        <pt x="-25" y="659" on="0"/>
        <pt x="147" y="659" on="1"/>
        <pt x="318" y="659" on="0"/>
        <pt x="593" y="563" on="1"/>
        <pt x="594" y="567" on="0"/>
        <pt x="601" y="591" on="0"/>
        <pt x="607" y="607" on="0"/>
        <pt x="617" y="627" on="0"/>
        <pt x="631" y="637" on="0"/>
        <pt x="639" y="637" on="1"/>
        <pt x="658" y="637" on="0"/>
        <pt x="690" y="597" on="0"/>
        <pt x="690" y="578" on="1"/>
        <pt x="690" y="568" on="0"/>
        <pt x="684" y="568" on="1"/>
        <pt x="677" y="568" on="0"/>
        <pt x="655" y="586" on="0"/>
        <pt x="653" y="586" on="1"/>
        <pt x="645" y="586" on="0"/>
        <pt x="631" y="560" on="0"/>
        <pt x="629" y="550" on="1"/>
        <pt x="749" y="509" on="0"/>
        <pt x="873" y="509" on="1"/>
        <pt x="894" y="509" on="0"/>
        <pt x="930" y="519" on="0"/>
        <pt x="950" y="529" on="0"/>
        <pt x="952" y="529" on="1"/>
        <pt x="965" y="529" on="0"/>
        <pt x="965" y="520" on="1"/>
        <pt x="965" y="495" on="0"/>
        <pt x="889" y="473" on="0"/>
        <pt x="857" y="473" on="1"/>
        <pt x="806" y="473" on="0"/>
        <pt x="667" y="501" on="0"/>
        <pt x="621" y="522" on="1"/>
        <pt x="616" y="506" on="0"/>
        <pt x="566" y="367" on="0"/>
        <pt x="554" y="329" on="1"/>
        <pt x="561" y="329" on="0"/>
        <pt x="699" y="326" on="0"/>
        <pt x="724" y="326" on="1"/>
        <pt x="742" y="326" on="0"/>
        <pt x="765" y="317" on="0"/>
        <pt x="765" y="311" on="1"/>
        <pt x="765" y="300" on="0"/>
        <pt x="730" y="300" on="1"/>
        <pt x="701" y="300" on="0"/>
        <pt x="547" y="294" on="0"/>
        <pt x="543" y="294" on="1"/>
        <pt x="525" y="229" on="0"/>
        <pt x="451" y="74" on="0"/>
        <pt x="412" y="31" on="1"/>
        <pt x="616" y="-68" on="0"/>
        <pt x="750" y="-68" on="1"/>
        <pt x="801" y="-68" on="0"/>
        <pt x="885" y="-11" on="0"/>
        <pt x="885" y="38" on="1"/>
        <pt x="885" y="61" on="0"/>
        <pt x="853" y="108" on="0"/>
        <pt x="853" y="114" on="1"/>
        <pt x="853" y="134" on="0"/>
        <pt x="869" y="134" on="1"/>
        <pt x="883" y="134" on="0"/>
        <pt x="910" y="82" on="0"/>
        <pt x="910" y="45" on="1"/>
        <pt x="910" y="-26" on="0"/>
        <pt x="799" y="-105" on="0"/>
        <pt x="725" y="-105" on="1"/>
        <pt x="676" y="-105" on="0"/>
        <pt x="545" y="-67" on="0"/>
        <pt x="475" y="-37" on="0"/>
        <pt x="400" y="-2" on="1"/>
        <pt x="387" y="4" on="0"/>
        <pt x="380" y="7" on="1"/>
        <pt x="292" y="-75" on="0"/>
        <pt x="161" y="-75" on="1"/>
        <pt x="111" y="-75" on="0"/>
        <pt x="33" y="-37" on="0"/>
        <pt x="33" y="55" on="0"/>
        <pt x="105" y="112" on="0"/>
        <pt x="153" y="112" on="1"/>
        <pt x="236" y="112" on="0"/>
        <pt x="382" y="45" on="1"/>
        <pt x="431" y="109" on="0"/>
        <pt x="503" y="292" on="1"/>
        <pt x="498" y="292" on="0"/>
        <pt x="454" y="291" on="0"/>
      </contour>
      <contour>
        <pt x="359" y="18" on="1"/>
        <pt x="316" y="38" on="0"/>
        <pt x="177" y="72" on="0"/>
        <pt x="134" y="72" on="1"/>
        <pt x="67" y="72" on="0"/>
        <pt x="67" y="31" on="1"/>
        <pt x="67" y="6" on="0"/>
        <pt x="121" y="-33" on="0"/>
        <pt x="183" y="-48" on="0"/>
        <pt x="208" y="-48" on="1"/>
        <pt x="293" y="-48" on="0"/>
      </contour>
      <contour>
        <pt x="833" y="696" on="1"/>
        <pt x="820" y="707" on="0"/>
        <pt x="765" y="767" on="0"/>
        <pt x="755" y="782" on="1"/>
        <pt x="742" y="770" on="0"/>
        <pt x="656" y="701" on="0"/>
        <pt x="647" y="696" on="1"/>
        <pt x="644" y="694" on="0"/>
        <pt x="642" y="694" on="1"/>
        <pt x="639" y="694" on="0"/>
        <pt x="639" y="697" on="1"/>
        <pt x="639" y="700" on="0"/>
        <pt x="643" y="706" on="1"/>
        <pt x="653" y="718" on="0"/>
        <pt x="759" y="817" on="0"/>
        <pt x="768" y="819" on="1"/>
        <pt x="773" y="817" on="0"/>
        <pt x="831" y="726" on="0"/>
        <pt x="840" y="709" on="1"/>
        <pt x="841" y="706" on="0"/>
        <pt x="841" y="702" on="1"/>
        <pt x="840" y="696" on="0"/>
        <pt x="836" y="695" on="1"/>
        <pt x="836" y="695" on="0"/>
        <pt x="834" y="695" on="0"/>
      </contour>
    </TTGlyph>
    <TTGlyph name="Edieresis" xMin="-25" yMin="-105" xMax="965" yMax="793">
      <contour>
        <pt x="441" y="291" on="1"/>
        <pt x="438" y="291" on="0"/>
        <pt x="431" y="291" on="0"/>
        <pt x="426" y="291" on="0"/>
        <pt x="418" y="291" on="0"/>
        <pt x="413" y="291" on="0"/>
        <pt x="406" y="292" on="0"/>
        <pt x="402" y="293" on="0"/>
        <pt x="397" y="295" on="0"/>
        <pt x="394" y="298" on="0"/>
        <pt x="392" y="302" on="0"/>
        <pt x="392" y="305" on="1"/>
        <pt x="392" y="313" on="0"/>
        <pt x="406" y="330" on="0"/>
        <pt x="414" y="330" on="1"/>
        <pt x="423" y="330" on="0"/>
        <pt x="433" y="330" on="1"/>
        <pt x="447" y="330" on="0"/>
        <pt x="502" y="329" on="0"/>
        <pt x="514" y="329" on="1"/>
        <pt x="526" y="363" on="0"/>
        <pt x="572" y="502" on="0"/>
        <pt x="584" y="537" on="1"/>
        <pt x="328" y="612" on="0"/>
        <pt x="195" y="612" on="1"/>
        <pt x="166" y="612" on="0"/>
        <pt x="110" y="604" on="0"/>
        <pt x="47" y="583" on="0"/>
        <pt x="8" y="540" on="0"/>
        <pt x="8" y="509" on="1"/>
        <pt x="8" y="462" on="0"/>
        <pt x="93" y="362" on="0"/>
        <pt x="195" y="295" on="0"/>
        <pt x="280" y="237" on="0"/>
        <pt x="280" y="228" on="1"/>
        <pt x="280" y="225" on="0"/>
        <pt x="276" y="225" on="1"/>
        <pt x="260" y="225" on="0"/>
        <pt x="213" y="250" on="1"/>
        <pt x="167" y="274" on="0"/>
        <pt x="88" y="331" on="0"/>
        <pt x="16" y="405" on="0"/>
        <pt x="-25" y="498" on="0"/>
        <pt x="-25" y="548" on="1"/>
        <pt x="-25" y="659" on="0"/>
        <pt x="147" y="659" on="1"/>
        <pt x="318" y="659" on="0"/>
        <pt x="593" y="563" on="1"/>
        <pt x="594" y="567" on="0"/>
        <pt x="601" y="591" on="0"/>
        <pt x="607" y="607" on="0"/>
        <pt x="617" y="627" on="0"/>
        <pt x="631" y="637" on="0"/>
        <pt x="639" y="637" on="1"/>
        <pt x="658" y="637" on="0"/>
        <pt x="690" y="597" on="0"/>
        <pt x="690" y="578" on="1"/>
        <pt x="690" y="568" on="0"/>
        <pt x="684" y="568" on="1"/>
        <pt x="677" y="568" on="0"/>
        <pt x="655" y="586" on="0"/>
        <pt x="653" y="586" on="1"/>
        <pt x="645" y="586" on="0"/>
        <pt x="631" y="560" on="0"/>
        <pt x="629" y="550" on="1"/>
        <pt x="749" y="509" on="0"/>
        <pt x="873" y="509" on="1"/>
        <pt x="894" y="509" on="0"/>
        <pt x="930" y="519" on="0"/>
        <pt x="950" y="529" on="0"/>
        <pt x="952" y="529" on="1"/>
        <pt x="965" y="529" on="0"/>
        <pt x="965" y="520" on="1"/>
        <pt x="965" y="495" on="0"/>
        <pt x="889" y="473" on="0"/>
        <pt x="857" y="473" on="1"/>
        <pt x="806" y="473" on="0"/>
        <pt x="667" y="501" on="0"/>
        <pt x="621" y="522" on="1"/>
        <pt x="616" y="506" on="0"/>
        <pt x="566" y="367" on="0"/>
        <pt x="554" y="329" on="1"/>
        <pt x="561" y="329" on="0"/>
        <pt x="699" y="326" on="0"/>
        <pt x="724" y="326" on="1"/>
        <pt x="742" y="326" on="0"/>
        <pt x="765" y="317" on="0"/>
        <pt x="765" y="311" on="1"/>
        <pt x="765" y="300" on="0"/>
        <pt x="730" y="300" on="1"/>
        <pt x="701" y="300" on="0"/>
        <pt x="547" y="294" on="0"/>
        <pt x="543" y="294" on="1"/>
        <pt x="525" y="229" on="0"/>
        <pt x="451" y="74" on="0"/>
        <pt x="412" y="31" on="1"/>
        <pt x="616" y="-68" on="0"/>
        <pt x="750" y="-68" on="1"/>
        <pt x="801" y="-68" on="0"/>
        <pt x="885" y="-11" on="0"/>
        <pt x="885" y="38" on="1"/>
        <pt x="885" y="61" on="0"/>
        <pt x="853" y="108" on="0"/>
        <pt x="853" y="114" on="1"/>
        <pt x="853" y="134" on="0"/>
        <pt x="869" y="134" on="1"/>
        <pt x="883" y="134" on="0"/>
        <pt x="910" y="82" on="0"/>
        <pt x="910" y="45" on="1"/>
        <pt x="910" y="-26" on="0"/>
        <pt x="799" y="-105" on="0"/>
        <pt x="725" y="-105" on="1"/>
        <pt x="676" y="-105" on="0"/>
        <pt x="545" y="-67" on="0"/>
        <pt x="475" y="-37" on="0"/>
        <pt x="400" y="-2" on="1"/>
        <pt x="387" y="4" on="0"/>
        <pt x="380" y="7" on="1"/>
        <pt x="292" y="-75" on="0"/>
        <pt x="161" y="-75" on="1"/>
        <pt x="111" y="-75" on="0"/>
        <pt x="33" y="-37" on="0"/>
        <pt x="33" y="55" on="0"/>
        <pt x="105" y="112" on="0"/>
        <pt x="153" y="112" on="1"/>
        <pt x="236" y="112" on="0"/>
        <pt x="382" y="45" on="1"/>
        <pt x="431" y="109" on="0"/>
        <pt x="503" y="292" on="1"/>
        <pt x="498" y="292" on="0"/>
        <pt x="454" y="291" on="0"/>
      </contour>
      <contour>
        <pt x="359" y="18" on="1"/>
        <pt x="316" y="38" on="0"/>
        <pt x="177" y="72" on="0"/>
        <pt x="134" y="72" on="1"/>
        <pt x="67" y="72" on="0"/>
        <pt x="67" y="31" on="1"/>
        <pt x="67" y="6" on="0"/>
        <pt x="121" y="-33" on="0"/>
        <pt x="183" y="-48" on="0"/>
        <pt x="208" y="-48" on="1"/>
        <pt x="293" y="-48" on="0"/>
      </contour>
      <contour>
        <pt x="873" y="724" on="1"/>
        <pt x="873" y="713" on="0"/>
        <pt x="851" y="699" on="0"/>
        <pt x="839" y="699" on="1"/>
        <pt x="820" y="699" on="0"/>
        <pt x="820" y="731" on="1"/>
        <pt x="820" y="733" on="0"/>
        <pt x="820" y="736" on="0"/>
        <pt x="820" y="739" on="0"/>
        <pt x="820" y="740" on="1"/>
        <pt x="821" y="758" on="0"/>
        <pt x="866" y="792" on="0"/>
        <pt x="881" y="792" on="1"/>
        <pt x="886" y="792" on="0"/>
        <pt x="887" y="789" on="1"/>
        <pt x="887" y="777" on="0"/>
        <pt x="873" y="726" on="0"/>
      </contour>
      <contour>
        <pt x="721" y="724" on="1"/>
        <pt x="721" y="713" on="0"/>
        <pt x="699" y="699" on="0"/>
        <pt x="687" y="699" on="1"/>
        <pt x="668" y="699" on="0"/>
        <pt x="668" y="731" on="1"/>
        <pt x="668" y="733" on="0"/>
        <pt x="668" y="736" on="0"/>
        <pt x="668" y="739" on="0"/>
        <pt x="668" y="740" on="1"/>
        <pt x="668" y="749" on="0"/>
        <pt x="683" y="769" on="0"/>
        <pt x="702" y="783" on="0"/>
        <pt x="722" y="792" on="0"/>
        <pt x="729" y="792" on="1"/>
        <pt x="734" y="792" on="0"/>
        <pt x="735" y="789" on="1"/>
        <pt x="735" y="777" on="0"/>
        <pt x="721" y="726" on="0"/>
      </contour>
    </TTGlyph>
    <TTGlyph name="Egrave" xMin="-25" yMin="-105" xMax="965" yMax="804">
      <contour>
        <pt x="441" y="291" on="1"/>
        <pt x="438" y="291" on="0"/>
        <pt x="431" y="291" on="0"/>
        <pt x="426" y="291" on="0"/>
        <pt x="418" y="291" on="0"/>
        <pt x="413" y="291" on="0"/>
        <pt x="406" y="292" on="0"/>
        <pt x="402" y="293" on="0"/>
        <pt x="397" y="295" on="0"/>
        <pt x="394" y="298" on="0"/>
        <pt x="392" y="302" on="0"/>
        <pt x="392" y="305" on="1"/>
        <pt x="392" y="313" on="0"/>
        <pt x="406" y="330" on="0"/>
        <pt x="414" y="330" on="1"/>
        <pt x="423" y="330" on="0"/>
        <pt x="433" y="330" on="1"/>
        <pt x="447" y="330" on="0"/>
        <pt x="502" y="329" on="0"/>
        <pt x="514" y="329" on="1"/>
        <pt x="526" y="363" on="0"/>
        <pt x="572" y="502" on="0"/>
        <pt x="584" y="537" on="1"/>
        <pt x="328" y="612" on="0"/>
        <pt x="195" y="612" on="1"/>
        <pt x="166" y="612" on="0"/>
        <pt x="110" y="604" on="0"/>
        <pt x="47" y="583" on="0"/>
        <pt x="8" y="540" on="0"/>
        <pt x="8" y="509" on="1"/>
        <pt x="8" y="462" on="0"/>
        <pt x="93" y="362" on="0"/>
        <pt x="195" y="295" on="0"/>
        <pt x="280" y="237" on="0"/>
        <pt x="280" y="228" on="1"/>
        <pt x="280" y="225" on="0"/>
        <pt x="276" y="225" on="1"/>
        <pt x="260" y="225" on="0"/>
        <pt x="213" y="250" on="1"/>
        <pt x="167" y="274" on="0"/>
        <pt x="88" y="331" on="0"/>
        <pt x="16" y="405" on="0"/>
        <pt x="-25" y="498" on="0"/>
        <pt x="-25" y="548" on="1"/>
        <pt x="-25" y="659" on="0"/>
        <pt x="147" y="659" on="1"/>
        <pt x="318" y="659" on="0"/>
        <pt x="593" y="563" on="1"/>
        <pt x="594" y="567" on="0"/>
        <pt x="601" y="591" on="0"/>
        <pt x="607" y="607" on="0"/>
        <pt x="617" y="627" on="0"/>
        <pt x="631" y="637" on="0"/>
        <pt x="639" y="637" on="1"/>
        <pt x="658" y="637" on="0"/>
        <pt x="690" y="597" on="0"/>
        <pt x="690" y="578" on="1"/>
        <pt x="690" y="568" on="0"/>
        <pt x="684" y="568" on="1"/>
        <pt x="677" y="568" on="0"/>
        <pt x="655" y="586" on="0"/>
        <pt x="653" y="586" on="1"/>
        <pt x="645" y="586" on="0"/>
        <pt x="631" y="560" on="0"/>
        <pt x="629" y="550" on="1"/>
        <pt x="749" y="509" on="0"/>
        <pt x="873" y="509" on="1"/>
        <pt x="894" y="509" on="0"/>
        <pt x="930" y="519" on="0"/>
        <pt x="950" y="529" on="0"/>
        <pt x="952" y="529" on="1"/>
        <pt x="965" y="529" on="0"/>
        <pt x="965" y="520" on="1"/>
        <pt x="965" y="495" on="0"/>
        <pt x="889" y="473" on="0"/>
        <pt x="857" y="473" on="1"/>
        <pt x="806" y="473" on="0"/>
        <pt x="667" y="501" on="0"/>
        <pt x="621" y="522" on="1"/>
        <pt x="616" y="506" on="0"/>
        <pt x="566" y="367" on="0"/>
        <pt x="554" y="329" on="1"/>
        <pt x="561" y="329" on="0"/>
        <pt x="699" y="326" on="0"/>
        <pt x="724" y="326" on="1"/>
        <pt x="742" y="326" on="0"/>
        <pt x="765" y="317" on="0"/>
        <pt x="765" y="311" on="1"/>
        <pt x="765" y="300" on="0"/>
        <pt x="730" y="300" on="1"/>
        <pt x="701" y="300" on="0"/>
        <pt x="547" y="294" on="0"/>
        <pt x="543" y="294" on="1"/>
        <pt x="525" y="229" on="0"/>
        <pt x="451" y="74" on="0"/>
        <pt x="412" y="31" on="1"/>
        <pt x="616" y="-68" on="0"/>
        <pt x="750" y="-68" on="1"/>
        <pt x="801" y="-68" on="0"/>
        <pt x="885" y="-11" on="0"/>
        <pt x="885" y="38" on="1"/>
        <pt x="885" y="61" on="0"/>
        <pt x="853" y="108" on="0"/>
        <pt x="853" y="114" on="1"/>
        <pt x="853" y="134" on="0"/>
        <pt x="869" y="134" on="1"/>
        <pt x="883" y="134" on="0"/>
        <pt x="910" y="82" on="0"/>
        <pt x="910" y="45" on="1"/>
        <pt x="910" y="-26" on="0"/>
        <pt x="799" y="-105" on="0"/>
        <pt x="725" y="-105" on="1"/>
        <pt x="676" y="-105" on="0"/>
        <pt x="545" y="-67" on="0"/>
        <pt x="475" y="-37" on="0"/>
        <pt x="400" y="-2" on="1"/>
        <pt x="387" y="4" on="0"/>
        <pt x="380" y="7" on="1"/>
        <pt x="292" y="-75" on="0"/>
        <pt x="161" y="-75" on="1"/>
        <pt x="111" y="-75" on="0"/>
        <pt x="33" y="-37" on="0"/>
        <pt x="33" y="55" on="0"/>
        <pt x="105" y="112" on="0"/>
        <pt x="153" y="112" on="1"/>
        <pt x="236" y="112" on="0"/>
        <pt x="382" y="45" on="1"/>
        <pt x="431" y="109" on="0"/>
        <pt x="503" y="292" on="1"/>
        <pt x="498" y="292" on="0"/>
        <pt x="454" y="291" on="0"/>
      </contour>
      <contour>
        <pt x="359" y="18" on="1"/>
        <pt x="316" y="38" on="0"/>
        <pt x="177" y="72" on="0"/>
        <pt x="134" y="72" on="1"/>
        <pt x="67" y="72" on="0"/>
        <pt x="67" y="31" on="1"/>
        <pt x="67" y="6" on="0"/>
        <pt x="121" y="-33" on="0"/>
        <pt x="183" y="-48" on="0"/>
        <pt x="208" y="-48" on="1"/>
        <pt x="293" y="-48" on="0"/>
      </contour>
      <contour>
        <pt x="783" y="685" on="1"/>
        <pt x="785" y="683" on="0"/>
        <pt x="785" y="681" on="1"/>
        <pt x="785" y="680" on="0"/>
        <pt x="783" y="679" on="0"/>
        <pt x="781" y="679" on="1"/>
        <pt x="767" y="679" on="0"/>
        <pt x="660" y="732" on="0"/>
        <pt x="605" y="762" on="1"/>
        <pt x="596" y="767" on="0"/>
        <pt x="596" y="777" on="1"/>
        <pt x="596" y="781" on="0"/>
        <pt x="600" y="791" on="0"/>
        <pt x="607" y="799" on="0"/>
        <pt x="616" y="804" on="0"/>
        <pt x="625" y="804" on="0"/>
        <pt x="628" y="801" on="1"/>
        <pt x="648" y="785" on="0"/>
        <pt x="722" y="738" on="0"/>
        <pt x="774" y="700" on="0"/>
      </contour>
    </TTGlyph>
    <TTGlyph name="Eth" xMin="12" yMin="-10" xMax="725" yMax="693">
      <contour>
        <pt x="12" y="247" on="1"/>
        <pt x="12" y="250" on="0"/>
        <pt x="15" y="256" on="0"/>
        <pt x="19" y="259" on="0"/>
        <pt x="25" y="262" on="0"/>
        <pt x="32" y="263" on="0"/>
        <pt x="41" y="264" on="0"/>
        <pt x="49" y="264" on="0"/>
        <pt x="55" y="264" on="1"/>
        <pt x="71" y="264" on="0"/>
        <pt x="103" y="262" on="1"/>
        <pt x="119" y="458" on="0"/>
        <pt x="156" y="603" on="1"/>
        <pt x="154" y="603" on="0"/>
        <pt x="150" y="603" on="0"/>
        <pt x="148" y="603" on="1"/>
        <pt x="140" y="603" on="0"/>
        <pt x="122" y="602" on="0"/>
        <pt x="105" y="600" on="0"/>
        <pt x="100" y="598" on="1"/>
        <pt x="98" y="597" on="0"/>
        <pt x="96" y="597" on="1"/>
        <pt x="89" y="597" on="0"/>
        <pt x="89" y="607" on="1"/>
        <pt x="89" y="618" on="0"/>
        <pt x="109" y="640" on="0"/>
        <pt x="125" y="640" on="1"/>
        <pt x="164" y="640" on="1"/>
        <pt x="169" y="668" on="0"/>
        <pt x="182" y="681" on="1"/>
        <pt x="203" y="692" on="0"/>
        <pt x="219" y="692" on="1"/>
        <pt x="226" y="692" on="0"/>
        <pt x="233" y="687" on="0"/>
        <pt x="233" y="681" on="1"/>
        <pt x="225" y="663" on="0"/>
        <pt x="218" y="643" on="1"/>
        <pt x="239" y="644" on="0"/>
        <pt x="262" y="644" on="1"/>
        <pt x="306" y="644" on="0"/>
        <pt x="395" y="634" on="0"/>
        <pt x="486" y="611" on="0"/>
        <pt x="569" y="577" on="0"/>
        <pt x="642" y="527" on="0"/>
        <pt x="694" y="467" on="0"/>
        <pt x="725" y="388" on="0"/>
        <pt x="725" y="344" on="1"/>
        <pt x="725" y="271" on="0"/>
        <pt x="675" y="200" on="1"/>
        <pt x="627" y="133" on="0"/>
        <pt x="452" y="34" on="0"/>
        <pt x="278" y="-9" on="0"/>
        <pt x="204" y="-9" on="1"/>
        <pt x="98" y="-9" on="0"/>
        <pt x="93" y="30" on="1"/>
        <pt x="92" y="36" on="0"/>
        <pt x="97" y="43" on="0"/>
        <pt x="106" y="40" on="1"/>
        <pt x="98" y="78" on="0"/>
        <pt x="98" y="142" on="1"/>
        <pt x="98" y="180" on="0"/>
        <pt x="101" y="228" on="1"/>
        <pt x="82" y="227" on="0"/>
        <pt x="48" y="227" on="1"/>
        <pt x="39" y="227" on="0"/>
        <pt x="23" y="232" on="0"/>
        <pt x="12" y="241" on="0"/>
      </contour>
      <contour>
        <pt x="144" y="105" on="1"/>
        <pt x="146" y="37" on="0"/>
        <pt x="175" y="27" on="1"/>
        <pt x="200" y="18" on="0"/>
        <pt x="234" y="18" on="1"/>
        <pt x="326" y="18" on="0"/>
        <pt x="561" y="128" on="0"/>
        <pt x="614" y="197" on="1"/>
        <pt x="688" y="292" on="0"/>
        <pt x="688" y="377" on="1"/>
        <pt x="688" y="465" on="0"/>
        <pt x="521" y="575" on="0"/>
        <pt x="390" y="594" on="1"/>
        <pt x="307" y="606" on="0"/>
        <pt x="248" y="606" on="1"/>
        <pt x="238" y="606" on="0"/>
        <pt x="218" y="605" on="0"/>
        <pt x="208" y="605" on="1"/>
        <pt x="158" y="434" on="0"/>
        <pt x="146" y="262" on="1"/>
        <pt x="165" y="262" on="0"/>
        <pt x="228" y="261" on="0"/>
        <pt x="248" y="261" on="1"/>
        <pt x="263" y="261" on="0"/>
        <pt x="263" y="257" on="1"/>
        <pt x="263" y="251" on="0"/>
        <pt x="248" y="247" on="1"/>
        <pt x="222" y="238" on="0"/>
        <pt x="144" y="231" on="1"/>
        <pt x="142" y="199" on="0"/>
        <pt x="142" y="136" on="0"/>
      </contour>
    </TTGlyph>
    <TTGlyph name="Euro" xMin="11" yMin="-16" xMax="649" yMax="658">
      <contour>
        <pt x="65" y="401" on="0"/>
        <pt x="69" y="401" on="0"/>
        <pt x="79" y="401" on="0"/>
        <pt x="82" y="401" on="1"/>
        <pt x="92" y="401" on="0"/>
        <pt x="138" y="402" on="0"/>
        <pt x="146" y="402" on="1"/>
        <pt x="178" y="516" on="0"/>
        <pt x="345" y="658" on="0"/>
        <pt x="465" y="658" on="1"/>
        <pt x="597" y="658" on="0"/>
        <pt x="642" y="611" on="1"/>
        <pt x="645" y="608" on="0"/>
        <pt x="648" y="589" on="0"/>
        <pt x="648" y="578" on="1"/>
        <pt x="648" y="553" on="0"/>
        <pt x="644" y="553" on="1"/>
        <pt x="643" y="553" on="0"/>
        <pt x="642" y="555" on="1"/>
        <pt x="632" y="571" on="0"/>
        <pt x="599" y="601" on="0"/>
        <pt x="518" y="633" on="0"/>
        <pt x="467" y="633" on="1"/>
        <pt x="369" y="633" on="0"/>
        <pt x="227" y="504" on="0"/>
        <pt x="197" y="402" on="1"/>
        <pt x="344" y="400" on="0"/>
        <pt x="370" y="398" on="1"/>
        <pt x="448" y="395" on="0"/>
        <pt x="465" y="386" on="1"/>
        <pt x="470" y="383" on="0"/>
        <pt x="470" y="381" on="1"/>
        <pt x="470" y="378" on="0"/>
        <pt x="462" y="374" on="0"/>
        <pt x="445" y="372" on="0"/>
        <pt x="433" y="372" on="1"/>
        <pt x="189" y="372" on="1"/>
        <pt x="178" y="321" on="0"/>
        <pt x="178" y="261" on="1"/>
        <pt x="178" y="245" on="1"/>
        <pt x="205" y="245" on="0"/>
        <pt x="276" y="243" on="0"/>
        <pt x="323" y="242" on="0"/>
        <pt x="328" y="242" on="1"/>
        <pt x="406" y="239" on="0"/>
        <pt x="423" y="230" on="1"/>
        <pt x="428" y="227" on="0"/>
        <pt x="428" y="225" on="1"/>
        <pt x="428" y="222" on="0"/>
        <pt x="420" y="218" on="0"/>
        <pt x="403" y="216" on="0"/>
        <pt x="391" y="216" on="1"/>
        <pt x="180" y="216" on="1"/>
        <pt x="191" y="122" on="0"/>
        <pt x="300" y="7" on="0"/>
        <pt x="396" y="7" on="1"/>
        <pt x="446" y="7" on="0"/>
        <pt x="534" y="35" on="0"/>
        <pt x="592" y="79" on="0"/>
        <pt x="627" y="115" on="0"/>
        <pt x="638" y="132" on="1"/>
        <pt x="642" y="137" on="0"/>
        <pt x="644" y="137" on="1"/>
        <pt x="648" y="137" on="0"/>
        <pt x="648" y="127" on="1"/>
        <pt x="648" y="98" on="0"/>
        <pt x="632" y="78" on="1"/>
        <pt x="596" y="28" on="0"/>
        <pt x="468" y="-16" on="0"/>
        <pt x="401" y="-16" on="1"/>
        <pt x="283" y="-16" on="0"/>
        <pt x="145" y="106" on="0"/>
        <pt x="131" y="216" on="1"/>
        <pt x="24" y="216" on="1"/>
        <pt x="12" y="216" on="0"/>
        <pt x="12" y="227" on="1"/>
        <pt x="12" y="234" on="0"/>
        <pt x="20" y="245" on="0"/>
        <pt x="25" y="245" on="1"/>
        <pt x="27" y="245" on="0"/>
        <pt x="31" y="245" on="0"/>
        <pt x="34" y="245" on="0"/>
        <pt x="38" y="245" on="0"/>
        <pt x="40" y="245" on="1"/>
        <pt x="51" y="245" on="0"/>
        <pt x="97" y="246" on="0"/>
        <pt x="105" y="246" on="1"/>
        <pt x="128" y="246" on="1"/>
        <pt x="128" y="258" on="1"/>
        <pt x="128" y="262" on="0"/>
        <pt x="128" y="269" on="0"/>
        <pt x="128" y="272" on="1"/>
        <pt x="128" y="298" on="0"/>
        <pt x="133" y="348" on="0"/>
        <pt x="138" y="372" on="1"/>
        <pt x="66" y="372" on="1"/>
        <pt x="62" y="372" on="0"/>
        <pt x="56" y="375" on="0"/>
        <pt x="54" y="380" on="0"/>
        <pt x="54" y="383" on="1"/>
        <pt x="54" y="386" on="0"/>
        <pt x="55" y="391" on="0"/>
        <pt x="58" y="395" on="0"/>
        <pt x="61" y="399" on="0"/>
      </contour>
    </TTGlyph>
    <TTGlyph name="F" xMin="13" yMin="-134" xMax="923" yMax="687">
      <contour>
        <pt x="60" y="90" on="1"/>
        <pt x="60" y="108" on="0"/>
        <pt x="67" y="138" on="0"/>
        <pt x="73" y="138" on="1"/>
        <pt x="80" y="138" on="0"/>
        <pt x="83" y="110" on="1"/>
        <pt x="83" y="96" on="0"/>
        <pt x="95" y="46" on="0"/>
        <pt x="123" y="-19" on="0"/>
        <pt x="163" y="-76" on="0"/>
        <pt x="227" y="-115" on="0"/>
        <pt x="264" y="-115" on="1"/>
        <pt x="271" y="-115" on="0"/>
        <pt x="278" y="-114" on="1"/>
        <pt x="310" y="-111" on="0"/>
        <pt x="373" y="-68" on="0"/>
        <pt x="425" y="8" on="0"/>
        <pt x="467" y="80" on="0"/>
        <pt x="508" y="184" on="0"/>
        <pt x="528" y="239" on="0"/>
        <pt x="541" y="280" on="1"/>
        <pt x="540" y="280" on="0"/>
        <pt x="525" y="280" on="0"/>
        <pt x="502" y="280" on="0"/>
        <pt x="490" y="280" on="1"/>
        <pt x="423" y="280" on="0"/>
        <pt x="405" y="283" on="1"/>
        <pt x="396" y="288" on="0"/>
        <pt x="396" y="315" on="0"/>
        <pt x="405" y="315" on="1"/>
        <pt x="458" y="317" on="1"/>
        <pt x="510" y="319" on="0"/>
        <pt x="552" y="319" on="1"/>
        <pt x="564" y="356" on="0"/>
        <pt x="612" y="508" on="0"/>
        <pt x="622" y="538" on="1"/>
        <pt x="509" y="587" on="0"/>
        <pt x="322" y="640" on="0"/>
        <pt x="222" y="640" on="1"/>
        <pt x="144" y="640" on="0"/>
        <pt x="47" y="594" on="0"/>
        <pt x="47" y="550" on="1"/>
        <pt x="47" y="493" on="0"/>
        <pt x="168" y="314" on="0"/>
        <pt x="225" y="274" on="1"/>
        <pt x="245" y="260" on="0"/>
        <pt x="306" y="226" on="0"/>
        <pt x="315" y="220" on="1"/>
        <pt x="323" y="215" on="0"/>
        <pt x="319" y="206" on="0"/>
        <pt x="309" y="208" on="1"/>
        <pt x="205" y="231" on="0"/>
        <pt x="25" y="433" on="0"/>
        <pt x="15" y="529" on="1"/>
        <pt x="14" y="540" on="0"/>
        <pt x="14" y="551" on="1"/>
        <pt x="14" y="687" on="0"/>
        <pt x="202" y="687" on="1"/>
        <pt x="257" y="687" on="0"/>
        <pt x="378" y="662" on="0"/>
        <pt x="444" y="640" on="0"/>
        <pt x="605" y="576" on="0"/>
        <pt x="631" y="566" on="1"/>
        <pt x="657" y="641" on="0"/>
        <pt x="664" y="642" on="1"/>
        <pt x="666" y="642" on="0"/>
        <pt x="670" y="643" on="0"/>
        <pt x="673" y="643" on="0"/>
        <pt x="676" y="644" on="0"/>
        <pt x="678" y="644" on="1"/>
        <pt x="684" y="644" on="0"/>
        <pt x="694" y="640" on="0"/>
        <pt x="701" y="636" on="0"/>
        <pt x="709" y="626" on="0"/>
        <pt x="712" y="621" on="0"/>
        <pt x="722" y="606" on="0"/>
        <pt x="723" y="604" on="1"/>
        <pt x="724" y="601" on="0"/>
        <pt x="726" y="594" on="0"/>
        <pt x="728" y="589" on="0"/>
        <pt x="729" y="584" on="0"/>
        <pt x="729" y="581" on="1"/>
        <pt x="729" y="577" on="0"/>
        <pt x="725" y="571" on="0"/>
        <pt x="722" y="571" on="1"/>
        <pt x="714" y="571" on="0"/>
        <pt x="699" y="585" on="1"/>
        <pt x="695" y="591" on="0"/>
        <pt x="691" y="591" on="1"/>
        <pt x="686" y="591" on="0"/>
        <pt x="674" y="574" on="0"/>
        <pt x="667" y="556" on="0"/>
        <pt x="667" y="552" on="1"/>
        <pt x="730" y="530" on="0"/>
        <pt x="828" y="503" on="0"/>
        <pt x="858" y="503" on="1"/>
        <pt x="871" y="503" on="0"/>
        <pt x="890" y="509" on="0"/>
        <pt x="894" y="515" on="1"/>
        <pt x="900" y="523" on="0"/>
        <pt x="911" y="523" on="1"/>
        <pt x="922" y="523" on="0"/>
        <pt x="922" y="515" on="1"/>
        <pt x="922" y="505" on="0"/>
        <pt x="908" y="491" on="1"/>
        <pt x="883" y="466" on="0"/>
        <pt x="836" y="466" on="1"/>
        <pt x="767" y="466" on="0"/>
        <pt x="657" y="518" on="1"/>
        <pt x="596" y="333" on="0"/>
        <pt x="592" y="319" on="1"/>
        <pt x="741" y="319" on="0"/>
        <pt x="763" y="309" on="1"/>
        <pt x="770" y="304" on="0"/>
        <pt x="763" y="296" on="0"/>
        <pt x="755" y="295" on="1"/>
        <pt x="752" y="295" on="0"/>
        <pt x="700" y="290" on="0"/>
        <pt x="617" y="284" on="0"/>
        <pt x="581" y="282" on="1"/>
        <pt x="537" y="121" on="0"/>
        <pt x="506" y="55" on="1"/>
        <pt x="441" y="-82" on="0"/>
        <pt x="329" y="-124" on="1"/>
        <pt x="303" y="-134" on="0"/>
        <pt x="268" y="-134" on="1"/>
        <pt x="218" y="-134" on="0"/>
        <pt x="124" y="-92" on="0"/>
        <pt x="99" y="-51" on="1"/>
        <pt x="79" y="-17" on="0"/>
        <pt x="60" y="58" on="0"/>
      </contour>
    </TTGlyph>
    <TTGlyph name="G" xMin="15" yMin="-358" xMax="853" yMax="644">
      <contour>
        <pt x="818" y="284" on="1"/>
        <pt x="853" y="284" on="0"/>
        <pt x="853" y="275" on="1"/>
        <pt x="853" y="265" on="0"/>
        <pt x="783" y="253" on="0"/>
        <pt x="758" y="253" on="1"/>
        <pt x="688" y="-5" on="0"/>
        <pt x="659" y="-67" on="1"/>
        <pt x="585" y="-224" on="0"/>
        <pt x="413" y="-358" on="0"/>
        <pt x="328" y="-358" on="1"/>
        <pt x="239" y="-358" on="0"/>
        <pt x="189" y="-296" on="1"/>
        <pt x="170" y="-273" on="0"/>
        <pt x="170" y="-252" on="1"/>
        <pt x="171" y="-242" on="0"/>
        <pt x="176" y="-241" on="1"/>
        <pt x="184" y="-241" on="0"/>
        <pt x="195" y="-256" on="1"/>
        <pt x="212" y="-279" on="0"/>
        <pt x="237" y="-305" on="0"/>
        <pt x="286" y="-331" on="0"/>
        <pt x="313" y="-331" on="1"/>
        <pt x="384" y="-331" on="0"/>
        <pt x="514" y="-233" on="0"/>
        <pt x="606" y="-81" on="0"/>
        <pt x="668" y="74" on="0"/>
        <pt x="684" y="145" on="1"/>
        <pt x="642" y="64" on="0"/>
        <pt x="408" y="-46" on="0"/>
        <pt x="289" y="-46" on="1"/>
        <pt x="163" y="-46" on="0"/>
        <pt x="15" y="99" on="0"/>
        <pt x="15" y="206" on="1"/>
        <pt x="15" y="269" on="0"/>
        <pt x="59" y="387" on="0"/>
        <pt x="136" y="482" on="0"/>
        <pt x="240" y="561" on="0"/>
        <pt x="359" y="614" on="0"/>
        <pt x="488" y="644" on="0"/>
        <pt x="551" y="644" on="1"/>
        <pt x="565" y="644" on="0"/>
        <pt x="579" y="643" on="1"/>
        <pt x="651" y="639" on="0"/>
        <pt x="742" y="603" on="0"/>
        <pt x="754" y="584" on="1"/>
        <pt x="760" y="574" on="0"/>
        <pt x="760" y="566" on="1"/>
        <pt x="760" y="562" on="0"/>
        <pt x="756" y="553" on="0"/>
        <pt x="751" y="548" on="0"/>
        <pt x="741" y="538" on="0"/>
        <pt x="739" y="535" on="1"/>
        <pt x="736" y="531" on="0"/>
        <pt x="728" y="518" on="0"/>
        <pt x="721" y="506" on="0"/>
        <pt x="713" y="495" on="0"/>
        <pt x="706" y="488" on="0"/>
        <pt x="703" y="488" on="1"/>
        <pt x="701" y="488" on="0"/>
        <pt x="698" y="490" on="0"/>
        <pt x="697" y="492" on="1"/>
        <pt x="697" y="493" on="1"/>
        <pt x="697" y="500" on="0"/>
        <pt x="711" y="529" on="0"/>
        <pt x="711" y="539" on="1"/>
        <pt x="711" y="554" on="0"/>
        <pt x="698" y="572" on="1"/>
        <pt x="667" y="615" on="0"/>
        <pt x="569" y="624" on="1"/>
        <pt x="557" y="625" on="0"/>
        <pt x="543" y="625" on="1"/>
        <pt x="518" y="625" on="0"/>
        <pt x="461" y="619" on="0"/>
        <pt x="392" y="602" on="0"/>
        <pt x="323" y="577" on="0"/>
        <pt x="251" y="536" on="0"/>
        <pt x="189" y="485" on="0"/>
        <pt x="131" y="412" on="0"/>
        <pt x="111" y="370" on="1"/>
        <pt x="71" y="286" on="0"/>
        <pt x="71" y="208" on="1"/>
        <pt x="71" y="110" on="0"/>
        <pt x="215" y="-13" on="0"/>
        <pt x="307" y="-13" on="1"/>
        <pt x="456" y="-13" on="0"/>
        <pt x="645" y="114" on="0"/>
        <pt x="709" y="248" on="1"/>
        <pt x="624" y="243" on="0"/>
        <pt x="437" y="243" on="1"/>
        <pt x="420" y="243" on="0"/>
        <pt x="399" y="264" on="0"/>
        <pt x="399" y="277" on="1"/>
        <pt x="399" y="290" on="0"/>
        <pt x="440" y="310" on="0"/>
        <pt x="455" y="310" on="1"/>
        <pt x="456" y="310" on="0"/>
        <pt x="457" y="310" on="1"/>
        <pt x="463" y="310" on="0"/>
        <pt x="464" y="306" on="1"/>
        <pt x="464" y="305" on="0"/>
        <pt x="463" y="304" on="1"/>
        <pt x="458" y="298" on="0"/>
        <pt x="455" y="290" on="0"/>
        <pt x="460" y="288" on="1"/>
        <pt x="471" y="288" on="0"/>
        <pt x="577" y="285" on="0"/>
        <pt x="722" y="284" on="0"/>
        <pt x="769" y="284" on="1"/>
        <pt x="801" y="284" on="0"/>
      </contour>
    </TTGlyph>
    <TTGlyph name="H" xMin="-8" yMin="-139" xMax="1021" yMax="689">
      <contour>
        <pt x="35" y="89" on="1"/>
        <pt x="35" y="100" on="0"/>
        <pt x="38" y="120" on="0"/>
        <pt x="44" y="133" on="0"/>
        <pt x="48" y="133" on="1"/>
        <pt x="56" y="133" on="0"/>
        <pt x="58" y="105" on="1"/>
        <pt x="58" y="91" on="0"/>
        <pt x="70" y="41" on="0"/>
        <pt x="98" y="-24" on="0"/>
        <pt x="138" y="-81" on="0"/>
        <pt x="203" y="-120" on="0"/>
        <pt x="240" y="-120" on="1"/>
        <pt x="247" y="-120" on="0"/>
        <pt x="253" y="-119" on="1"/>
        <pt x="300" y="-114" on="0"/>
        <pt x="391" y="-28" on="0"/>
        <pt x="456" y="95" on="0"/>
        <pt x="492" y="177" on="0"/>
        <pt x="501" y="207" on="1"/>
        <pt x="500" y="207" on="0"/>
        <pt x="489" y="206" on="0"/>
        <pt x="484" y="206" on="1"/>
        <pt x="469" y="206" on="0"/>
        <pt x="452" y="210" on="1"/>
        <pt x="443" y="214" on="0"/>
        <pt x="443" y="242" on="0"/>
        <pt x="452" y="242" on="1"/>
        <pt x="462" y="244" on="1"/>
        <pt x="472" y="246" on="0"/>
        <pt x="514" y="246" on="1"/>
        <pt x="526" y="283" on="0"/>
        <pt x="597" y="503" on="0"/>
        <pt x="607" y="533" on="1"/>
        <pt x="586" y="542" on="0"/>
        <pt x="380" y="613" on="0"/>
        <pt x="349" y="622" on="1"/>
        <pt x="308" y="634" on="0"/>
        <pt x="232" y="647" on="0"/>
        <pt x="198" y="647" on="1"/>
        <pt x="127" y="647" on="0"/>
        <pt x="44" y="592" on="0"/>
        <pt x="44" y="537" on="1"/>
        <pt x="44" y="475" on="0"/>
        <pt x="100" y="387" on="1"/>
        <pt x="135" y="333" on="0"/>
        <pt x="208" y="267" on="0"/>
        <pt x="297" y="217" on="0"/>
        <pt x="300" y="215" on="1"/>
        <pt x="308" y="210" on="0"/>
        <pt x="304" y="200" on="0"/>
        <pt x="294" y="203" on="1"/>
        <pt x="243" y="220" on="0"/>
        <pt x="97" y="328" on="0"/>
        <pt x="58" y="387" on="1"/>
        <pt x="-7" y="485" on="0"/>
        <pt x="-7" y="556" on="1"/>
        <pt x="-7" y="621" on="0"/>
        <pt x="99" y="688" on="0"/>
        <pt x="187" y="688" on="1"/>
        <pt x="285" y="688" on="0"/>
        <pt x="395" y="649" on="1"/>
        <pt x="409" y="644" on="0"/>
        <pt x="559" y="582" on="0"/>
        <pt x="688" y="537" on="0"/>
        <pt x="717" y="537" on="1"/>
        <pt x="725" y="537" on="0"/>
        <pt x="735" y="541" on="0"/>
        <pt x="737" y="544" on="1"/>
        <pt x="743" y="552" on="0"/>
        <pt x="754" y="552" on="1"/>
        <pt x="765" y="552" on="0"/>
        <pt x="765" y="544" on="1"/>
        <pt x="765" y="539" on="0"/>
        <pt x="758" y="528" on="0"/>
        <pt x="751" y="520" on="1"/>
        <pt x="737" y="506" on="0"/>
        <pt x="693" y="506" on="1"/>
        <pt x="656" y="506" on="0"/>
        <pt x="642" y="513" on="1"/>
        <pt x="635" y="493" on="0"/>
        <pt x="598" y="380" on="0"/>
        <pt x="564" y="279" on="0"/>
        <pt x="554" y="246" on="1"/>
        <pt x="734" y="246" on="0"/>
        <pt x="851" y="243" on="1"/>
        <pt x="931" y="473" on="1"/>
        <pt x="930" y="476" on="0"/>
        <pt x="928" y="483" on="0"/>
        <pt x="927" y="491" on="0"/>
        <pt x="927" y="494" on="1"/>
        <pt x="927" y="504" on="0"/>
        <pt x="933" y="528" on="0"/>
        <pt x="940" y="543" on="0"/>
        <pt x="948" y="558" on="0"/>
        <pt x="948" y="558" on="1"/>
        <pt x="953" y="572" on="0"/>
        <pt x="983" y="587" on="0"/>
        <pt x="998" y="587" on="1"/>
        <pt x="1005" y="587" on="0"/>
        <pt x="1015" y="584" on="0"/>
        <pt x="1021" y="579" on="0"/>
        <pt x="1021" y="576" on="1"/>
        <pt x="1021" y="572" on="0"/>
        <pt x="1016" y="567" on="1"/>
        <pt x="968" y="450" on="0"/>
        <pt x="897" y="241" on="1"/>
        <pt x="952" y="239" on="0"/>
        <pt x="964" y="236" on="1"/>
        <pt x="970" y="233" on="0"/>
        <pt x="970" y="230" on="1"/>
        <pt x="970" y="226" on="0"/>
        <pt x="952" y="222" on="0"/>
        <pt x="920" y="220" on="0"/>
        <pt x="902" y="220" on="0"/>
        <pt x="890" y="220" on="1"/>
        <pt x="829" y="33" on="0"/>
        <pt x="818" y="-69" on="1"/>
        <pt x="824" y="-69" on="0"/>
        <pt x="883" y="-22" on="0"/>
        <pt x="893" y="-8" on="1"/>
        <pt x="904" y="2" on="0"/>
        <pt x="912" y="2" on="1"/>
        <pt x="917" y="2" on="0"/>
        <pt x="917" y="-4" on="1"/>
        <pt x="917" y="-18" on="0"/>
        <pt x="891" y="-43" on="1"/>
        <pt x="824" y="-108" on="0"/>
        <pt x="797" y="-108" on="1"/>
        <pt x="769" y="-108" on="0"/>
        <pt x="769" y="-66" on="1"/>
        <pt x="769" y="-36" on="0"/>
        <pt x="797" y="68" on="0"/>
        <pt x="836" y="191" on="0"/>
        <pt x="843" y="218" on="1"/>
        <pt x="707" y="215" on="0"/>
        <pt x="541" y="209" on="1"/>
        <pt x="468" y="-68" on="0"/>
        <pt x="304" y="-129" on="1"/>
        <pt x="278" y="-139" on="0"/>
        <pt x="243" y="-139" on="1"/>
        <pt x="193" y="-139" on="0"/>
        <pt x="99" y="-97" on="0"/>
        <pt x="74" y="-56" on="1"/>
        <pt x="35" y="9" on="0"/>
      </contour>
    </TTGlyph>
    <TTGlyph name="I" xMin="9" yMin="-67" xMax="594" yMax="643">
      <contour>
        <pt x="414" y="587" on="1"/>
        <pt x="411" y="587" on="0"/>
        <pt x="306" y="607" on="0"/>
        <pt x="282" y="607" on="1"/>
        <pt x="254" y="607" on="0"/>
        <pt x="212" y="593" on="0"/>
        <pt x="188" y="566" on="0"/>
        <pt x="188" y="548" on="1"/>
        <pt x="188" y="510" on="0"/>
        <pt x="235" y="463" on="1"/>
        <pt x="238" y="460" on="0"/>
        <pt x="243" y="453" on="0"/>
        <pt x="246" y="446" on="0"/>
        <pt x="246" y="444" on="1"/>
        <pt x="246" y="442" on="0"/>
        <pt x="245" y="441" on="0"/>
        <pt x="243" y="441" on="1"/>
        <pt x="236" y="441" on="0"/>
        <pt x="216" y="459" on="1"/>
        <pt x="162" y="509" on="0"/>
        <pt x="162" y="555" on="1"/>
        <pt x="162" y="594" on="0"/>
        <pt x="236" y="642" on="0"/>
        <pt x="298" y="642" on="1"/>
        <pt x="311" y="642" on="0"/>
        <pt x="340" y="640" on="0"/>
        <pt x="355" y="637" on="1"/>
        <pt x="360" y="636" on="0"/>
        <pt x="441" y="620" on="0"/>
        <pt x="519" y="608" on="0"/>
        <pt x="545" y="608" on="1"/>
        <pt x="575" y="608" on="0"/>
        <pt x="582" y="617" on="1"/>
        <pt x="585" y="620" on="0"/>
        <pt x="588" y="621" on="1"/>
        <pt x="594" y="621" on="0"/>
        <pt x="594" y="613" on="1"/>
        <pt x="594" y="610" on="0"/>
        <pt x="591" y="602" on="0"/>
        <pt x="583" y="591" on="0"/>
        <pt x="577" y="586" on="1"/>
        <pt x="569" y="579" on="0"/>
        <pt x="545" y="572" on="0"/>
        <pt x="528" y="572" on="1"/>
        <pt x="508" y="572" on="0"/>
        <pt x="453" y="581" on="1"/>
        <pt x="451" y="576" on="0"/>
        <pt x="407" y="419" on="0"/>
        <pt x="375" y="325" on="0"/>
        <pt x="319" y="175" on="0"/>
        <pt x="251" y="57" on="0"/>
        <pt x="213" y="15" on="1"/>
        <pt x="309" y="-28" on="0"/>
        <pt x="388" y="-28" on="1"/>
        <pt x="448" y="-28" on="0"/>
        <pt x="448" y="0" on="1"/>
        <pt x="448" y="8" on="0"/>
        <pt x="440" y="26" on="0"/>
        <pt x="432" y="41" on="0"/>
        <pt x="432" y="43" on="1"/>
        <pt x="432" y="47" on="0"/>
        <pt x="436" y="54" on="0"/>
        <pt x="439" y="53" on="1"/>
        <pt x="447" y="50" on="0"/>
        <pt x="459" y="20" on="0"/>
        <pt x="459" y="2" on="1"/>
        <pt x="459" y="-27" on="0"/>
        <pt x="423" y="-67" on="0"/>
        <pt x="383" y="-67" on="1"/>
        <pt x="345" y="-67" on="0"/>
        <pt x="228" y="-35" on="0"/>
        <pt x="188" y="-17" on="1"/>
        <pt x="142" y="-58" on="0"/>
        <pt x="79" y="-58" on="1"/>
        <pt x="49" y="-58" on="0"/>
        <pt x="9" y="-35" on="0"/>
        <pt x="9" y="-14" on="1"/>
        <pt x="9" y="10" on="0"/>
        <pt x="56" y="54" on="0"/>
        <pt x="89" y="54" on="1"/>
        <pt x="123" y="54" on="0"/>
        <pt x="185" y="27" on="1"/>
        <pt x="227" y="78" on="0"/>
        <pt x="307" y="251" on="0"/>
        <pt x="353" y="387" on="0"/>
        <pt x="408" y="568" on="0"/>
      </contour>
      <contour>
        <pt x="162" y="-5" on="1"/>
        <pt x="147" y="2" on="0"/>
        <pt x="83" y="22" on="0"/>
        <pt x="59" y="22" on="1"/>
        <pt x="25" y="22" on="0"/>
        <pt x="25" y="-2" on="1"/>
        <pt x="25" y="-21" on="0"/>
        <pt x="55" y="-44" on="0"/>
        <pt x="78" y="-44" on="1"/>
        <pt x="123" y="-43" on="0"/>
      </contour>
    </TTGlyph>
    <TTGlyph name="Iacute" xMin="9" yMin="-67" xMax="594" yMax="839">
      <contour>
        <pt x="414" y="587" on="1"/>
        <pt x="411" y="587" on="0"/>
        <pt x="306" y="607" on="0"/>
        <pt x="282" y="607" on="1"/>
        <pt x="254" y="607" on="0"/>
        <pt x="212" y="593" on="0"/>
        <pt x="188" y="566" on="0"/>
        <pt x="188" y="548" on="1"/>
        <pt x="188" y="510" on="0"/>
        <pt x="235" y="463" on="1"/>
        <pt x="238" y="460" on="0"/>
        <pt x="243" y="453" on="0"/>
        <pt x="246" y="446" on="0"/>
        <pt x="246" y="444" on="1"/>
        <pt x="246" y="442" on="0"/>
        <pt x="245" y="441" on="0"/>
        <pt x="243" y="441" on="1"/>
        <pt x="236" y="441" on="0"/>
        <pt x="216" y="459" on="1"/>
        <pt x="162" y="509" on="0"/>
        <pt x="162" y="555" on="1"/>
        <pt x="162" y="594" on="0"/>
        <pt x="236" y="642" on="0"/>
        <pt x="298" y="642" on="1"/>
        <pt x="311" y="642" on="0"/>
        <pt x="340" y="640" on="0"/>
        <pt x="355" y="637" on="1"/>
        <pt x="360" y="636" on="0"/>
        <pt x="441" y="620" on="0"/>
        <pt x="519" y="608" on="0"/>
        <pt x="545" y="608" on="1"/>
        <pt x="575" y="608" on="0"/>
        <pt x="582" y="617" on="1"/>
        <pt x="585" y="620" on="0"/>
        <pt x="588" y="621" on="1"/>
        <pt x="594" y="621" on="0"/>
        <pt x="594" y="613" on="1"/>
        <pt x="594" y="610" on="0"/>
        <pt x="591" y="602" on="0"/>
        <pt x="583" y="591" on="0"/>
        <pt x="577" y="586" on="1"/>
        <pt x="569" y="579" on="0"/>
        <pt x="545" y="572" on="0"/>
        <pt x="528" y="572" on="1"/>
        <pt x="508" y="572" on="0"/>
        <pt x="453" y="581" on="1"/>
        <pt x="451" y="576" on="0"/>
        <pt x="407" y="419" on="0"/>
        <pt x="375" y="325" on="0"/>
        <pt x="319" y="175" on="0"/>
        <pt x="251" y="57" on="0"/>
        <pt x="213" y="15" on="1"/>
        <pt x="309" y="-28" on="0"/>
        <pt x="388" y="-28" on="1"/>
        <pt x="448" y="-28" on="0"/>
        <pt x="448" y="0" on="1"/>
        <pt x="448" y="8" on="0"/>
        <pt x="440" y="26" on="0"/>
        <pt x="432" y="41" on="0"/>
        <pt x="432" y="43" on="1"/>
        <pt x="432" y="47" on="0"/>
        <pt x="436" y="54" on="0"/>
        <pt x="439" y="53" on="1"/>
        <pt x="447" y="50" on="0"/>
        <pt x="459" y="20" on="0"/>
        <pt x="459" y="2" on="1"/>
        <pt x="459" y="-27" on="0"/>
        <pt x="423" y="-67" on="0"/>
        <pt x="383" y="-67" on="1"/>
        <pt x="345" y="-67" on="0"/>
        <pt x="228" y="-35" on="0"/>
        <pt x="188" y="-17" on="1"/>
        <pt x="142" y="-58" on="0"/>
        <pt x="79" y="-58" on="1"/>
        <pt x="49" y="-58" on="0"/>
        <pt x="9" y="-35" on="0"/>
        <pt x="9" y="-14" on="1"/>
        <pt x="9" y="10" on="0"/>
        <pt x="56" y="54" on="0"/>
        <pt x="89" y="54" on="1"/>
        <pt x="123" y="54" on="0"/>
        <pt x="185" y="27" on="1"/>
        <pt x="227" y="78" on="0"/>
        <pt x="307" y="251" on="0"/>
        <pt x="353" y="387" on="0"/>
        <pt x="408" y="568" on="0"/>
      </contour>
      <contour>
        <pt x="162" y="-5" on="1"/>
        <pt x="147" y="2" on="0"/>
        <pt x="83" y="22" on="0"/>
        <pt x="59" y="22" on="1"/>
        <pt x="25" y="22" on="0"/>
        <pt x="25" y="-2" on="1"/>
        <pt x="25" y="-21" on="0"/>
        <pt x="55" y="-44" on="0"/>
        <pt x="78" y="-44" on="1"/>
        <pt x="123" y="-43" on="0"/>
      </contour>
      <contour>
        <pt x="578" y="800" on="1"/>
        <pt x="556" y="786" on="0"/>
        <pt x="489" y="730" on="0"/>
        <pt x="437" y="692" on="0"/>
        <pt x="420" y="688" on="1"/>
        <pt x="417" y="688" on="1"/>
        <pt x="414" y="688" on="0"/>
        <pt x="414" y="690" on="1"/>
        <pt x="414" y="708" on="0"/>
        <pt x="548" y="834" on="1"/>
        <pt x="551" y="837" on="0"/>
        <pt x="557" y="839" on="0"/>
        <pt x="560" y="839" on="1"/>
        <pt x="569" y="839" on="0"/>
        <pt x="584" y="821" on="0"/>
        <pt x="584" y="812" on="1"/>
        <pt x="584" y="808" on="0"/>
        <pt x="581" y="802" on="0"/>
      </contour>
    </TTGlyph>
    <TTGlyph name="Icircumflex" xMin="9" yMin="-67" xMax="594" yMax="837">
      <contour>
        <pt x="414" y="587" on="1"/>
        <pt x="411" y="587" on="0"/>
        <pt x="306" y="607" on="0"/>
        <pt x="282" y="607" on="1"/>
        <pt x="254" y="607" on="0"/>
        <pt x="212" y="593" on="0"/>
        <pt x="188" y="566" on="0"/>
        <pt x="188" y="548" on="1"/>
        <pt x="188" y="510" on="0"/>
        <pt x="235" y="463" on="1"/>
        <pt x="238" y="460" on="0"/>
        <pt x="243" y="453" on="0"/>
        <pt x="246" y="446" on="0"/>
        <pt x="246" y="444" on="1"/>
        <pt x="246" y="442" on="0"/>
        <pt x="245" y="441" on="0"/>
        <pt x="243" y="441" on="1"/>
        <pt x="236" y="441" on="0"/>
        <pt x="216" y="459" on="1"/>
        <pt x="162" y="509" on="0"/>
        <pt x="162" y="555" on="1"/>
        <pt x="162" y="594" on="0"/>
        <pt x="236" y="642" on="0"/>
        <pt x="298" y="642" on="1"/>
        <pt x="311" y="642" on="0"/>
        <pt x="340" y="640" on="0"/>
        <pt x="355" y="637" on="1"/>
        <pt x="360" y="636" on="0"/>
        <pt x="441" y="620" on="0"/>
        <pt x="519" y="608" on="0"/>
        <pt x="545" y="608" on="1"/>
        <pt x="575" y="608" on="0"/>
        <pt x="582" y="617" on="1"/>
        <pt x="585" y="620" on="0"/>
        <pt x="588" y="621" on="1"/>
        <pt x="594" y="621" on="0"/>
        <pt x="594" y="613" on="1"/>
        <pt x="594" y="610" on="0"/>
        <pt x="591" y="602" on="0"/>
        <pt x="583" y="591" on="0"/>
        <pt x="577" y="586" on="1"/>
        <pt x="569" y="579" on="0"/>
        <pt x="545" y="572" on="0"/>
        <pt x="528" y="572" on="1"/>
        <pt x="508" y="572" on="0"/>
        <pt x="453" y="581" on="1"/>
        <pt x="451" y="576" on="0"/>
        <pt x="407" y="419" on="0"/>
        <pt x="375" y="325" on="0"/>
        <pt x="319" y="175" on="0"/>
        <pt x="251" y="57" on="0"/>
        <pt x="213" y="15" on="1"/>
        <pt x="309" y="-28" on="0"/>
        <pt x="388" y="-28" on="1"/>
        <pt x="448" y="-28" on="0"/>
        <pt x="448" y="0" on="1"/>
        <pt x="448" y="8" on="0"/>
        <pt x="440" y="26" on="0"/>
        <pt x="432" y="41" on="0"/>
        <pt x="432" y="43" on="1"/>
        <pt x="432" y="47" on="0"/>
        <pt x="436" y="54" on="0"/>
        <pt x="439" y="53" on="1"/>
        <pt x="447" y="50" on="0"/>
        <pt x="459" y="20" on="0"/>
        <pt x="459" y="2" on="1"/>
        <pt x="459" y="-27" on="0"/>
        <pt x="423" y="-67" on="0"/>
        <pt x="383" y="-67" on="1"/>
        <pt x="345" y="-67" on="0"/>
        <pt x="228" y="-35" on="0"/>
        <pt x="188" y="-17" on="1"/>
        <pt x="142" y="-58" on="0"/>
        <pt x="79" y="-58" on="1"/>
        <pt x="49" y="-58" on="0"/>
        <pt x="9" y="-35" on="0"/>
        <pt x="9" y="-14" on="1"/>
        <pt x="9" y="10" on="0"/>
        <pt x="56" y="54" on="0"/>
        <pt x="89" y="54" on="1"/>
        <pt x="123" y="54" on="0"/>
        <pt x="185" y="27" on="1"/>
        <pt x="227" y="78" on="0"/>
        <pt x="307" y="251" on="0"/>
        <pt x="353" y="387" on="0"/>
        <pt x="408" y="568" on="0"/>
      </contour>
      <contour>
        <pt x="162" y="-5" on="1"/>
        <pt x="147" y="2" on="0"/>
        <pt x="83" y="22" on="0"/>
        <pt x="59" y="22" on="1"/>
        <pt x="25" y="22" on="0"/>
        <pt x="25" y="-2" on="1"/>
        <pt x="25" y="-21" on="0"/>
        <pt x="55" y="-44" on="0"/>
        <pt x="78" y="-44" on="1"/>
        <pt x="123" y="-43" on="0"/>
      </contour>
      <contour>
        <pt x="558" y="714" on="1"/>
        <pt x="545" y="725" on="0"/>
        <pt x="490" y="785" on="0"/>
        <pt x="480" y="800" on="1"/>
        <pt x="467" y="788" on="0"/>
        <pt x="381" y="719" on="0"/>
        <pt x="372" y="714" on="1"/>
        <pt x="369" y="712" on="0"/>
        <pt x="367" y="712" on="1"/>
        <pt x="364" y="712" on="0"/>
        <pt x="364" y="715" on="1"/>
        <pt x="364" y="716" on="0"/>
        <pt x="366" y="721" on="0"/>
        <pt x="368" y="724" on="1"/>
        <pt x="378" y="736" on="0"/>
        <pt x="484" y="835" on="0"/>
        <pt x="493" y="837" on="1"/>
        <pt x="498" y="835" on="0"/>
        <pt x="556" y="744" on="0"/>
        <pt x="565" y="727" on="1"/>
        <pt x="566" y="724" on="0"/>
        <pt x="566" y="720" on="1"/>
        <pt x="566" y="718" on="0"/>
        <pt x="565" y="715" on="0"/>
        <pt x="563" y="713" on="0"/>
        <pt x="561" y="713" on="1"/>
        <pt x="561" y="713" on="0"/>
        <pt x="559" y="713" on="0"/>
      </contour>
    </TTGlyph>
    <TTGlyph name="Idieresis" xMin="9" yMin="-67" xMax="594" yMax="818">
      <contour>
        <pt x="414" y="587" on="1"/>
        <pt x="411" y="587" on="0"/>
        <pt x="306" y="607" on="0"/>
        <pt x="282" y="607" on="1"/>
        <pt x="254" y="607" on="0"/>
        <pt x="212" y="593" on="0"/>
        <pt x="188" y="566" on="0"/>
        <pt x="188" y="548" on="1"/>
        <pt x="188" y="510" on="0"/>
        <pt x="235" y="463" on="1"/>
        <pt x="238" y="460" on="0"/>
        <pt x="243" y="453" on="0"/>
        <pt x="246" y="446" on="0"/>
        <pt x="246" y="444" on="1"/>
        <pt x="246" y="442" on="0"/>
        <pt x="245" y="441" on="0"/>
        <pt x="243" y="441" on="1"/>
        <pt x="236" y="441" on="0"/>
        <pt x="216" y="459" on="1"/>
        <pt x="162" y="509" on="0"/>
        <pt x="162" y="555" on="1"/>
        <pt x="162" y="594" on="0"/>
        <pt x="236" y="642" on="0"/>
        <pt x="298" y="642" on="1"/>
        <pt x="311" y="642" on="0"/>
        <pt x="340" y="640" on="0"/>
        <pt x="355" y="637" on="1"/>
        <pt x="360" y="636" on="0"/>
        <pt x="441" y="620" on="0"/>
        <pt x="519" y="608" on="0"/>
        <pt x="545" y="608" on="1"/>
        <pt x="575" y="608" on="0"/>
        <pt x="582" y="617" on="1"/>
        <pt x="585" y="620" on="0"/>
        <pt x="588" y="621" on="1"/>
        <pt x="594" y="621" on="0"/>
        <pt x="594" y="613" on="1"/>
        <pt x="594" y="610" on="0"/>
        <pt x="591" y="602" on="0"/>
        <pt x="583" y="591" on="0"/>
        <pt x="577" y="586" on="1"/>
        <pt x="569" y="579" on="0"/>
        <pt x="545" y="572" on="0"/>
        <pt x="528" y="572" on="1"/>
        <pt x="508" y="572" on="0"/>
        <pt x="453" y="581" on="1"/>
        <pt x="451" y="576" on="0"/>
        <pt x="407" y="419" on="0"/>
        <pt x="375" y="325" on="0"/>
        <pt x="319" y="175" on="0"/>
        <pt x="251" y="57" on="0"/>
        <pt x="213" y="15" on="1"/>
        <pt x="309" y="-28" on="0"/>
        <pt x="388" y="-28" on="1"/>
        <pt x="448" y="-28" on="0"/>
        <pt x="448" y="0" on="1"/>
        <pt x="448" y="8" on="0"/>
        <pt x="440" y="26" on="0"/>
        <pt x="432" y="41" on="0"/>
        <pt x="432" y="43" on="1"/>
        <pt x="432" y="47" on="0"/>
        <pt x="436" y="54" on="0"/>
        <pt x="439" y="53" on="1"/>
        <pt x="447" y="50" on="0"/>
        <pt x="459" y="20" on="0"/>
        <pt x="459" y="2" on="1"/>
        <pt x="459" y="-27" on="0"/>
        <pt x="423" y="-67" on="0"/>
        <pt x="383" y="-67" on="1"/>
        <pt x="345" y="-67" on="0"/>
        <pt x="228" y="-35" on="0"/>
        <pt x="188" y="-17" on="1"/>
        <pt x="142" y="-58" on="0"/>
        <pt x="79" y="-58" on="1"/>
        <pt x="49" y="-58" on="0"/>
        <pt x="9" y="-35" on="0"/>
        <pt x="9" y="-14" on="1"/>
        <pt x="9" y="10" on="0"/>
        <pt x="56" y="54" on="0"/>
        <pt x="89" y="54" on="1"/>
        <pt x="123" y="54" on="0"/>
        <pt x="185" y="27" on="1"/>
        <pt x="227" y="78" on="0"/>
        <pt x="307" y="251" on="0"/>
        <pt x="353" y="387" on="0"/>
        <pt x="408" y="568" on="0"/>
      </contour>
      <contour>
        <pt x="162" y="-5" on="1"/>
        <pt x="147" y="2" on="0"/>
        <pt x="83" y="22" on="0"/>
        <pt x="59" y="22" on="1"/>
        <pt x="25" y="22" on="0"/>
        <pt x="25" y="-2" on="1"/>
        <pt x="25" y="-21" on="0"/>
        <pt x="55" y="-44" on="0"/>
        <pt x="78" y="-44" on="1"/>
        <pt x="123" y="-43" on="0"/>
      </contour>
      <contour>
        <pt x="562" y="749" on="1"/>
        <pt x="562" y="738" on="0"/>
        <pt x="540" y="724" on="0"/>
        <pt x="528" y="724" on="1"/>
        <pt x="509" y="724" on="0"/>
        <pt x="509" y="756" on="1"/>
        <pt x="509" y="760" on="0"/>
        <pt x="509" y="765" on="1"/>
        <pt x="509" y="774" on="0"/>
        <pt x="524" y="794" on="0"/>
        <pt x="543" y="808" on="0"/>
        <pt x="563" y="817" on="0"/>
        <pt x="570" y="817" on="1"/>
        <pt x="575" y="817" on="0"/>
        <pt x="576" y="814" on="1"/>
        <pt x="576" y="802" on="0"/>
        <pt x="562" y="751" on="0"/>
      </contour>
      <contour>
        <pt x="410" y="749" on="1"/>
        <pt x="410" y="738" on="0"/>
        <pt x="388" y="724" on="0"/>
        <pt x="376" y="724" on="1"/>
        <pt x="357" y="724" on="0"/>
        <pt x="357" y="756" on="1"/>
        <pt x="357" y="760" on="0"/>
        <pt x="357" y="765" on="1"/>
        <pt x="358" y="783" on="0"/>
        <pt x="403" y="817" on="0"/>
        <pt x="418" y="817" on="1"/>
        <pt x="423" y="817" on="0"/>
        <pt x="424" y="814" on="1"/>
        <pt x="424" y="802" on="0"/>
        <pt x="410" y="751" on="0"/>
      </contour>
    </TTGlyph>
    <TTGlyph name="Igrave" xMin="9" yMin="-67" xMax="594" yMax="827">
      <contour>
        <pt x="414" y="587" on="1"/>
        <pt x="411" y="587" on="0"/>
        <pt x="306" y="607" on="0"/>
        <pt x="282" y="607" on="1"/>
        <pt x="254" y="607" on="0"/>
        <pt x="212" y="593" on="0"/>
        <pt x="188" y="566" on="0"/>
        <pt x="188" y="548" on="1"/>
        <pt x="188" y="510" on="0"/>
        <pt x="235" y="463" on="1"/>
        <pt x="238" y="460" on="0"/>
        <pt x="243" y="453" on="0"/>
        <pt x="246" y="446" on="0"/>
        <pt x="246" y="444" on="1"/>
        <pt x="246" y="442" on="0"/>
        <pt x="245" y="441" on="0"/>
        <pt x="243" y="441" on="1"/>
        <pt x="236" y="441" on="0"/>
        <pt x="216" y="459" on="1"/>
        <pt x="162" y="509" on="0"/>
        <pt x="162" y="555" on="1"/>
        <pt x="162" y="594" on="0"/>
        <pt x="236" y="642" on="0"/>
        <pt x="298" y="642" on="1"/>
        <pt x="311" y="642" on="0"/>
        <pt x="340" y="640" on="0"/>
        <pt x="355" y="637" on="1"/>
        <pt x="360" y="636" on="0"/>
        <pt x="441" y="620" on="0"/>
        <pt x="519" y="608" on="0"/>
        <pt x="545" y="608" on="1"/>
        <pt x="575" y="608" on="0"/>
        <pt x="582" y="617" on="1"/>
        <pt x="585" y="620" on="0"/>
        <pt x="588" y="621" on="1"/>
        <pt x="594" y="621" on="0"/>
        <pt x="594" y="613" on="1"/>
        <pt x="594" y="610" on="0"/>
        <pt x="591" y="602" on="0"/>
        <pt x="583" y="591" on="0"/>
        <pt x="577" y="586" on="1"/>
        <pt x="569" y="579" on="0"/>
        <pt x="545" y="572" on="0"/>
        <pt x="528" y="572" on="1"/>
        <pt x="508" y="572" on="0"/>
        <pt x="453" y="581" on="1"/>
        <pt x="451" y="576" on="0"/>
        <pt x="407" y="419" on="0"/>
        <pt x="375" y="325" on="0"/>
        <pt x="319" y="175" on="0"/>
        <pt x="251" y="57" on="0"/>
        <pt x="213" y="15" on="1"/>
        <pt x="309" y="-28" on="0"/>
        <pt x="388" y="-28" on="1"/>
        <pt x="448" y="-28" on="0"/>
        <pt x="448" y="0" on="1"/>
        <pt x="448" y="8" on="0"/>
        <pt x="440" y="26" on="0"/>
        <pt x="432" y="41" on="0"/>
        <pt x="432" y="43" on="1"/>
        <pt x="432" y="47" on="0"/>
        <pt x="436" y="54" on="0"/>
        <pt x="439" y="53" on="1"/>
        <pt x="447" y="50" on="0"/>
        <pt x="459" y="20" on="0"/>
        <pt x="459" y="2" on="1"/>
        <pt x="459" y="-27" on="0"/>
        <pt x="423" y="-67" on="0"/>
        <pt x="383" y="-67" on="1"/>
        <pt x="345" y="-67" on="0"/>
        <pt x="228" y="-35" on="0"/>
        <pt x="188" y="-17" on="1"/>
        <pt x="142" y="-58" on="0"/>
        <pt x="79" y="-58" on="1"/>
        <pt x="49" y="-58" on="0"/>
        <pt x="9" y="-35" on="0"/>
        <pt x="9" y="-14" on="1"/>
        <pt x="9" y="10" on="0"/>
        <pt x="56" y="54" on="0"/>
        <pt x="89" y="54" on="1"/>
        <pt x="123" y="54" on="0"/>
        <pt x="185" y="27" on="1"/>
        <pt x="227" y="78" on="0"/>
        <pt x="307" y="251" on="0"/>
        <pt x="353" y="387" on="0"/>
        <pt x="408" y="568" on="0"/>
      </contour>
      <contour>
        <pt x="162" y="-5" on="1"/>
        <pt x="147" y="2" on="0"/>
        <pt x="83" y="22" on="0"/>
        <pt x="59" y="22" on="1"/>
        <pt x="25" y="22" on="0"/>
        <pt x="25" y="-2" on="1"/>
        <pt x="25" y="-21" on="0"/>
        <pt x="55" y="-44" on="0"/>
        <pt x="78" y="-44" on="1"/>
        <pt x="123" y="-43" on="0"/>
      </contour>
      <contour>
        <pt x="541" y="708" on="1"/>
        <pt x="543" y="706" on="0"/>
        <pt x="543" y="704" on="1"/>
        <pt x="543" y="703" on="0"/>
        <pt x="541" y="702" on="0"/>
        <pt x="539" y="702" on="1"/>
        <pt x="525" y="702" on="0"/>
        <pt x="418" y="755" on="0"/>
        <pt x="363" y="785" on="1"/>
        <pt x="354" y="790" on="0"/>
        <pt x="354" y="800" on="1"/>
        <pt x="354" y="804" on="0"/>
        <pt x="358" y="814" on="0"/>
        <pt x="365" y="822" on="0"/>
        <pt x="374" y="827" on="0"/>
        <pt x="383" y="827" on="0"/>
        <pt x="386" y="824" on="1"/>
        <pt x="406" y="808" on="0"/>
        <pt x="480" y="761" on="0"/>
        <pt x="532" y="723" on="0"/>
      </contour>
    </TTGlyph>
    <TTGlyph name="J" xMin="4" yMin="-258" xMax="790" yMax="659">
      <contour>
        <pt x="623" y="579" on="1"/>
        <pt x="600" y="581" on="0"/>
        <pt x="399" y="614" on="0"/>
        <pt x="358" y="614" on="1"/>
        <pt x="267" y="614" on="0"/>
        <pt x="267" y="569" on="1"/>
        <pt x="267" y="538" on="0"/>
        <pt x="358" y="443" on="0"/>
        <pt x="438" y="393" on="1"/>
        <pt x="444" y="390" on="0"/>
        <pt x="441" y="386" on="1"/>
        <pt x="439" y="383" on="0"/>
        <pt x="433" y="384" on="1"/>
        <pt x="350" y="404" on="0"/>
        <pt x="250" y="506" on="0"/>
        <pt x="250" y="559" on="1"/>
        <pt x="250" y="573" on="0"/>
        <pt x="257" y="598" on="0"/>
        <pt x="272" y="620" on="0"/>
        <pt x="297" y="638" on="0"/>
        <pt x="328" y="651" on="0"/>
        <pt x="370" y="658" on="0"/>
        <pt x="395" y="658" on="1"/>
        <pt x="410" y="658" on="0"/>
        <pt x="441" y="656" on="0"/>
        <pt x="477" y="650" on="0"/>
        <pt x="496" y="646" on="1"/>
        <pt x="499" y="645" on="0"/>
        <pt x="569" y="629" on="0"/>
        <pt x="621" y="618" on="0"/>
        <pt x="694" y="608" on="0"/>
        <pt x="718" y="608" on="1"/>
        <pt x="738" y="608" on="0"/>
        <pt x="765" y="615" on="0"/>
        <pt x="771" y="622" on="1"/>
        <pt x="772" y="624" on="0"/>
        <pt x="775" y="626" on="0"/>
        <pt x="778" y="628" on="0"/>
        <pt x="781" y="629" on="0"/>
        <pt x="782" y="629" on="1"/>
        <pt x="784" y="629" on="0"/>
        <pt x="787" y="627" on="0"/>
        <pt x="789" y="623" on="0"/>
        <pt x="789" y="620" on="1"/>
        <pt x="789" y="606" on="0"/>
        <pt x="768" y="584" on="1"/>
        <pt x="752" y="568" on="0"/>
        <pt x="712" y="568" on="1"/>
        <pt x="687" y="568" on="0"/>
        <pt x="662" y="573" on="1"/>
        <pt x="659" y="564" on="0"/>
        <pt x="649" y="531" on="1"/>
        <pt x="419" y="-257" on="0"/>
        <pt x="191" y="-257" on="1"/>
        <pt x="113" y="-257" on="0"/>
        <pt x="44" y="-159" on="1"/>
        <pt x="5" y="-104" on="0"/>
        <pt x="5" y="-18" on="1"/>
        <pt x="5" y="0" on="0"/>
        <pt x="12" y="30" on="0"/>
        <pt x="18" y="30" on="1"/>
        <pt x="25" y="30" on="0"/>
        <pt x="28" y="4" on="1"/>
        <pt x="28" y="3" on="0"/>
        <pt x="28" y="2" on="1"/>
        <pt x="28" y="-6" on="0"/>
        <pt x="33" y="-33" on="0"/>
        <pt x="42" y="-68" on="0"/>
        <pt x="59" y="-107" on="0"/>
        <pt x="79" y="-145" on="0"/>
        <pt x="108" y="-180" on="0"/>
        <pt x="142" y="-207" on="0"/>
        <pt x="185" y="-223" on="0"/>
        <pt x="209" y="-223" on="1"/>
        <pt x="213" y="-223" on="0"/>
        <pt x="220" y="-222" on="0"/>
        <pt x="223" y="-222" on="1"/>
        <pt x="258" y="-219" on="0"/>
        <pt x="334" y="-143" on="0"/>
        <pt x="406" y="-12" on="0"/>
        <pt x="470" y="128" on="0"/>
        <pt x="534" y="305" on="0"/>
        <pt x="575" y="426" on="0"/>
        <pt x="619" y="567" on="0"/>
      </contour>
    </TTGlyph>
    <TTGlyph name="K" xMin="-2" yMin="-139" xMax="1018" yMax="683">
      <contour>
        <pt x="1005" y="596" on="1"/>
        <pt x="1008" y="596" on="0"/>
        <pt x="1012" y="594" on="0"/>
        <pt x="1016" y="591" on="0"/>
        <pt x="1018" y="587" on="0"/>
        <pt x="1018" y="584" on="1"/>
        <pt x="1018" y="558" on="0"/>
        <pt x="865" y="417" on="0"/>
        <pt x="763" y="347" on="1"/>
        <pt x="655" y="273" on="0"/>
        <pt x="555" y="233" on="1"/>
        <pt x="536" y="180" on="1"/>
        <pt x="555" y="162" on="0"/>
        <pt x="650" y="70" on="0"/>
        <pt x="708" y="17" on="0"/>
        <pt x="788" y="-50" on="0"/>
        <pt x="851" y="-84" on="0"/>
        <pt x="875" y="-86" on="1"/>
        <pt x="878" y="-86" on="1"/>
        <pt x="902" y="-86" on="0"/>
        <pt x="923" y="-24" on="0"/>
        <pt x="923" y="18" on="1"/>
        <pt x="923" y="28" on="0"/>
        <pt x="920" y="57" on="0"/>
        <pt x="920" y="64" on="1"/>
        <pt x="920" y="70" on="0"/>
        <pt x="923" y="76" on="0"/>
        <pt x="926" y="76" on="1"/>
        <pt x="931" y="76" on="0"/>
        <pt x="941" y="62" on="0"/>
        <pt x="941" y="54" on="1"/>
        <pt x="941" y="50" on="0"/>
        <pt x="942" y="42" on="0"/>
        <pt x="942" y="35" on="0"/>
        <pt x="942" y="27" on="0"/>
        <pt x="942" y="24" on="1"/>
        <pt x="942" y="-50" on="0"/>
        <pt x="889" y="-118" on="0"/>
        <pt x="856" y="-118" on="1"/>
        <pt x="804" y="-118" on="0"/>
        <pt x="617" y="40" on="0"/>
        <pt x="523" y="148" on="1"/>
        <pt x="429" y="-86" on="0"/>
        <pt x="314" y="-129" on="1"/>
        <pt x="288" y="-139" on="0"/>
        <pt x="253" y="-139" on="1"/>
        <pt x="203" y="-139" on="0"/>
        <pt x="109" y="-97" on="0"/>
        <pt x="84" y="-56" on="1"/>
        <pt x="45" y="9" on="0"/>
        <pt x="45" y="89" on="1"/>
        <pt x="45" y="100" on="0"/>
        <pt x="48" y="120" on="0"/>
        <pt x="54" y="133" on="0"/>
        <pt x="58" y="133" on="1"/>
        <pt x="66" y="133" on="0"/>
        <pt x="68" y="105" on="1"/>
        <pt x="68" y="91" on="0"/>
        <pt x="80" y="41" on="0"/>
        <pt x="108" y="-24" on="0"/>
        <pt x="148" y="-81" on="0"/>
        <pt x="213" y="-120" on="0"/>
        <pt x="250" y="-120" on="1"/>
        <pt x="253" y="-120" on="0"/>
        <pt x="260" y="-119" on="0"/>
        <pt x="263" y="-119" on="1"/>
        <pt x="388" y="-108" on="0"/>
        <pt x="496" y="178" on="1"/>
        <pt x="492" y="182" on="0"/>
        <pt x="468" y="205" on="0"/>
        <pt x="455" y="218" on="0"/>
        <pt x="438" y="237" on="0"/>
        <pt x="430" y="250" on="0"/>
        <pt x="430" y="254" on="1"/>
        <pt x="430" y="259" on="0"/>
        <pt x="439" y="259" on="1"/>
        <pt x="453" y="246" on="0"/>
        <pt x="478" y="246" on="1"/>
        <pt x="497" y="246" on="0"/>
        <pt x="522" y="253" on="1"/>
        <pt x="542" y="314" on="0"/>
        <pt x="598" y="507" on="0"/>
        <pt x="607" y="533" on="1"/>
        <pt x="403" y="620" on="0"/>
        <pt x="346" y="631" on="1"/>
        <pt x="281" y="644" on="0"/>
        <pt x="218" y="644" on="1"/>
        <pt x="136" y="644" on="0"/>
        <pt x="31" y="596" on="0"/>
        <pt x="31" y="548" on="1"/>
        <pt x="31" y="539" on="0"/>
        <pt x="35" y="520" on="0"/>
        <pt x="39" y="509" on="1"/>
        <pt x="65" y="444" on="0"/>
        <pt x="125" y="345" on="0"/>
        <pt x="187" y="286" on="0"/>
        <pt x="234" y="252" on="0"/>
        <pt x="291" y="222" on="0"/>
        <pt x="300" y="215" on="1"/>
        <pt x="308" y="210" on="0"/>
        <pt x="304" y="201" on="0"/>
        <pt x="294" y="203" on="1"/>
        <pt x="193" y="225" on="0"/>
        <pt x="11" y="435" on="0"/>
        <pt x="0" y="524" on="1"/>
        <pt x="-2" y="537" on="0"/>
        <pt x="-2" y="549" on="1"/>
        <pt x="-2" y="587" on="0"/>
        <pt x="30" y="641" on="0"/>
        <pt x="86" y="670" on="0"/>
        <pt x="150" y="682" on="0"/>
        <pt x="189" y="682" on="1"/>
        <pt x="246" y="682" on="0"/>
        <pt x="363" y="660" on="0"/>
        <pt x="395" y="649" on="1"/>
        <pt x="409" y="644" on="0"/>
        <pt x="559" y="582" on="0"/>
        <pt x="688" y="537" on="0"/>
        <pt x="717" y="537" on="1"/>
        <pt x="725" y="537" on="0"/>
        <pt x="735" y="541" on="0"/>
        <pt x="737" y="544" on="1"/>
        <pt x="743" y="552" on="0"/>
        <pt x="754" y="552" on="1"/>
        <pt x="765" y="552" on="0"/>
        <pt x="765" y="544" on="1"/>
        <pt x="765" y="539" on="0"/>
        <pt x="758" y="528" on="0"/>
        <pt x="751" y="520" on="1"/>
        <pt x="737" y="506" on="0"/>
        <pt x="693" y="506" on="1"/>
        <pt x="656" y="506" on="0"/>
        <pt x="642" y="513" on="1"/>
        <pt x="632" y="483" on="0"/>
        <pt x="583" y="317" on="0"/>
        <pt x="567" y="269" on="1"/>
        <pt x="638" y="297" on="0"/>
        <pt x="734" y="359" on="1"/>
        <pt x="775" y="386" on="0"/>
        <pt x="862" y="456" on="0"/>
        <pt x="918" y="507" on="0"/>
        <pt x="968" y="556" on="0"/>
        <pt x="972" y="559" on="1"/>
        <pt x="969" y="566" on="1"/>
        <pt x="969" y="573" on="0"/>
        <pt x="981" y="586" on="0"/>
        <pt x="998" y="596" on="0"/>
      </contour>
    </TTGlyph>
    <TTGlyph name="L" xMin="25" yMin="-96" xMax="777" yMax="672">
      <contour>
        <pt x="689" y="672" on="1"/>
        <pt x="725" y="672" on="0"/>
        <pt x="725" y="627" on="1"/>
        <pt x="725" y="589" on="0"/>
        <pt x="708" y="501" on="0"/>
        <pt x="667" y="404" on="0"/>
        <pt x="610" y="323" on="0"/>
        <pt x="519" y="266" on="0"/>
        <pt x="465" y="260" on="1"/>
        <pt x="447" y="203" on="0"/>
        <pt x="378" y="59" on="0"/>
        <pt x="350" y="27" on="1"/>
        <pt x="526" y="-62" on="0"/>
        <pt x="640" y="-62" on="1"/>
        <pt x="684" y="-62" on="0"/>
        <pt x="755" y="-11" on="0"/>
        <pt x="755" y="33" on="1"/>
        <pt x="755" y="55" on="0"/>
        <pt x="729" y="97" on="0"/>
        <pt x="729" y="102" on="1"/>
        <pt x="729" y="109" on="0"/>
        <pt x="736" y="122" on="0"/>
        <pt x="742" y="120" on="1"/>
        <pt x="754" y="115" on="0"/>
        <pt x="777" y="56" on="0"/>
        <pt x="777" y="40" on="1"/>
        <pt x="777" y="-24" on="0"/>
        <pt x="684" y="-96" on="0"/>
        <pt x="618" y="-96" on="1"/>
        <pt x="604" y="-96" on="0"/>
        <pt x="573" y="-92" on="0"/>
        <pt x="546" y="-87" on="0"/>
        <pt x="510" y="-76" on="0"/>
        <pt x="486" y="-69" on="0"/>
        <pt x="446" y="-52" on="0"/>
        <pt x="426" y="-45" on="0"/>
        <pt x="384" y="-25" on="0"/>
        <pt x="370" y="-18" on="0"/>
        <pt x="326" y="3" on="0"/>
        <pt x="322" y="5" on="1"/>
        <pt x="247" y="-69" on="0"/>
        <pt x="135" y="-69" on="1"/>
        <pt x="91" y="-69" on="0"/>
        <pt x="25" y="-34" on="0"/>
        <pt x="25" y="6" on="1"/>
        <pt x="25" y="47" on="0"/>
        <pt x="86" y="100" on="0"/>
        <pt x="128" y="100" on="1"/>
        <pt x="195" y="100" on="0"/>
        <pt x="324" y="40" on="1"/>
        <pt x="367" y="99" on="0"/>
        <pt x="428" y="262" on="1"/>
        <pt x="360" y="262" on="0"/>
        <pt x="281" y="330" on="0"/>
        <pt x="281" y="395" on="1"/>
        <pt x="281" y="421" on="0"/>
        <pt x="296" y="461" on="0"/>
        <pt x="311" y="461" on="1"/>
        <pt x="316" y="461" on="0"/>
        <pt x="316" y="452" on="1"/>
        <pt x="316" y="447" on="0"/>
        <pt x="312" y="416" on="0"/>
        <pt x="312" y="410" on="1"/>
        <pt x="312" y="357" on="0"/>
        <pt x="372" y="279" on="0"/>
        <pt x="434" y="279" on="1"/>
        <pt x="437" y="287" on="0"/>
        <pt x="465" y="369" on="0"/>
        <pt x="497" y="458" on="0"/>
        <pt x="533" y="550" on="0"/>
        <pt x="571" y="609" on="0"/>
        <pt x="584" y="609" on="1"/>
        <pt x="598" y="609" on="0"/>
        <pt x="630" y="594" on="0"/>
        <pt x="630" y="582" on="1"/>
        <pt x="630" y="573" on="0"/>
        <pt x="622" y="573" on="1"/>
        <pt x="620" y="573" on="0"/>
        <pt x="616" y="581" on="0"/>
        <pt x="613" y="581" on="1"/>
        <pt x="597" y="581" on="0"/>
        <pt x="537" y="455" on="0"/>
        <pt x="473" y="282" on="0"/>
        <pt x="472" y="280" on="1"/>
        <pt x="536" y="294" on="0"/>
        <pt x="636" y="406" on="0"/>
        <pt x="684" y="545" on="0"/>
        <pt x="684" y="613" on="1"/>
        <pt x="684" y="624" on="0"/>
        <pt x="683" y="634" on="1"/>
        <pt x="682" y="644" on="0"/>
        <pt x="668" y="654" on="0"/>
        <pt x="668" y="659" on="1"/>
        <pt x="668" y="672" on="0"/>
      </contour>
      <contour>
        <pt x="304" y="15" on="1"/>
        <pt x="279" y="27" on="0"/>
        <pt x="155" y="63" on="0"/>
        <pt x="111" y="63" on="1"/>
        <pt x="55" y="62" on="0"/>
        <pt x="54" y="27" on="1"/>
        <pt x="54" y="-8" on="0"/>
        <pt x="124" y="-45" on="0"/>
        <pt x="175" y="-45" on="1"/>
        <pt x="247" y="-45" on="0"/>
      </contour>
    </TTGlyph>
    <TTGlyph name="Lslash" xMin="25" yMin="-96" xMax="777" yMax="672">
      <contour>
        <pt x="689" y="672" on="1"/>
        <pt x="725" y="672" on="0"/>
        <pt x="725" y="627" on="1"/>
        <pt x="725" y="589" on="0"/>
        <pt x="708" y="501" on="0"/>
        <pt x="667" y="404" on="0"/>
        <pt x="610" y="323" on="0"/>
        <pt x="519" y="266" on="0"/>
        <pt x="465" y="260" on="1"/>
        <pt x="451" y="217" on="0"/>
        <pt x="438" y="187" on="1"/>
        <pt x="487" y="201" on="0"/>
        <pt x="520" y="212" on="1"/>
        <pt x="531" y="214" on="1"/>
        <pt x="533" y="214" on="0"/>
        <pt x="535" y="213" on="0"/>
        <pt x="535" y="212" on="1"/>
        <pt x="535" y="207" on="0"/>
        <pt x="520" y="198" on="1"/>
        <pt x="493" y="180" on="0"/>
        <pt x="422" y="152" on="1"/>
        <pt x="382" y="63" on="0"/>
        <pt x="350" y="27" on="1"/>
        <pt x="526" y="-62" on="0"/>
        <pt x="640" y="-62" on="1"/>
        <pt x="684" y="-62" on="0"/>
        <pt x="755" y="-11" on="0"/>
        <pt x="755" y="33" on="1"/>
        <pt x="755" y="55" on="0"/>
        <pt x="729" y="97" on="0"/>
        <pt x="729" y="102" on="1"/>
        <pt x="729" y="109" on="0"/>
        <pt x="736" y="122" on="0"/>
        <pt x="742" y="120" on="1"/>
        <pt x="754" y="115" on="0"/>
        <pt x="777" y="56" on="0"/>
        <pt x="777" y="40" on="1"/>
        <pt x="777" y="-24" on="0"/>
        <pt x="684" y="-96" on="0"/>
        <pt x="618" y="-96" on="1"/>
        <pt x="604" y="-96" on="0"/>
        <pt x="573" y="-92" on="0"/>
        <pt x="546" y="-87" on="0"/>
        <pt x="510" y="-76" on="0"/>
        <pt x="486" y="-69" on="0"/>
        <pt x="446" y="-52" on="0"/>
        <pt x="426" y="-45" on="0"/>
        <pt x="384" y="-25" on="0"/>
        <pt x="370" y="-18" on="0"/>
        <pt x="326" y="3" on="0"/>
        <pt x="322" y="5" on="1"/>
        <pt x="247" y="-69" on="0"/>
        <pt x="135" y="-69" on="1"/>
        <pt x="91" y="-69" on="0"/>
        <pt x="25" y="-34" on="0"/>
        <pt x="25" y="6" on="1"/>
        <pt x="25" y="47" on="0"/>
        <pt x="86" y="100" on="0"/>
        <pt x="128" y="100" on="1"/>
        <pt x="195" y="100" on="0"/>
        <pt x="324" y="40" on="1"/>
        <pt x="344" y="66" on="0"/>
        <pt x="375" y="134" on="1"/>
        <pt x="320" y="116" on="1"/>
        <pt x="312" y="113" on="0"/>
        <pt x="304" y="113" on="1"/>
        <pt x="284" y="113" on="0"/>
        <pt x="284" y="125" on="1"/>
        <pt x="284" y="131" on="0"/>
        <pt x="290" y="138" on="1"/>
        <pt x="294" y="143" on="0"/>
        <pt x="322" y="155" on="0"/>
        <pt x="348" y="162" on="0"/>
        <pt x="387" y="172" on="0"/>
        <pt x="392" y="173" on="1"/>
        <pt x="403" y="199" on="0"/>
        <pt x="428" y="262" on="1"/>
        <pt x="360" y="262" on="0"/>
        <pt x="281" y="330" on="0"/>
        <pt x="281" y="395" on="1"/>
        <pt x="281" y="421" on="0"/>
        <pt x="296" y="461" on="0"/>
        <pt x="311" y="461" on="1"/>
        <pt x="316" y="461" on="0"/>
        <pt x="316" y="452" on="1"/>
        <pt x="316" y="447" on="0"/>
        <pt x="312" y="416" on="0"/>
        <pt x="312" y="410" on="1"/>
        <pt x="312" y="357" on="0"/>
        <pt x="372" y="279" on="0"/>
        <pt x="434" y="279" on="1"/>
        <pt x="437" y="287" on="0"/>
        <pt x="465" y="369" on="0"/>
        <pt x="497" y="458" on="0"/>
        <pt x="533" y="550" on="0"/>
        <pt x="571" y="609" on="0"/>
        <pt x="584" y="609" on="1"/>
        <pt x="598" y="609" on="0"/>
        <pt x="630" y="594" on="0"/>
        <pt x="630" y="582" on="1"/>
        <pt x="630" y="573" on="0"/>
        <pt x="622" y="573" on="1"/>
        <pt x="620" y="573" on="0"/>
        <pt x="616" y="581" on="0"/>
        <pt x="613" y="581" on="1"/>
        <pt x="597" y="581" on="0"/>
        <pt x="537" y="455" on="0"/>
        <pt x="473" y="282" on="0"/>
        <pt x="472" y="280" on="1"/>
        <pt x="536" y="294" on="0"/>
        <pt x="636" y="406" on="0"/>
        <pt x="684" y="545" on="0"/>
        <pt x="684" y="613" on="1"/>
        <pt x="684" y="624" on="0"/>
        <pt x="683" y="634" on="1"/>
        <pt x="682" y="644" on="0"/>
        <pt x="668" y="654" on="0"/>
        <pt x="668" y="659" on="1"/>
        <pt x="668" y="672" on="0"/>
      </contour>
      <contour>
        <pt x="304" y="15" on="1"/>
        <pt x="279" y="27" on="0"/>
        <pt x="155" y="63" on="0"/>
        <pt x="111" y="63" on="1"/>
        <pt x="55" y="62" on="0"/>
        <pt x="54" y="27" on="1"/>
        <pt x="54" y="-8" on="0"/>
        <pt x="124" y="-45" on="0"/>
        <pt x="175" y="-45" on="1"/>
        <pt x="247" y="-45" on="0"/>
      </contour>
    </TTGlyph>
    <TTGlyph name="M" xMin="21" yMin="-224" xMax="948" yMax="651">
      <contour>
        <pt x="904" y="597" on="1"/>
        <pt x="933" y="597" on="0"/>
        <pt x="933" y="464" on="1"/>
        <pt x="933" y="403" on="0"/>
        <pt x="915" y="276" on="0"/>
        <pt x="880" y="155" on="0"/>
        <pt x="832" y="39" on="0"/>
        <pt x="802" y="-14" on="1"/>
        <pt x="857" y="29" on="0"/>
        <pt x="917" y="52" on="1"/>
        <pt x="926" y="56" on="0"/>
        <pt x="939" y="59" on="0"/>
        <pt x="943" y="59" on="1"/>
        <pt x="947" y="58" on="0"/>
        <pt x="947" y="57" on="1"/>
        <pt x="947" y="49" on="0"/>
        <pt x="920" y="31" on="1"/>
        <pt x="903" y="20" on="0"/>
        <pt x="865" y="-12" on="0"/>
        <pt x="835" y="-40" on="0"/>
        <pt x="803" y="-69" on="0"/>
        <pt x="777" y="-89" on="0"/>
        <pt x="751" y="-102" on="0"/>
        <pt x="741" y="-102" on="1"/>
        <pt x="736" y="-102" on="0"/>
        <pt x="723" y="-97" on="0"/>
        <pt x="713" y="-87" on="0"/>
        <pt x="713" y="-81" on="1"/>
        <pt x="713" y="-68" on="0"/>
        <pt x="772" y="-30" on="0"/>
        <pt x="773" y="-27" on="1"/>
        <pt x="799" y="35" on="0"/>
        <pt x="831" y="123" on="0"/>
        <pt x="868" y="243" on="0"/>
        <pt x="887" y="359" on="0"/>
        <pt x="887" y="416" on="1"/>
        <pt x="887" y="459" on="0"/>
        <pt x="881" y="501" on="1"/>
        <pt x="874" y="491" on="0"/>
        <pt x="827" y="409" on="0"/>
        <pt x="765" y="307" on="0"/>
        <pt x="734" y="263" on="1"/>
        <pt x="555" y="9" on="0"/>
        <pt x="470" y="8" on="1"/>
        <pt x="433" y="8" on="0"/>
        <pt x="399" y="101" on="0"/>
        <pt x="399" y="181" on="1"/>
        <pt x="399" y="342" on="0"/>
        <pt x="448" y="549" on="1"/>
        <pt x="401" y="485" on="0"/>
        <pt x="300" y="321" on="0"/>
        <pt x="185" y="105" on="0"/>
        <pt x="112" y="-121" on="0"/>
        <pt x="112" y="-208" on="1"/>
        <pt x="112" y="-209" on="1"/>
        <pt x="109" y="-224" on="0"/>
        <pt x="103" y="-224" on="1"/>
        <pt x="94" y="-224" on="0"/>
        <pt x="78" y="-178" on="0"/>
        <pt x="78" y="-156" on="1"/>
        <pt x="78" y="-88" on="0"/>
        <pt x="174" y="150" on="0"/>
        <pt x="301" y="375" on="0"/>
        <pt x="412" y="550" on="0"/>
        <pt x="434" y="576" on="1"/>
        <pt x="429" y="577" on="0"/>
        <pt x="397" y="585" on="0"/>
        <pt x="367" y="592" on="0"/>
        <pt x="321" y="602" on="0"/>
        <pt x="280" y="608" on="0"/>
        <pt x="229" y="613" on="0"/>
        <pt x="207" y="613" on="1"/>
        <pt x="165" y="613" on="0"/>
        <pt x="92" y="584" on="0"/>
        <pt x="48" y="531" on="0"/>
        <pt x="48" y="499" on="1"/>
        <pt x="48" y="459" on="0"/>
        <pt x="126" y="374" on="0"/>
        <pt x="210" y="336" on="1"/>
        <pt x="228" y="328" on="0"/>
        <pt x="230" y="319" on="1"/>
        <pt x="230" y="318" on="0"/>
        <pt x="227" y="316" on="0"/>
        <pt x="224" y="316" on="1"/>
        <pt x="219" y="316" on="0"/>
        <pt x="206" y="319" on="0"/>
        <pt x="196" y="321" on="1"/>
        <pt x="123" y="339" on="0"/>
        <pt x="28" y="445" on="0"/>
        <pt x="23" y="496" on="1"/>
        <pt x="23" y="498" on="0"/>
        <pt x="22" y="503" on="0"/>
        <pt x="22" y="508" on="0"/>
        <pt x="22" y="513" on="0"/>
        <pt x="22" y="517" on="0"/>
        <pt x="22" y="519" on="1"/>
        <pt x="22" y="651" on="0"/>
        <pt x="212" y="651" on="1"/>
        <pt x="327" y="651" on="0"/>
        <pt x="483" y="606" on="1"/>
        <pt x="501" y="601" on="0"/>
        <pt x="501" y="579" on="1"/>
        <pt x="501" y="568" on="0"/>
        <pt x="493" y="530" on="1"/>
        <pt x="446" y="310" on="0"/>
        <pt x="446" y="187" on="1"/>
        <pt x="446" y="159" on="0"/>
        <pt x="451" y="115" on="0"/>
        <pt x="462" y="82" on="0"/>
        <pt x="482" y="64" on="0"/>
        <pt x="496" y="64" on="1"/>
        <pt x="561" y="64" on="0"/>
        <pt x="710" y="275" on="1"/>
        <pt x="765" y="354" on="0"/>
        <pt x="857" y="518" on="0"/>
        <pt x="870" y="552" on="1"/>
        <pt x="888" y="597" on="0"/>
      </contour>
    </TTGlyph>
    <TTGlyph name="N" xMin="15" yMin="-129" xMax="1027" yMax="674">
      <contour>
        <pt x="1020" y="451" on="1"/>
        <pt x="1026" y="446" on="0"/>
        <pt x="1026" y="443" on="1"/>
        <pt x="1024" y="439" on="0"/>
        <pt x="1017" y="438" on="1"/>
        <pt x="1009" y="438" on="0"/>
        <pt x="1002" y="442" on="1"/>
        <pt x="978" y="453" on="0"/>
        <pt x="941" y="502" on="1"/>
        <pt x="929" y="306" on="0"/>
        <pt x="895" y="181" on="1"/>
        <pt x="863" y="63" on="0"/>
        <pt x="800" y="-46" on="0"/>
        <pt x="771" y="-46" on="1"/>
        <pt x="740" y="-46" on="0"/>
        <pt x="680" y="77" on="0"/>
        <pt x="638" y="253" on="0"/>
        <pt x="613" y="446" on="0"/>
        <pt x="613" y="518" on="1"/>
        <pt x="613" y="528" on="0"/>
        <pt x="626" y="543" on="0"/>
        <pt x="633" y="543" on="1"/>
        <pt x="641" y="543" on="0"/>
        <pt x="651" y="527" on="0"/>
        <pt x="652" y="511" on="1"/>
        <pt x="658" y="431" on="0"/>
        <pt x="676" y="277" on="0"/>
        <pt x="705" y="103" on="0"/>
        <pt x="748" y="-3" on="0"/>
        <pt x="773" y="-3" on="1"/>
        <pt x="819" y="-3" on="0"/>
        <pt x="875" y="197" on="1"/>
        <pt x="885" y="231" on="0"/>
        <pt x="900" y="322" on="0"/>
        <pt x="909" y="410" on="0"/>
        <pt x="913" y="488" on="0"/>
        <pt x="913" y="517" on="1"/>
        <pt x="913" y="524" on="0"/>
        <pt x="913" y="535" on="0"/>
        <pt x="913" y="540" on="1"/>
        <pt x="903" y="555" on="0"/>
        <pt x="893" y="571" on="0"/>
        <pt x="880" y="597" on="0"/>
        <pt x="875" y="623" on="0"/>
        <pt x="875" y="638" on="1"/>
        <pt x="875" y="642" on="0"/>
        <pt x="876" y="650" on="0"/>
        <pt x="877" y="657" on="0"/>
        <pt x="879" y="663" on="0"/>
        <pt x="882" y="668" on="0"/>
        <pt x="885" y="671" on="0"/>
        <pt x="888" y="673" on="0"/>
        <pt x="890" y="673" on="1"/>
        <pt x="894" y="673" on="0"/>
        <pt x="902" y="667" on="0"/>
        <pt x="907" y="661" on="1"/>
        <pt x="918" y="648" on="0"/>
        <pt x="944" y="580" on="1"/>
        <pt x="989" y="462" on="0"/>
      </contour>
      <contour>
        <pt x="16" y="111" on="1"/>
        <pt x="16" y="129" on="0"/>
        <pt x="24" y="158" on="0"/>
        <pt x="29" y="158" on="1"/>
        <pt x="37" y="158" on="0"/>
        <pt x="39" y="131" on="1"/>
        <pt x="39" y="119" on="0"/>
        <pt x="48" y="80" on="0"/>
        <pt x="65" y="29" on="0"/>
        <pt x="95" y="-23" on="0"/>
        <pt x="132" y="-66" on="0"/>
        <pt x="188" y="-94" on="0"/>
        <pt x="219" y="-94" on="1"/>
        <pt x="223" y="-94" on="0"/>
        <pt x="230" y="-93" on="0"/>
        <pt x="233" y="-93" on="1"/>
        <pt x="274" y="-89" on="0"/>
        <pt x="357" y="-2" on="0"/>
        <pt x="422" y="117" on="0"/>
        <pt x="489" y="286" on="0"/>
        <pt x="530" y="412" on="0"/>
        <pt x="576" y="560" on="0"/>
        <pt x="582" y="578" on="1"/>
        <pt x="562" y="584" on="0"/>
        <pt x="427" y="614" on="0"/>
        <pt x="406" y="617" on="1"/>
        <pt x="355" y="625" on="0"/>
        <pt x="317" y="625" on="1"/>
        <pt x="293" y="625" on="0"/>
        <pt x="257" y="618" on="0"/>
        <pt x="234" y="605" on="0"/>
        <pt x="223" y="588" on="0"/>
        <pt x="223" y="576" on="1"/>
        <pt x="223" y="542" on="0"/>
        <pt x="314" y="445" on="0"/>
        <pt x="393" y="395" on="1"/>
        <pt x="398" y="392" on="0"/>
        <pt x="395" y="385" on="0"/>
        <pt x="388" y="386" on="1"/>
        <pt x="305" y="406" on="0"/>
        <pt x="205" y="507" on="0"/>
        <pt x="205" y="560" on="1"/>
        <pt x="205" y="604" on="0"/>
        <pt x="280" y="660" on="0"/>
        <pt x="352" y="660" on="1"/>
        <pt x="369" y="660" on="0"/>
        <pt x="408" y="656" on="0"/>
        <pt x="451" y="649" on="0"/>
        <pt x="488" y="641" on="0"/>
        <pt x="534" y="629" on="0"/>
        <pt x="562" y="622" on="0"/>
        <pt x="604" y="611" on="0"/>
        <pt x="610" y="609" on="1"/>
        <pt x="617" y="607" on="0"/>
        <pt x="631" y="602" on="0"/>
        <pt x="643" y="596" on="0"/>
        <pt x="653" y="590" on="0"/>
        <pt x="659" y="584" on="0"/>
        <pt x="659" y="581" on="1"/>
        <pt x="659" y="577" on="0"/>
        <pt x="642" y="572" on="0"/>
        <pt x="624" y="572" on="1"/>
        <pt x="617" y="572" on="1"/>
        <pt x="614" y="563" on="0"/>
        <pt x="571" y="425" on="0"/>
        <pt x="530" y="300" on="0"/>
        <pt x="471" y="146" on="0"/>
        <pt x="448" y="102" on="1"/>
        <pt x="391" y="-5" on="0"/>
        <pt x="265" y="-128" on="0"/>
        <pt x="201" y="-128" on="1"/>
        <pt x="123" y="-128" on="0"/>
        <pt x="54" y="-30" on="1"/>
        <pt x="16" y="24" on="0"/>
      </contour>
    </TTGlyph>
    <TTGlyph name="Ntilde" xMin="15" yMin="-129" xMax="1027" yMax="775">
      <contour>
        <pt x="1020" y="451" on="1"/>
        <pt x="1026" y="446" on="0"/>
        <pt x="1026" y="443" on="1"/>
        <pt x="1024" y="439" on="0"/>
        <pt x="1017" y="438" on="1"/>
        <pt x="1009" y="438" on="0"/>
        <pt x="1002" y="442" on="1"/>
        <pt x="978" y="453" on="0"/>
        <pt x="941" y="502" on="1"/>
        <pt x="929" y="306" on="0"/>
        <pt x="895" y="181" on="1"/>
        <pt x="863" y="63" on="0"/>
        <pt x="800" y="-46" on="0"/>
        <pt x="771" y="-46" on="1"/>
        <pt x="740" y="-46" on="0"/>
        <pt x="680" y="77" on="0"/>
        <pt x="638" y="253" on="0"/>
        <pt x="613" y="446" on="0"/>
        <pt x="613" y="518" on="1"/>
        <pt x="613" y="528" on="0"/>
        <pt x="626" y="543" on="0"/>
        <pt x="633" y="543" on="1"/>
        <pt x="641" y="543" on="0"/>
        <pt x="651" y="527" on="0"/>
        <pt x="652" y="511" on="1"/>
        <pt x="658" y="431" on="0"/>
        <pt x="676" y="277" on="0"/>
        <pt x="705" y="103" on="0"/>
        <pt x="748" y="-3" on="0"/>
        <pt x="773" y="-3" on="1"/>
        <pt x="819" y="-3" on="0"/>
        <pt x="875" y="197" on="1"/>
        <pt x="885" y="231" on="0"/>
        <pt x="900" y="322" on="0"/>
        <pt x="909" y="410" on="0"/>
        <pt x="913" y="488" on="0"/>
        <pt x="913" y="517" on="1"/>
        <pt x="913" y="524" on="0"/>
        <pt x="913" y="535" on="0"/>
        <pt x="913" y="540" on="1"/>
        <pt x="903" y="555" on="0"/>
        <pt x="893" y="571" on="0"/>
        <pt x="880" y="597" on="0"/>
        <pt x="875" y="623" on="0"/>
        <pt x="875" y="638" on="1"/>
        <pt x="875" y="642" on="0"/>
        <pt x="876" y="650" on="0"/>
        <pt x="877" y="657" on="0"/>
        <pt x="879" y="663" on="0"/>
        <pt x="882" y="668" on="0"/>
        <pt x="885" y="671" on="0"/>
        <pt x="888" y="673" on="0"/>
        <pt x="890" y="673" on="1"/>
        <pt x="894" y="673" on="0"/>
        <pt x="902" y="667" on="0"/>
        <pt x="907" y="661" on="1"/>
        <pt x="918" y="648" on="0"/>
        <pt x="944" y="580" on="1"/>
        <pt x="989" y="462" on="0"/>
      </contour>
      <contour>
        <pt x="16" y="111" on="1"/>
        <pt x="16" y="129" on="0"/>
        <pt x="24" y="158" on="0"/>
        <pt x="29" y="158" on="1"/>
        <pt x="37" y="158" on="0"/>
        <pt x="39" y="131" on="1"/>
        <pt x="39" y="119" on="0"/>
        <pt x="48" y="80" on="0"/>
        <pt x="65" y="29" on="0"/>
        <pt x="95" y="-23" on="0"/>
        <pt x="132" y="-66" on="0"/>
        <pt x="188" y="-94" on="0"/>
        <pt x="219" y="-94" on="1"/>
        <pt x="223" y="-94" on="0"/>
        <pt x="230" y="-93" on="0"/>
        <pt x="233" y="-93" on="1"/>
        <pt x="274" y="-89" on="0"/>
        <pt x="357" y="-2" on="0"/>
        <pt x="422" y="117" on="0"/>
        <pt x="489" y="286" on="0"/>
        <pt x="530" y="412" on="0"/>
        <pt x="576" y="560" on="0"/>
        <pt x="582" y="578" on="1"/>
        <pt x="562" y="584" on="0"/>
        <pt x="427" y="614" on="0"/>
        <pt x="406" y="617" on="1"/>
        <pt x="355" y="625" on="0"/>
        <pt x="317" y="625" on="1"/>
        <pt x="293" y="625" on="0"/>
        <pt x="257" y="618" on="0"/>
        <pt x="234" y="605" on="0"/>
        <pt x="223" y="588" on="0"/>
        <pt x="223" y="576" on="1"/>
        <pt x="223" y="542" on="0"/>
        <pt x="314" y="445" on="0"/>
        <pt x="393" y="395" on="1"/>
        <pt x="398" y="392" on="0"/>
        <pt x="395" y="385" on="0"/>
        <pt x="388" y="386" on="1"/>
        <pt x="305" y="406" on="0"/>
        <pt x="205" y="507" on="0"/>
        <pt x="205" y="560" on="1"/>
        <pt x="205" y="604" on="0"/>
        <pt x="280" y="660" on="0"/>
        <pt x="352" y="660" on="1"/>
        <pt x="369" y="660" on="0"/>
        <pt x="408" y="656" on="0"/>
        <pt x="451" y="649" on="0"/>
        <pt x="488" y="641" on="0"/>
        <pt x="534" y="629" on="0"/>
        <pt x="562" y="622" on="0"/>
        <pt x="604" y="611" on="0"/>
        <pt x="610" y="609" on="1"/>
        <pt x="617" y="607" on="0"/>
        <pt x="631" y="602" on="0"/>
        <pt x="643" y="596" on="0"/>
        <pt x="653" y="590" on="0"/>
        <pt x="659" y="584" on="0"/>
        <pt x="659" y="581" on="1"/>
        <pt x="659" y="577" on="0"/>
        <pt x="642" y="572" on="0"/>
        <pt x="624" y="572" on="1"/>
        <pt x="617" y="572" on="1"/>
        <pt x="614" y="563" on="0"/>
        <pt x="571" y="425" on="0"/>
        <pt x="530" y="300" on="0"/>
        <pt x="471" y="146" on="0"/>
        <pt x="448" y="102" on="1"/>
        <pt x="391" y="-5" on="0"/>
        <pt x="265" y="-128" on="0"/>
        <pt x="201" y="-128" on="1"/>
        <pt x="123" y="-128" on="0"/>
        <pt x="54" y="-30" on="1"/>
        <pt x="16" y="24" on="0"/>
      </contour>
      <contour>
        <pt x="666" y="722" on="1"/>
        <pt x="665" y="722" on="0"/>
        <pt x="664" y="723" on="0"/>
        <pt x="664" y="724" on="1"/>
        <pt x="664" y="731" on="0"/>
        <pt x="697" y="760" on="0"/>
        <pt x="707" y="765" on="1"/>
        <pt x="723" y="775" on="0"/>
        <pt x="743" y="775" on="1"/>
        <pt x="760" y="775" on="0"/>
        <pt x="822" y="754" on="0"/>
        <pt x="838" y="754" on="1"/>
        <pt x="862" y="754" on="0"/>
        <pt x="880" y="775" on="1"/>
        <pt x="886" y="775" on="0"/>
        <pt x="886" y="771" on="1"/>
        <pt x="886" y="764" on="0"/>
        <pt x="857" y="736" on="0"/>
        <pt x="846" y="729" on="1"/>
        <pt x="833" y="721" on="0"/>
        <pt x="819" y="721" on="1"/>
        <pt x="801" y="721" on="0"/>
        <pt x="737" y="748" on="0"/>
        <pt x="720" y="748" on="1"/>
        <pt x="703" y="748" on="0"/>
        <pt x="671" y="722" on="0"/>
      </contour>
    </TTGlyph>
    <TTGlyph name="O" xMin="7" yMin="-67" xMax="788" yMax="684">
      <contour>
        <pt x="496" y="684" on="1"/>
        <pt x="574" y="684" on="0"/>
        <pt x="574" y="645" on="1"/>
        <pt x="574" y="623" on="0"/>
        <pt x="547" y="592" on="1"/>
        <pt x="788" y="560" on="0"/>
        <pt x="788" y="343" on="1"/>
        <pt x="788" y="270" on="0"/>
        <pt x="729" y="138" on="0"/>
        <pt x="630" y="41" on="0"/>
        <pt x="504" y="-31" on="0"/>
        <pt x="365" y="-67" on="0"/>
        <pt x="298" y="-67" on="1"/>
        <pt x="238" y="-67" on="0"/>
        <pt x="135" y="-36" on="0"/>
        <pt x="54" y="26" on="0"/>
        <pt x="8" y="128" on="0"/>
        <pt x="8" y="193" on="1"/>
        <pt x="8" y="364" on="0"/>
        <pt x="162" y="525" on="1"/>
        <pt x="111" y="507" on="0"/>
        <pt x="90" y="495" on="1"/>
        <pt x="85" y="493" on="0"/>
        <pt x="77" y="489" on="0"/>
        <pt x="69" y="485" on="0"/>
        <pt x="62" y="483" on="0"/>
        <pt x="56" y="481" on="0"/>
        <pt x="51" y="480" on="0"/>
        <pt x="48" y="479" on="0"/>
        <pt x="46" y="479" on="1"/>
        <pt x="42" y="480" on="0"/>
        <pt x="41" y="482" on="1"/>
        <pt x="41" y="493" on="0"/>
        <pt x="82" y="514" on="1"/>
        <pt x="142" y="546" on="0"/>
        <pt x="205" y="565" on="1"/>
        <pt x="320" y="663" on="0"/>
        <pt x="457" y="681" on="1"/>
        <pt x="459" y="681" on="0"/>
        <pt x="463" y="682" on="0"/>
        <pt x="467" y="682" on="0"/>
        <pt x="472" y="683" on="0"/>
        <pt x="476" y="683" on="0"/>
        <pt x="480" y="683" on="0"/>
        <pt x="485" y="683" on="0"/>
        <pt x="489" y="684" on="0"/>
        <pt x="494" y="684" on="0"/>
      </contour>
      <contour>
        <pt x="518" y="595" on="1"/>
        <pt x="531" y="619" on="0"/>
        <pt x="531" y="632" on="1"/>
        <pt x="531" y="653" on="0"/>
        <pt x="493" y="653" on="1"/>
        <pt x="489" y="653" on="0"/>
        <pt x="481" y="653" on="0"/>
        <pt x="472" y="652" on="0"/>
        <pt x="467" y="652" on="1"/>
        <pt x="367" y="642" on="0"/>
        <pt x="284" y="585" on="1"/>
        <pt x="354" y="599" on="0"/>
        <pt x="433" y="599" on="1"/>
        <pt x="453" y="599" on="0"/>
        <pt x="496" y="597" on="0"/>
      </contour>
      <contour>
        <pt x="61" y="206" on="1"/>
        <pt x="61" y="156" on="0"/>
        <pt x="88" y="73" on="0"/>
        <pt x="135" y="16" on="0"/>
        <pt x="200" y="-23" on="0"/>
        <pt x="276" y="-42" on="0"/>
        <pt x="319" y="-42" on="1"/>
        <pt x="377" y="-42" on="0"/>
        <pt x="497" y="-8" on="0"/>
        <pt x="606" y="59" on="0"/>
        <pt x="692" y="149" on="0"/>
        <pt x="743" y="273" on="0"/>
        <pt x="743" y="342" on="1"/>
        <pt x="743" y="432" on="0"/>
        <pt x="626" y="561" on="0"/>
        <pt x="534" y="571" on="1"/>
        <pt x="527" y="562" on="0"/>
        <pt x="491" y="524" on="0"/>
        <pt x="408" y="457" on="0"/>
        <pt x="371" y="438" on="1"/>
        <pt x="325" y="416" on="0"/>
        <pt x="315" y="416" on="1"/>
        <pt x="312" y="416" on="0"/>
        <pt x="312" y="417" on="1"/>
        <pt x="312" y="427" on="0"/>
        <pt x="367" y="463" on="1"/>
        <pt x="445" y="515" on="0"/>
        <pt x="503" y="573" on="1"/>
        <pt x="480" y="574" on="0"/>
        <pt x="455" y="574" on="1"/>
        <pt x="398" y="574" on="0"/>
        <pt x="286" y="559" on="0"/>
        <pt x="235" y="547" on="1"/>
        <pt x="147" y="467" on="0"/>
        <pt x="61" y="290" on="0"/>
      </contour>
    </TTGlyph>
    <TTGlyph name="OE" xMin="62" yMin="-18" xMax="1070" yMax="705">
      <contour>
        <pt x="484" y="705" on="1"/>
        <pt x="555" y="705" on="0"/>
        <pt x="555" y="668" on="1"/>
        <pt x="555" y="646" on="0"/>
        <pt x="531" y="614" on="1"/>
        <pt x="623" y="601" on="0"/>
        <pt x="682" y="537" on="1"/>
        <pt x="688" y="579" on="0"/>
        <pt x="696" y="610" on="1"/>
        <pt x="690" y="610" on="0"/>
        <pt x="679" y="610" on="1"/>
        <pt x="674" y="610" on="0"/>
        <pt x="659" y="610" on="0"/>
        <pt x="646" y="610" on="0"/>
        <pt x="643" y="610" on="1"/>
        <pt x="621" y="611" on="0"/>
        <pt x="621" y="618" on="1"/>
        <pt x="621" y="623" on="0"/>
        <pt x="646" y="634" on="0"/>
        <pt x="663" y="634" on="1"/>
        <pt x="702" y="634" on="1"/>
        <pt x="708" y="668" on="0"/>
        <pt x="721" y="681" on="1"/>
        <pt x="740" y="692" on="0"/>
        <pt x="763" y="692" on="1"/>
        <pt x="770" y="692" on="0"/>
        <pt x="779" y="686" on="0"/>
        <pt x="778" y="680" on="1"/>
        <pt x="773" y="670" on="0"/>
        <pt x="759" y="635" on="1"/>
        <pt x="762" y="635" on="0"/>
        <pt x="782" y="635" on="0"/>
        <pt x="806" y="635" on="0"/>
        <pt x="854" y="635" on="0"/>
        <pt x="883" y="635" on="1"/>
        <pt x="916" y="635" on="0"/>
        <pt x="1001" y="635" on="0"/>
        <pt x="1054" y="635" on="1"/>
        <pt x="1062" y="635" on="0"/>
        <pt x="1069" y="627" on="0"/>
        <pt x="1069" y="620" on="1"/>
        <pt x="1069" y="609" on="0"/>
        <pt x="1051" y="581" on="0"/>
        <pt x="1040" y="577" on="1"/>
        <pt x="1039" y="577" on="0"/>
        <pt x="1038" y="577" on="1"/>
        <pt x="1034" y="577" on="0"/>
        <pt x="1015" y="601" on="0"/>
        <pt x="1004" y="602" on="1"/>
        <pt x="987" y="604" on="0"/>
        <pt x="919" y="604" on="1"/>
        <pt x="893" y="604" on="0"/>
        <pt x="872" y="604" on="1"/>
        <pt x="866" y="604" on="0"/>
        <pt x="749" y="605" on="1"/>
        <pt x="715" y="489" on="0"/>
        <pt x="695" y="331" on="1"/>
        <pt x="740" y="331" on="0"/>
        <pt x="966" y="334" on="0"/>
        <pt x="982" y="334" on="1"/>
        <pt x="987" y="334" on="0"/>
        <pt x="987" y="328" on="1"/>
        <pt x="987" y="321" on="0"/>
        <pt x="967" y="303" on="0"/>
        <pt x="949" y="300" on="1"/>
        <pt x="691" y="300" on="1"/>
        <pt x="679" y="185" on="0"/>
        <pt x="679" y="106" on="1"/>
        <pt x="679" y="95" on="0"/>
        <pt x="680" y="74" on="0"/>
        <pt x="681" y="55" on="0"/>
        <pt x="683" y="38" on="0"/>
        <pt x="684" y="31" on="1"/>
        <pt x="697" y="31" on="0"/>
        <pt x="866" y="30" on="0"/>
        <pt x="944" y="30" on="1"/>
        <pt x="1008" y="30" on="0"/>
        <pt x="1059" y="46" on="1"/>
        <pt x="1059" y="46" on="0"/>
        <pt x="1060" y="46" on="1"/>
        <pt x="1064" y="46" on="0"/>
        <pt x="1064" y="37" on="1"/>
        <pt x="1064" y="29" on="0"/>
        <pt x="1058" y="13" on="0"/>
        <pt x="1044" y="0" on="0"/>
        <pt x="1034" y="0" on="1"/>
        <pt x="975" y="0" on="0"/>
        <pt x="895" y="0" on="1"/>
        <pt x="846" y="0" on="0"/>
        <pt x="650" y="0" on="0"/>
        <pt x="602" y="0" on="1"/>
        <pt x="599" y="0" on="0"/>
        <pt x="595" y="2" on="0"/>
        <pt x="595" y="4" on="1"/>
        <pt x="595" y="11" on="0"/>
        <pt x="623" y="34" on="0"/>
        <pt x="635" y="36" on="1"/>
        <pt x="635" y="42" on="0"/>
        <pt x="635" y="51" on="1"/>
        <pt x="635" y="63" on="0"/>
        <pt x="636" y="97" on="1"/>
        <pt x="579" y="42" on="0"/>
        <pt x="427" y="-18" on="0"/>
        <pt x="348" y="-18" on="1"/>
        <pt x="208" y="-18" on="0"/>
        <pt x="62" y="132" on="0"/>
        <pt x="62" y="248" on="1"/>
        <pt x="62" y="329" on="0"/>
        <pt x="129" y="488" on="0"/>
        <pt x="195" y="549" on="1"/>
        <pt x="145" y="527" on="0"/>
        <pt x="133" y="519" on="1"/>
        <pt x="126" y="517" on="1"/>
        <pt x="124" y="517" on="0"/>
        <pt x="120" y="519" on="0"/>
        <pt x="117" y="523" on="0"/>
        <pt x="117" y="526" on="1"/>
        <pt x="117" y="533" on="0"/>
        <pt x="126" y="537" on="1"/>
        <pt x="192" y="573" on="0"/>
        <pt x="233" y="588" on="1"/>
        <pt x="332" y="683" on="0"/>
        <pt x="453" y="703" on="1"/>
        <pt x="470" y="705" on="0"/>
      </contour>
      <contour>
        <pt x="253" y="569" on="1"/>
        <pt x="180" y="514" on="0"/>
        <pt x="110" y="351" on="0"/>
        <pt x="110" y="262" on="1"/>
        <pt x="110" y="152" on="0"/>
        <pt x="234" y="6" on="0"/>
        <pt x="355" y="6" on="1"/>
        <pt x="429" y="6" on="0"/>
        <pt x="597" y="89" on="0"/>
        <pt x="639" y="148" on="1"/>
        <pt x="652" y="328" on="0"/>
        <pt x="674" y="485" on="1"/>
        <pt x="650" y="530" on="0"/>
        <pt x="571" y="587" on="0"/>
        <pt x="521" y="594" on="1"/>
        <pt x="517" y="590" on="0"/>
        <pt x="511" y="584" on="0"/>
        <pt x="505" y="580" on="0"/>
        <pt x="501" y="577" on="0"/>
        <pt x="497" y="576" on="0"/>
        <pt x="496" y="576" on="1"/>
        <pt x="494" y="576" on="0"/>
        <pt x="491" y="578" on="0"/>
        <pt x="491" y="580" on="1"/>
        <pt x="491" y="588" on="0"/>
        <pt x="500" y="596" on="1"/>
        <pt x="480" y="597" on="0"/>
        <pt x="459" y="597" on="1"/>
        <pt x="355" y="597" on="0"/>
      </contour>
      <contour>
        <pt x="514" y="617" on="1"/>
        <pt x="523" y="638" on="0"/>
        <pt x="523" y="651" on="1"/>
        <pt x="523" y="675" on="0"/>
        <pt x="485" y="675" on="1"/>
        <pt x="475" y="675" on="0"/>
        <pt x="462" y="674" on="1"/>
        <pt x="416" y="669" on="0"/>
        <pt x="318" y="629" on="0"/>
        <pt x="285" y="603" on="1"/>
        <pt x="341" y="621" on="0"/>
        <pt x="432" y="621" on="1"/>
        <pt x="474" y="621" on="0"/>
      </contour>
    </TTGlyph>
    <TTGlyph name="Oacute" xMin="7" yMin="-67" xMax="788" yMax="850">
      <contour>
        <pt x="496" y="684" on="1"/>
        <pt x="574" y="684" on="0"/>
        <pt x="574" y="645" on="1"/>
        <pt x="574" y="623" on="0"/>
        <pt x="547" y="592" on="1"/>
        <pt x="788" y="560" on="0"/>
        <pt x="788" y="343" on="1"/>
        <pt x="788" y="270" on="0"/>
        <pt x="729" y="138" on="0"/>
        <pt x="630" y="41" on="0"/>
        <pt x="504" y="-31" on="0"/>
        <pt x="365" y="-67" on="0"/>
        <pt x="298" y="-67" on="1"/>
        <pt x="238" y="-67" on="0"/>
        <pt x="135" y="-36" on="0"/>
        <pt x="54" y="26" on="0"/>
        <pt x="8" y="128" on="0"/>
        <pt x="8" y="193" on="1"/>
        <pt x="8" y="364" on="0"/>
        <pt x="162" y="525" on="1"/>
        <pt x="111" y="507" on="0"/>
        <pt x="90" y="495" on="1"/>
        <pt x="85" y="493" on="0"/>
        <pt x="77" y="489" on="0"/>
        <pt x="69" y="485" on="0"/>
        <pt x="62" y="483" on="0"/>
        <pt x="56" y="481" on="0"/>
        <pt x="51" y="480" on="0"/>
        <pt x="48" y="479" on="0"/>
        <pt x="46" y="479" on="1"/>
        <pt x="42" y="480" on="0"/>
        <pt x="41" y="482" on="1"/>
        <pt x="41" y="493" on="0"/>
        <pt x="82" y="514" on="1"/>
        <pt x="142" y="546" on="0"/>
        <pt x="205" y="565" on="1"/>
        <pt x="320" y="663" on="0"/>
        <pt x="457" y="681" on="1"/>
        <pt x="459" y="681" on="0"/>
        <pt x="463" y="682" on="0"/>
        <pt x="467" y="682" on="0"/>
        <pt x="472" y="683" on="0"/>
        <pt x="476" y="683" on="0"/>
        <pt x="480" y="683" on="0"/>
        <pt x="485" y="683" on="0"/>
        <pt x="489" y="684" on="0"/>
        <pt x="494" y="684" on="0"/>
      </contour>
      <contour>
        <pt x="518" y="595" on="1"/>
        <pt x="531" y="619" on="0"/>
        <pt x="531" y="632" on="1"/>
        <pt x="531" y="653" on="0"/>
        <pt x="493" y="653" on="1"/>
        <pt x="489" y="653" on="0"/>
        <pt x="481" y="653" on="0"/>
        <pt x="472" y="652" on="0"/>
        <pt x="467" y="652" on="1"/>
        <pt x="367" y="642" on="0"/>
        <pt x="284" y="585" on="1"/>
        <pt x="354" y="599" on="0"/>
        <pt x="433" y="599" on="1"/>
        <pt x="453" y="599" on="0"/>
        <pt x="496" y="597" on="0"/>
      </contour>
      <contour>
        <pt x="61" y="206" on="1"/>
        <pt x="61" y="156" on="0"/>
        <pt x="88" y="73" on="0"/>
        <pt x="135" y="16" on="0"/>
        <pt x="200" y="-23" on="0"/>
        <pt x="276" y="-42" on="0"/>
        <pt x="319" y="-42" on="1"/>
        <pt x="377" y="-42" on="0"/>
        <pt x="497" y="-8" on="0"/>
        <pt x="606" y="59" on="0"/>
        <pt x="692" y="149" on="0"/>
        <pt x="743" y="273" on="0"/>
        <pt x="743" y="342" on="1"/>
        <pt x="743" y="432" on="0"/>
        <pt x="626" y="561" on="0"/>
        <pt x="534" y="571" on="1"/>
        <pt x="527" y="562" on="0"/>
        <pt x="491" y="524" on="0"/>
        <pt x="408" y="457" on="0"/>
        <pt x="371" y="438" on="1"/>
        <pt x="325" y="416" on="0"/>
        <pt x="315" y="416" on="1"/>
        <pt x="312" y="416" on="0"/>
        <pt x="312" y="417" on="1"/>
        <pt x="312" y="427" on="0"/>
        <pt x="367" y="463" on="1"/>
        <pt x="445" y="515" on="0"/>
        <pt x="503" y="573" on="1"/>
        <pt x="480" y="574" on="0"/>
        <pt x="455" y="574" on="1"/>
        <pt x="398" y="574" on="0"/>
        <pt x="286" y="559" on="0"/>
        <pt x="235" y="547" on="1"/>
        <pt x="147" y="467" on="0"/>
        <pt x="61" y="290" on="0"/>
      </contour>
      <contour>
        <pt x="639" y="811" on="1"/>
        <pt x="617" y="797" on="0"/>
        <pt x="550" y="741" on="0"/>
        <pt x="498" y="703" on="0"/>
        <pt x="481" y="699" on="1"/>
        <pt x="478" y="699" on="1"/>
        <pt x="475" y="699" on="0"/>
        <pt x="475" y="701" on="1"/>
        <pt x="475" y="719" on="0"/>
        <pt x="609" y="845" on="1"/>
        <pt x="612" y="848" on="0"/>
        <pt x="618" y="850" on="0"/>
        <pt x="621" y="850" on="1"/>
        <pt x="624" y="850" on="0"/>
        <pt x="632" y="847" on="0"/>
        <pt x="638" y="841" on="0"/>
        <pt x="642" y="834" on="0"/>
        <pt x="645" y="826" on="0"/>
        <pt x="645" y="819" on="0"/>
        <pt x="642" y="813" on="0"/>
      </contour>
    </TTGlyph>
    <TTGlyph name="Ocircumflex" xMin="7" yMin="-67" xMax="788" yMax="847">
      <contour>
        <pt x="496" y="684" on="1"/>
        <pt x="574" y="684" on="0"/>
        <pt x="574" y="645" on="1"/>
        <pt x="574" y="623" on="0"/>
        <pt x="547" y="592" on="1"/>
        <pt x="788" y="560" on="0"/>
        <pt x="788" y="343" on="1"/>
        <pt x="788" y="270" on="0"/>
        <pt x="729" y="138" on="0"/>
        <pt x="630" y="41" on="0"/>
        <pt x="504" y="-31" on="0"/>
        <pt x="365" y="-67" on="0"/>
        <pt x="298" y="-67" on="1"/>
        <pt x="238" y="-67" on="0"/>
        <pt x="135" y="-36" on="0"/>
        <pt x="54" y="26" on="0"/>
        <pt x="8" y="128" on="0"/>
        <pt x="8" y="193" on="1"/>
        <pt x="8" y="364" on="0"/>
        <pt x="162" y="525" on="1"/>
        <pt x="111" y="507" on="0"/>
        <pt x="90" y="495" on="1"/>
        <pt x="85" y="493" on="0"/>
        <pt x="77" y="489" on="0"/>
        <pt x="69" y="485" on="0"/>
        <pt x="62" y="483" on="0"/>
        <pt x="56" y="481" on="0"/>
        <pt x="51" y="480" on="0"/>
        <pt x="48" y="479" on="0"/>
        <pt x="46" y="479" on="1"/>
        <pt x="42" y="480" on="0"/>
        <pt x="41" y="482" on="1"/>
        <pt x="41" y="493" on="0"/>
        <pt x="82" y="514" on="1"/>
        <pt x="142" y="546" on="0"/>
        <pt x="205" y="565" on="1"/>
        <pt x="320" y="663" on="0"/>
        <pt x="457" y="681" on="1"/>
        <pt x="459" y="681" on="0"/>
        <pt x="463" y="682" on="0"/>
        <pt x="467" y="682" on="0"/>
        <pt x="472" y="683" on="0"/>
        <pt x="476" y="683" on="0"/>
        <pt x="480" y="683" on="0"/>
        <pt x="485" y="683" on="0"/>
        <pt x="489" y="684" on="0"/>
        <pt x="494" y="684" on="0"/>
      </contour>
      <contour>
        <pt x="518" y="595" on="1"/>
        <pt x="531" y="619" on="0"/>
        <pt x="531" y="632" on="1"/>
        <pt x="531" y="653" on="0"/>
        <pt x="493" y="653" on="1"/>
        <pt x="489" y="653" on="0"/>
        <pt x="481" y="653" on="0"/>
        <pt x="472" y="652" on="0"/>
        <pt x="467" y="652" on="1"/>
        <pt x="367" y="642" on="0"/>
        <pt x="284" y="585" on="1"/>
        <pt x="354" y="599" on="0"/>
        <pt x="433" y="599" on="1"/>
        <pt x="453" y="599" on="0"/>
        <pt x="496" y="597" on="0"/>
      </contour>
      <contour>
        <pt x="61" y="206" on="1"/>
        <pt x="61" y="156" on="0"/>
        <pt x="88" y="73" on="0"/>
        <pt x="135" y="16" on="0"/>
        <pt x="200" y="-23" on="0"/>
        <pt x="276" y="-42" on="0"/>
        <pt x="319" y="-42" on="1"/>
        <pt x="377" y="-42" on="0"/>
        <pt x="497" y="-8" on="0"/>
        <pt x="606" y="59" on="0"/>
        <pt x="692" y="149" on="0"/>
        <pt x="743" y="273" on="0"/>
        <pt x="743" y="342" on="1"/>
        <pt x="743" y="432" on="0"/>
        <pt x="626" y="561" on="0"/>
        <pt x="534" y="571" on="1"/>
        <pt x="527" y="562" on="0"/>
        <pt x="491" y="524" on="0"/>
        <pt x="408" y="457" on="0"/>
        <pt x="371" y="438" on="1"/>
        <pt x="325" y="416" on="0"/>
        <pt x="315" y="416" on="1"/>
        <pt x="312" y="416" on="0"/>
        <pt x="312" y="417" on="1"/>
        <pt x="312" y="427" on="0"/>
        <pt x="367" y="463" on="1"/>
        <pt x="445" y="515" on="0"/>
        <pt x="503" y="573" on="1"/>
        <pt x="480" y="574" on="0"/>
        <pt x="455" y="574" on="1"/>
        <pt x="398" y="574" on="0"/>
        <pt x="286" y="559" on="0"/>
        <pt x="235" y="547" on="1"/>
        <pt x="147" y="467" on="0"/>
        <pt x="61" y="290" on="0"/>
      </contour>
      <contour>
        <pt x="614" y="724" on="1"/>
        <pt x="601" y="735" on="0"/>
        <pt x="546" y="795" on="0"/>
        <pt x="536" y="810" on="1"/>
        <pt x="523" y="798" on="0"/>
        <pt x="437" y="729" on="0"/>
        <pt x="428" y="724" on="1"/>
        <pt x="425" y="722" on="0"/>
        <pt x="423" y="722" on="1"/>
        <pt x="420" y="722" on="0"/>
        <pt x="420" y="725" on="1"/>
        <pt x="420" y="726" on="0"/>
        <pt x="422" y="731" on="0"/>
        <pt x="424" y="734" on="1"/>
        <pt x="434" y="746" on="0"/>
        <pt x="540" y="845" on="0"/>
        <pt x="549" y="847" on="1"/>
        <pt x="554" y="845" on="0"/>
        <pt x="612" y="754" on="0"/>
        <pt x="621" y="737" on="1"/>
        <pt x="622" y="734" on="0"/>
        <pt x="622" y="730" on="1"/>
        <pt x="621" y="724" on="0"/>
        <pt x="617" y="723" on="1"/>
        <pt x="617" y="723" on="0"/>
        <pt x="615" y="723" on="0"/>
      </contour>
    </TTGlyph>
    <TTGlyph name="Odieresis" xMin="7" yMin="-67" xMax="788" yMax="836">
      <contour>
        <pt x="496" y="684" on="1"/>
        <pt x="574" y="684" on="0"/>
        <pt x="574" y="645" on="1"/>
        <pt x="574" y="623" on="0"/>
        <pt x="547" y="592" on="1"/>
        <pt x="788" y="560" on="0"/>
        <pt x="788" y="343" on="1"/>
        <pt x="788" y="270" on="0"/>
        <pt x="729" y="138" on="0"/>
        <pt x="630" y="41" on="0"/>
        <pt x="504" y="-31" on="0"/>
        <pt x="365" y="-67" on="0"/>
        <pt x="298" y="-67" on="1"/>
        <pt x="238" y="-67" on="0"/>
        <pt x="135" y="-36" on="0"/>
        <pt x="54" y="26" on="0"/>
        <pt x="8" y="128" on="0"/>
        <pt x="8" y="193" on="1"/>
        <pt x="8" y="364" on="0"/>
        <pt x="162" y="525" on="1"/>
        <pt x="111" y="507" on="0"/>
        <pt x="90" y="495" on="1"/>
        <pt x="85" y="493" on="0"/>
        <pt x="77" y="489" on="0"/>
        <pt x="69" y="485" on="0"/>
        <pt x="62" y="483" on="0"/>
        <pt x="56" y="481" on="0"/>
        <pt x="51" y="480" on="0"/>
        <pt x="48" y="479" on="0"/>
        <pt x="46" y="479" on="1"/>
        <pt x="42" y="480" on="0"/>
        <pt x="41" y="482" on="1"/>
        <pt x="41" y="493" on="0"/>
        <pt x="82" y="514" on="1"/>
        <pt x="142" y="546" on="0"/>
        <pt x="205" y="565" on="1"/>
        <pt x="320" y="663" on="0"/>
        <pt x="457" y="681" on="1"/>
        <pt x="459" y="681" on="0"/>
        <pt x="463" y="682" on="0"/>
        <pt x="467" y="682" on="0"/>
        <pt x="472" y="683" on="0"/>
        <pt x="476" y="683" on="0"/>
        <pt x="480" y="683" on="0"/>
        <pt x="485" y="683" on="0"/>
        <pt x="489" y="684" on="0"/>
        <pt x="494" y="684" on="0"/>
      </contour>
      <contour>
        <pt x="518" y="595" on="1"/>
        <pt x="531" y="619" on="0"/>
        <pt x="531" y="632" on="1"/>
        <pt x="531" y="653" on="0"/>
        <pt x="493" y="653" on="1"/>
        <pt x="489" y="653" on="0"/>
        <pt x="481" y="653" on="0"/>
        <pt x="472" y="652" on="0"/>
        <pt x="467" y="652" on="1"/>
        <pt x="367" y="642" on="0"/>
        <pt x="284" y="585" on="1"/>
        <pt x="354" y="599" on="0"/>
        <pt x="433" y="599" on="1"/>
        <pt x="453" y="599" on="0"/>
        <pt x="496" y="597" on="0"/>
      </contour>
      <contour>
        <pt x="61" y="206" on="1"/>
        <pt x="61" y="156" on="0"/>
        <pt x="88" y="73" on="0"/>
        <pt x="135" y="16" on="0"/>
        <pt x="200" y="-23" on="0"/>
        <pt x="276" y="-42" on="0"/>
        <pt x="319" y="-42" on="1"/>
        <pt x="377" y="-42" on="0"/>
        <pt x="497" y="-8" on="0"/>
        <pt x="606" y="59" on="0"/>
        <pt x="692" y="149" on="0"/>
        <pt x="743" y="273" on="0"/>
        <pt x="743" y="342" on="1"/>
        <pt x="743" y="432" on="0"/>
        <pt x="626" y="561" on="0"/>
        <pt x="534" y="571" on="1"/>
        <pt x="527" y="562" on="0"/>
        <pt x="491" y="524" on="0"/>
        <pt x="408" y="457" on="0"/>
        <pt x="371" y="438" on="1"/>
        <pt x="325" y="416" on="0"/>
        <pt x="315" y="416" on="1"/>
        <pt x="312" y="416" on="0"/>
        <pt x="312" y="417" on="1"/>
        <pt x="312" y="427" on="0"/>
        <pt x="367" y="463" on="1"/>
        <pt x="445" y="515" on="0"/>
        <pt x="503" y="573" on="1"/>
        <pt x="480" y="574" on="0"/>
        <pt x="455" y="574" on="1"/>
        <pt x="398" y="574" on="0"/>
        <pt x="286" y="559" on="0"/>
        <pt x="235" y="547" on="1"/>
        <pt x="147" y="467" on="0"/>
        <pt x="61" y="290" on="0"/>
      </contour>
      <contour>
        <pt x="590" y="767" on="1"/>
        <pt x="590" y="756" on="0"/>
        <pt x="568" y="742" on="0"/>
        <pt x="556" y="742" on="1"/>
        <pt x="537" y="742" on="0"/>
        <pt x="537" y="774" on="1"/>
        <pt x="537" y="776" on="0"/>
        <pt x="537" y="781" on="0"/>
        <pt x="537" y="783" on="1"/>
        <pt x="537" y="792" on="0"/>
        <pt x="552" y="812" on="0"/>
        <pt x="571" y="826" on="0"/>
        <pt x="591" y="835" on="0"/>
        <pt x="598" y="835" on="1"/>
        <pt x="603" y="835" on="0"/>
        <pt x="604" y="832" on="1"/>
        <pt x="604" y="820" on="0"/>
        <pt x="590" y="769" on="0"/>
      </contour>
      <contour>
        <pt x="438" y="767" on="1"/>
        <pt x="438" y="756" on="0"/>
        <pt x="416" y="742" on="0"/>
        <pt x="404" y="742" on="1"/>
        <pt x="385" y="742" on="0"/>
        <pt x="385" y="774" on="1"/>
        <pt x="385" y="778" on="0"/>
        <pt x="385" y="783" on="1"/>
        <pt x="386" y="801" on="0"/>
        <pt x="431" y="835" on="0"/>
        <pt x="446" y="835" on="1"/>
        <pt x="451" y="835" on="0"/>
        <pt x="452" y="832" on="1"/>
        <pt x="452" y="820" on="0"/>
        <pt x="438" y="769" on="0"/>
      </contour>
    </TTGlyph>
    <TTGlyph name="Ograve" xMin="7" yMin="-67" xMax="788" yMax="846">
      <contour>
        <pt x="496" y="684" on="1"/>
        <pt x="574" y="684" on="0"/>
        <pt x="574" y="645" on="1"/>
        <pt x="574" y="623" on="0"/>
        <pt x="547" y="592" on="1"/>
        <pt x="788" y="560" on="0"/>
        <pt x="788" y="343" on="1"/>
        <pt x="788" y="270" on="0"/>
        <pt x="729" y="138" on="0"/>
        <pt x="630" y="41" on="0"/>
        <pt x="504" y="-31" on="0"/>
        <pt x="365" y="-67" on="0"/>
        <pt x="298" y="-67" on="1"/>
        <pt x="238" y="-67" on="0"/>
        <pt x="135" y="-36" on="0"/>
        <pt x="54" y="26" on="0"/>
        <pt x="8" y="128" on="0"/>
        <pt x="8" y="193" on="1"/>
        <pt x="8" y="364" on="0"/>
        <pt x="162" y="525" on="1"/>
        <pt x="111" y="507" on="0"/>
        <pt x="90" y="495" on="1"/>
        <pt x="85" y="493" on="0"/>
        <pt x="77" y="489" on="0"/>
        <pt x="69" y="485" on="0"/>
        <pt x="62" y="483" on="0"/>
        <pt x="56" y="481" on="0"/>
        <pt x="51" y="480" on="0"/>
        <pt x="48" y="479" on="0"/>
        <pt x="46" y="479" on="1"/>
        <pt x="42" y="480" on="0"/>
        <pt x="41" y="482" on="1"/>
        <pt x="41" y="493" on="0"/>
        <pt x="82" y="514" on="1"/>
        <pt x="142" y="546" on="0"/>
        <pt x="205" y="565" on="1"/>
        <pt x="320" y="663" on="0"/>
        <pt x="457" y="681" on="1"/>
        <pt x="459" y="681" on="0"/>
        <pt x="463" y="682" on="0"/>
        <pt x="467" y="682" on="0"/>
        <pt x="472" y="683" on="0"/>
        <pt x="476" y="683" on="0"/>
        <pt x="480" y="683" on="0"/>
        <pt x="485" y="683" on="0"/>
        <pt x="489" y="684" on="0"/>
        <pt x="494" y="684" on="0"/>
      </contour>
      <contour>
        <pt x="518" y="595" on="1"/>
        <pt x="531" y="619" on="0"/>
        <pt x="531" y="632" on="1"/>
        <pt x="531" y="653" on="0"/>
        <pt x="493" y="653" on="1"/>
        <pt x="489" y="653" on="0"/>
        <pt x="481" y="653" on="0"/>
        <pt x="472" y="652" on="0"/>
        <pt x="467" y="652" on="1"/>
        <pt x="367" y="642" on="0"/>
        <pt x="284" y="585" on="1"/>
        <pt x="354" y="599" on="0"/>
        <pt x="433" y="599" on="1"/>
        <pt x="453" y="599" on="0"/>
        <pt x="496" y="597" on="0"/>
      </contour>
      <contour>
        <pt x="61" y="206" on="1"/>
        <pt x="61" y="156" on="0"/>
        <pt x="88" y="73" on="0"/>
        <pt x="135" y="16" on="0"/>
        <pt x="200" y="-23" on="0"/>
        <pt x="276" y="-42" on="0"/>
        <pt x="319" y="-42" on="1"/>
        <pt x="377" y="-42" on="0"/>
        <pt x="497" y="-8" on="0"/>
        <pt x="606" y="59" on="0"/>
        <pt x="692" y="149" on="0"/>
        <pt x="743" y="273" on="0"/>
        <pt x="743" y="342" on="1"/>
        <pt x="743" y="432" on="0"/>
        <pt x="626" y="561" on="0"/>
        <pt x="534" y="571" on="1"/>
        <pt x="527" y="562" on="0"/>
        <pt x="491" y="524" on="0"/>
        <pt x="408" y="457" on="0"/>
        <pt x="371" y="438" on="1"/>
        <pt x="325" y="416" on="0"/>
        <pt x="315" y="416" on="1"/>
        <pt x="312" y="416" on="0"/>
        <pt x="312" y="417" on="1"/>
        <pt x="312" y="427" on="0"/>
        <pt x="367" y="463" on="1"/>
        <pt x="445" y="515" on="0"/>
        <pt x="503" y="573" on="1"/>
        <pt x="480" y="574" on="0"/>
        <pt x="455" y="574" on="1"/>
        <pt x="398" y="574" on="0"/>
        <pt x="286" y="559" on="0"/>
        <pt x="235" y="547" on="1"/>
        <pt x="147" y="467" on="0"/>
        <pt x="61" y="290" on="0"/>
      </contour>
      <contour>
        <pt x="603" y="727" on="1"/>
        <pt x="605" y="725" on="0"/>
        <pt x="605" y="723" on="1"/>
        <pt x="605" y="722" on="0"/>
        <pt x="603" y="721" on="0"/>
        <pt x="601" y="721" on="1"/>
        <pt x="587" y="721" on="0"/>
        <pt x="480" y="774" on="0"/>
        <pt x="425" y="804" on="1"/>
        <pt x="416" y="809" on="0"/>
        <pt x="416" y="819" on="1"/>
        <pt x="416" y="823" on="0"/>
        <pt x="420" y="833" on="0"/>
        <pt x="427" y="841" on="0"/>
        <pt x="436" y="846" on="0"/>
        <pt x="445" y="846" on="0"/>
        <pt x="448" y="843" on="1"/>
        <pt x="468" y="827" on="0"/>
        <pt x="542" y="780" on="0"/>
        <pt x="594" y="742" on="0"/>
      </contour>
    </TTGlyph>
    <TTGlyph name="Omega" xMin="23" yMin="-1" xMax="636" yMax="605">
      <contour>
        <pt x="43" y="35" on="1"/>
        <pt x="68" y="37" on="0"/>
        <pt x="125" y="37" on="1"/>
        <pt x="130" y="37" on="0"/>
        <pt x="149" y="37" on="0"/>
        <pt x="154" y="37" on="1"/>
        <pt x="170" y="37" on="0"/>
        <pt x="195" y="38" on="0"/>
        <pt x="204" y="38" on="1"/>
        <pt x="140" y="105" on="0"/>
        <pt x="140" y="225" on="1"/>
        <pt x="140" y="320" on="0"/>
        <pt x="228" y="495" on="0"/>
        <pt x="382" y="605" on="0"/>
        <pt x="469" y="605" on="1"/>
        <pt x="550" y="605" on="0"/>
        <pt x="626" y="509" on="0"/>
        <pt x="626" y="429" on="1"/>
        <pt x="626" y="312" on="0"/>
        <pt x="508" y="95" on="0"/>
        <pt x="421" y="36" on="1"/>
        <pt x="437" y="36" on="0"/>
        <pt x="599" y="38" on="0"/>
        <pt x="619" y="38" on="1"/>
        <pt x="636" y="38" on="0"/>
        <pt x="636" y="28" on="1"/>
        <pt x="636" y="21" on="0"/>
        <pt x="619" y="1" on="0"/>
        <pt x="615" y="1" on="1"/>
        <pt x="584" y="-1" on="0"/>
        <pt x="528" y="-1" on="1"/>
        <pt x="506" y="-1" on="0"/>
        <pt x="422" y="0" on="0"/>
        <pt x="406" y="0" on="1"/>
        <pt x="367" y="0" on="0"/>
        <pt x="367" y="8" on="1"/>
        <pt x="370" y="31" on="0"/>
        <pt x="386" y="39" on="1"/>
        <pt x="422" y="56" on="0"/>
        <pt x="494" y="146" on="0"/>
        <pt x="548" y="257" on="0"/>
        <pt x="581" y="384" on="0"/>
        <pt x="581" y="436" on="1"/>
        <pt x="581" y="502" on="0"/>
        <pt x="527" y="581" on="0"/>
        <pt x="470" y="581" on="1"/>
        <pt x="399" y="581" on="0"/>
        <pt x="264" y="464" on="0"/>
        <pt x="184" y="286" on="0"/>
        <pt x="184" y="199" on="1"/>
        <pt x="184" y="108" on="0"/>
        <pt x="229" y="46" on="1"/>
        <pt x="244" y="33" on="0"/>
        <pt x="244" y="28" on="1"/>
        <pt x="244" y="12" on="0"/>
        <pt x="232" y="-1" on="0"/>
        <pt x="216" y="-1" on="1"/>
        <pt x="196" y="-1" on="0"/>
        <pt x="84" y="0" on="0"/>
        <pt x="57" y="0" on="1"/>
        <pt x="23" y="0" on="0"/>
        <pt x="23" y="18" on="0"/>
        <pt x="34" y="34" on="0"/>
      </contour>
    </TTGlyph>
    <TTGlyph name="Oslash" xMin="62" yMin="-119" xMax="749" yMax="707">
      <contour>
        <pt x="484" y="705" on="1"/>
        <pt x="555" y="705" on="0"/>
        <pt x="555" y="668" on="1"/>
        <pt x="555" y="646" on="0"/>
        <pt x="531" y="614" on="1"/>
        <pt x="570" y="607" on="0"/>
        <pt x="576" y="605" on="1"/>
        <pt x="634" y="671" on="0"/>
        <pt x="668" y="703" on="1"/>
        <pt x="672" y="707" on="0"/>
        <pt x="677" y="707" on="1"/>
        <pt x="681" y="707" on="0"/>
        <pt x="687" y="702" on="0"/>
        <pt x="691" y="694" on="0"/>
        <pt x="691" y="689" on="1"/>
        <pt x="691" y="685" on="0"/>
        <pt x="688" y="677" on="0"/>
        <pt x="685" y="673" on="1"/>
        <pt x="663" y="650" on="0"/>
        <pt x="613" y="592" on="1"/>
        <pt x="749" y="535" on="0"/>
        <pt x="749" y="371" on="1"/>
        <pt x="749" y="283" on="0"/>
        <pt x="679" y="133" on="0"/>
        <pt x="565" y="36" on="0"/>
        <pt x="423" y="-18" on="0"/>
        <pt x="348" y="-18" on="1"/>
        <pt x="258" y="-18" on="0"/>
        <pt x="194" y="15" on="1"/>
        <pt x="173" y="-23" on="0"/>
        <pt x="167" y="-43" on="1"/>
        <pt x="161" y="-61" on="0"/>
        <pt x="161" y="-75" on="1"/>
        <pt x="161" y="-94" on="0"/>
        <pt x="172" y="-100" on="1"/>
        <pt x="176" y="-102" on="0"/>
        <pt x="172" y="-109" on="1"/>
        <pt x="164" y="-119" on="0"/>
        <pt x="151" y="-119" on="1"/>
        <pt x="127" y="-119" on="0"/>
        <pt x="127" y="-87" on="1"/>
        <pt x="127" y="-42" on="0"/>
        <pt x="165" y="31" on="1"/>
        <pt x="62" y="103" on="0"/>
        <pt x="62" y="248" on="1"/>
        <pt x="62" y="329" on="0"/>
        <pt x="129" y="488" on="0"/>
        <pt x="195" y="549" on="1"/>
        <pt x="145" y="527" on="0"/>
        <pt x="133" y="519" on="1"/>
        <pt x="126" y="517" on="1"/>
        <pt x="124" y="517" on="0"/>
        <pt x="120" y="519" on="0"/>
        <pt x="117" y="523" on="0"/>
        <pt x="117" y="526" on="1"/>
        <pt x="117" y="533" on="0"/>
        <pt x="126" y="537" on="1"/>
        <pt x="192" y="573" on="0"/>
        <pt x="233" y="588" on="1"/>
        <pt x="332" y="683" on="0"/>
        <pt x="453" y="703" on="1"/>
        <pt x="470" y="705" on="0"/>
      </contour>
      <contour>
        <pt x="594" y="569" on="1"/>
        <pt x="488" y="443" on="0"/>
        <pt x="271" y="146" on="0"/>
        <pt x="211" y="45" on="1"/>
        <pt x="269" y="6" on="0"/>
        <pt x="355" y="6" on="1"/>
        <pt x="415" y="6" on="0"/>
        <pt x="536" y="56" on="0"/>
        <pt x="638" y="145" on="0"/>
        <pt x="703" y="286" on="0"/>
        <pt x="703" y="368" on="1"/>
        <pt x="703" y="433" on="0"/>
        <pt x="644" y="540" on="0"/>
      </contour>
      <contour>
        <pt x="253" y="569" on="1"/>
        <pt x="180" y="514" on="0"/>
        <pt x="110" y="351" on="0"/>
        <pt x="110" y="262" on="1"/>
        <pt x="110" y="136" on="0"/>
        <pt x="184" y="66" on="1"/>
        <pt x="229" y="144" on="0"/>
        <pt x="382" y="358" on="1"/>
        <pt x="466" y="477" on="0"/>
        <pt x="559" y="585" on="1"/>
        <pt x="541" y="591" on="0"/>
        <pt x="521" y="594" on="1"/>
        <pt x="517" y="590" on="0"/>
        <pt x="511" y="584" on="0"/>
        <pt x="505" y="580" on="0"/>
        <pt x="501" y="577" on="0"/>
        <pt x="497" y="576" on="0"/>
        <pt x="496" y="576" on="1"/>
        <pt x="494" y="576" on="0"/>
        <pt x="491" y="578" on="0"/>
        <pt x="491" y="580" on="1"/>
        <pt x="491" y="588" on="0"/>
        <pt x="500" y="596" on="1"/>
        <pt x="480" y="597" on="0"/>
        <pt x="459" y="597" on="1"/>
        <pt x="355" y="597" on="0"/>
      </contour>
      <contour>
        <pt x="514" y="617" on="1"/>
        <pt x="523" y="638" on="0"/>
        <pt x="523" y="651" on="1"/>
        <pt x="523" y="675" on="0"/>
        <pt x="485" y="675" on="1"/>
        <pt x="475" y="675" on="0"/>
        <pt x="462" y="674" on="1"/>
        <pt x="416" y="669" on="0"/>
        <pt x="318" y="629" on="0"/>
        <pt x="285" y="603" on="1"/>
        <pt x="341" y="621" on="0"/>
        <pt x="432" y="621" on="1"/>
        <pt x="474" y="621" on="0"/>
      </contour>
    </TTGlyph>
</ttFont>
